<ttFont>
<head>
    <!-- Most of this table will be recalculated by the compiler -->
    <tableVersion value="1.0"/>
    <fontRevision value="2.004"/>
    <checkSumAdjustment value="0xa801b507"/>
    <magicNumber value="0x5f0f3cf5"/>
    <flags value="00000000 00000011"/>
    <unitsPerEm value="1000"/>
    <created value="Thu Oct  8 10:02:05 2009"/>
    <modified value="Thu Oct  8 10:02:05 2009"/>
    <xMin value="-454"/>
    <yMin value="-308"/>
    <xMax value="734"/>
    <yMax value="1039"/>
    <macStyle value="00000000 00000001"/>
    <lowestRecPPEM value="3"/>
    <fontDirectionHint value="2"/>
    <indexToLocFormat value="0"/>
    <glyphDataFormat value="0"/>
  </head>
          <CharString index="0">
            499 37 rmoveto
            16 -7 12 -14 6 vhcurveto
            3 -6 -18 1 -15 hhcurveto
            -117 504 rlineto
            42 -10 -15 2 -35 hhcurveto
            -33 -17 -1 -42 -10 hvcurveto
            -117 -505 rlineto
            -14 -19 -1 -2 -6 hvcurveto
            -13 -7 -8 -12 -16 vvcurveto
            -35 30 -2 20 vhcurveto
            99 hlineto
            22 27 1 36 33 -18 4 -35 1 hvcurveto
            19 86 rlineto
            146 hlineto
            19 -86 rlineto
            -35 -1 -18 -4 -33 vvcurveto
            -36 27 -1 22 vhcurveto
            99 hlineto
            20 30 2 35 hvcurveto
            -182 199 rmoveto
            -110 hlineto
            55 260 rlineto
            return
          </CharString>
          <CharString index="1">
            521 38 rmoveto
            36 -29 1 -18 -29 -14 3 3 -8 vhcurveto
            205 vlineto
            72 -54 86 -146 -45 -104 -3 -76 -34 24 -18 27 17 33 10 43 1 vhcurveto
            0 32 3 16 66 47 -25 -59 3 vhcurveto
            -173 -4 -119 -53 -95 vvcurveto
            hintmask 10000000
            -71 64 -68 105 35 59 7 28 46 vhcurveto
            hintmask 01000000
            -27 25 45 -2 37 hhcurveto
            33 24 2 36 hvcurveto
            -182 100 rmoveto
            -19 0 -19 -33 -15 vhcurveto
            return
          </CharString>
          <CharString index="2">
            rmoveto
            20 -24 11 -32 12 vhcurveto
            -78 28 -13 5 -6 0 -13 -5 rlinecurve
            -78 -28 rlineto
            -33 -12 -23 -11 -20 vvcurveto
            28 callgsubr
            9 19 6 6 20 vhcurveto
            66 20 66 -20 rlineto
            -76 callsubr
            return
          </CharString>
          <CharString index="3">
            rmoveto
            23 -13 15 -25 -29 -5 -20 -14 -3 vhcurveto
            -14 -4 -62 0 -38 hhcurveto
            -39 -61 0 14 -4 hvcurveto
            14 -3 -5 20 -29 hhcurveto
            -24 -14 -15 -23 -84 111 -4 68 68 111 4 84 hvcurveto
            return
          </CharString>
          <CharString index="4">
            rmoveto
            17 -17 14 -12 11 vhcurveto
            -47 44 rlineto
            14 -18 -9 6 -14 hhcurveto
            -23 -19 -20 -23 -16 13 -15 17 -13 hvcurveto
            47 -43 rlineto
            -10 11 16 -12 13 hhcurveto
            20 22 26 20 hvcurveto
            -194 hmoveto
            17 -17 14 -12 11 vhcurveto
            -47 44 rlineto
            14 -18 -9 6 -14 hhcurveto
            -23 -19 -20 -23 -16 13 -15 17 -13 hvcurveto
            47 -43 rlineto
            -10 11 16 -12 13 hhcurveto
            20 22 26 20 hvcurveto
            endchar
          </CharString>
          <CharString index="5">
            504 111 callsubr
            23 -1 25 -40 -41 -1 -24 -24 vhcurveto
            -59 -245 204 112 vlineto
            -41 1 4 -15 37 hhcurveto
            40 1 25 23 hvcurveto
            91 vlineto
            22 -1 25 -40 -37 -4 -15 -40 -1 vhcurveto
            -112 182 hlineto
            return
          </CharString>
          <CharString index="6">
            59 callgsubr
            hintmask 00010000
            -92 callsubr
            hintmask 00100000
            -69 callgsubr
            hintmask 00010000
            -77 callsubr
            hintmask 00100000
            -95 callsubr
          </CharString>
          <CharString index="7">
            rmoveto
            1 23 -16 9 -30 20 -90 58 rcurveline
            -10 7 -12 0 -10 -7 -90 -58 rcurveline
            -29 -19 -17 -10 1 -23 rrcurveto
            -21 1 12 -11 27 hhcurveto
            9 23 14 7 11 hvcurveto
            68 42 68 -42 rlineto
            -8 13 21 -13 9 hhcurveto
            27 12 11 21 1 hvcurveto
            return
          </CharString>
          <CharString index="8">
            223 -44 hlineto
            3 callsubr
            25 23 vhcurveto
            71 122 callgsubr
            -364 67 callsubr
            30 -1 18 hvcurveto
            21 -461 -44 callgsubr
            385 hlineto
            return
          </CharString>
          <CharString index="9">
            18 -9 21 -27 -9 -19 -6 -6 -20 vhcurveto
            -66 -20 -66 20 rlineto
            6 -20 -19 6 -9 hhcurveto
            -27 -9 -21 -18 -20 24 -11 32 -12 hvcurveto
            78 -28 13 -5 6 0 13 5 rlinecurve
            78 28 rlineto
            33 12 23 11 20 vvcurveto
            endchar
          </CharString>
          <CharString index="10">
            -44 callsubr
            -412 hlineto
            -165 447 rlineto
            36 -13 -17 4 -30 hhcurveto
            -66 -75 callsubr
            17 -461 -17 -75 callsubr
            103 11 callgsubr
            412 hlineto
            165 -447 rlineto
            -39 14 18 -1 29 hhcurveto
            35 13 4 44 hvcurveto
            488 17 vlineto
            82 callgsubr
            return
          </CharString>
          <CharString index="11">
            rmoveto
            21 -1 -12 11 -27 hhcurveto
            -9 -23 -14 -7 -11 hvcurveto
            -68 -42 -68 42 rlineto
            8 -13 -21 13 -9 hhcurveto
            -27 -12 -11 -21 -1 hvcurveto
            -1 -23 16 -9 30 -20 90 -58 rcurveline
            10 -7 12 0 10 7 90 58 rcurveline
            29 19 17 10 -1 23 rrcurveto
            endchar
          </CharString>
          <CharString index="12">
            -14 14 21 -22 36 hhcurveto
            28 29 17 17 23 hvcurveto
            22 16 29 25 19 vvcurveto
            endchar
          </CharString>
          <CharString index="13">
            84 callgsubr
            -81 -74 -11 -29 -68 -1 28 28 vhcurveto
            263 vlineto
            35 callsubr
            -71 hlineto
            -19 -28 -2 -36 -13 callsubr
            16 hvcurveto
            36 -242 hlineto
            -99 71 -26 76 37 38 9 22 34 vhcurveto
            return
          </CharString>
          <CharString index="14">
            469 217 rmoveto
            54 -18 51 -32 41 vhcurveto
            29 20 17 38 38 vvcurveto
            33 -14 40 -43 vhcurveto
            -34 -1 -22 -26 -29 vvcurveto
            -20 10 -18 17 -10 vhcurveto
            -3 -3 -4 -4 -4 -1 -6 -2 -1 0 -7 1 rrcurveto
            16 -29 -31 8 -33 hhcurveto
            -56 -53 -25 -41 -37 hvcurveto
            -40 -44 -21 -56 -60 vvcurveto
            -58 22 -57 39 -42 vhcurveto
            -41 37 53 -25 56 hhcurveto
            57 53 25 41 37 hvcurveto
            39 42 22 57 58 vvcurveto
            -83 9 rmoveto
            -40 -12 -40 -26 -31 vhcurveto
            -27 -21 -31 -18 -35 hhcurveto
            -34 -31 18 27 -22 hvcurveto
            -25 31 -12 40 40 vvcurveto
            37 13 36 24 28 vhcurveto
            25 22 32 16 33 hhcurveto
            34 32 -16 -25 22 hvcurveto
            24 -28 13 -36 -37 vvcurveto
            return
          </CharString>
          <CharString index="15">
            13 -14 -21 22 -36 hhcurveto
            -28 -29 -16 -18 -23 hvcurveto
            -22 -16 -29 -24 -20 vvcurveto
            return
          </CharString>
          <CharString index="16">
            -73 callsubr
            141 rmoveto
            -9 -9 -37 -31 -8 -6 2 3 -7 vhcurveto
            -129 58 rlineto
            -28 13 -4 15 13 vvcurveto
            24 18 18 24 vhcurveto
            0 9 0 13 -6 vhcurveto
            61 callgsubr
            17 -7 12 -7 -22 vvcurveto
            endchar
          </CharString>
          <CharString index="17">
            rmoveto
            38 -27 1 -20 vhcurveto
            -290 81 callgsubr
            -38 28 -1 20 hvcurveto
            289 -34 callsubr
          </CharString>
          <CharString index="18">
            12 callsubr
            hintmask 1110000101000000
            523 98 rmoveto
            39 -28 0 -13 -13 -29 0 -49 -11 -3 -13 -7 vhcurveto
            hintmask 1110001000000000
            -20 0 42 47 63 0 8 -9 24 hvcurveto
            -10 24 -18 19 -14 12 rrcurveto
            hintmask 1111000010000000
            60 38 18 59 39 vvcurveto
            88 -77 84 -120 vhcurveto
            -173 -11 callsubr
            17 -461 -17 -11 callsubr
            116 -86 callgsubr
            hintmask 1110101000000000
            10 callsubr
            19 -18 0 -21 -38 vvcurveto
            hintmask 1111000101000000
            -66 0 -30 19 -32 vhcurveto
            -32 18 30 -17 36 hhcurveto
            66 26 69 40 hvcurveto
            -169 341 rmoveto
            -44 -42 -52 -83 vhcurveto
            -63 193 63 hlineto
            return
          </CharString>
          <CharString index="19">
            rmoveto
            29 -23 22 -29 -29 -23 -22 -29 -29 23 -23 29 29 23 23 29 vhcurveto
            165 hmoveto
            29 -23 22 -29 -29 -23 -22 -29 -29 23 -23 29 29 23 23 29 vhcurveto
            return
          </CharString>
          <CharString index="20">
            hstemhm
            93 83 89 83 -36 83 -47 83 -47 83 hintmask 0100000001000000
            -24 callgsubr
            hintmask 0100000010000000
            92 callgsubr
            hintmask 0010001001000000
            -39 callsubr
            hvcurveto
            hintmask 0010000100000000
            68 callsubr
            vhcurveto
            hintmask 1010010010000000
            -94 callsubr
            hintmask 0100000100000000
            -48 callsubr
            return
          </CharString>
          <CharString index="21">
            -22 callsubr
            165 hlineto
            91 68 35 46 47 11 -25 -53 vhcurveto
            -213 -30 vlineto
            -19 -29 -1 -37 -36 31 -1 17 hvcurveto
            149 hlineto
            16 112 callsubr
            return
          </CharString>
          <CharString index="22">
            -61 callgsubr
            37 -28 1 -19 hvcurveto
            return
          </CharString>
          <CharString index="23">
            rmoveto
            22 -12 7 -17 7 vhcurveto
            -129 58 rlineto
            -13 6 -9 0 0 vvcurveto
            -24 -18 -18 -24 -13 4 return
          </CharString>
          <CharString index="24">
            -84 callsubr
            -15 28 -13 hvcurveto
            61 callgsubr
            -3 7 6 -2 8 hhcurveto
            31 9 37 9 hvcurveto
            endchar
          </CharString>
          <CharString index="25">
            490 111 callsubr
            24 -1 24 -40 -41 -1 -23 -25 vhcurveto
            -59 -219 461 47 vlineto
            16 31 82 callsubr
            -17 hvcurveto
            -158 -4 callgsubr
            -461 -28 hlineto
            -22 callgsubr
            return
          </CharString>
          <CharString index="26">
            98 callsubr
            28 -1 19 hvcurveto
            return
          </CharString>
          <CharString index="27">
            hlineto
            -72 callgsubr
            return
          </CharString>
          <CharString index="28">
            514 573 rmoveto
            37 -30 1 -17 vhcurveto
            -77 -63 callsubr
            15 hlineto
            -51 -406 -45 215 rlineto
            28 -10 -27 0 -10 hhcurveto
            -12 -22 0 -27 -12 hvcurveto
            -46 -217 -51 407 rlineto
            15 -86 callgsubr
            -77 143 callsubr
            -37 -31 24 -5 14 -1 hvcurveto
            69 -503 rlineto
            -41 6 28 0 14 hhcurveto
            10 23 1 24 12 hvcurveto
            53 240 50 -235 rlineto
            -29 8 30 -1 8 hhcurveto
            14 28 0 41 6 hvcurveto
            69 503 rlineto
            15 1 23 5 31 vvcurveto
            return
          </CharString>
          <CharString index="29">
            -80 callsubr
            18 hvcurveto
            return
          </CharString>
          <CharString index="30">
            26 28 23 15 12 hhcurveto
            5 9 -8 -10 11 hvcurveto
            return
          </CharString>
          <CharString index="31">
            -6 20 19 -6 9 hhcurveto
            27 9 21 18 hvcurveto
            return
          </CharString>
          <CharString index="32">
            hlineto
            -81 callsubr
            return
          </CharString>
          <CharString index="33">
            -40 callsubr
            -52 callsubr
            return
          </CharString>
          <CharString index="34">
            -105 callsubr
            -39 return
          </CharString>
          <CharString index="35">
            -25 -28 -23 -16 -12 hhcurveto
            -5 -9 9 10 -11 hvcurveto
            return
          </CharString>
          <CharString index="36">
            497 37 rmoveto
            34 -23 4 -31 vhcurveto
            -158 281 143 180 rlineto
            38 21 4 34 36 -31 1 -17 hvcurveto
            -85 112 callgsubr
            -37 -26 17 -8 15 -2 hvcurveto
            -182 -230 rlineto
            229 13 52 callsubr
            -97 67 callsubr
            29 -1 19 hvcurveto
            14 -461 -14 67 callsubr
            29 -1 19 hvcurveto
            97 hlineto
            18 -38 callgsubr
            -13 119 hlineto
            81 103 125 -223 rlineto
            -16 -1 -18 -7 -28 vvcurveto
            -37 29 -1 19 vhcurveto
            73 -36 callsubr
            hvcurveto
            return
          </CharString>
          <CharString index="37">
            -16 -34 -42 0 -8 hhcurveto
            -55 -37 29 35 44 79 30 130 5 hvcurveto
            return
          </CharString>
          <CharString index="38">
            19 16 17 18 hvcurveto
            -56 callsubr
          </CharString>
          <CharString index="39">
            372 -35 rmoveto
            423 vlineto
            62 callsubr
            -19 -29 -2 -36 -52 callsubr
            119 -391 hlineto
            -15 0 -33 -21 -31 vhcurveto
            -38 -27 -28 0 -21 hhcurveto
            -20 -13 1 2 -12 hvcurveto
            5 vlineto
            32 -27 19 -24 -26 -26 -19 -33 -79 101 -3 43 147 37 122 65 vhcurveto
            return
          </CharString>
          <CharString index="40">
            477 48 rmoveto
            56 vlineto
            23 -1 25 -40 -41 -1 -24 -24 vhcurveto
            -29 -234 vlineto
            289 275 rlineto
            24 22 0 4 19 vvcurveto
            40 -25 1 -22 vhcurveto
            -332 hlineto
            -38 -10 -10 -38 hvcurveto
            -45 97 callsubr
            24 24 vhcurveto
            18 216 vlineto
            -290 -275 rlineto
            -24 -23 0 -3 -19 vvcurveto
            -40 25 -1 23 vhcurveto
            370 hlineto
            27 7 1 23 18 vvcurveto
            return
          </CharString>
          <CharString index="41">
            -44 -25 -28 -28 -46 vvcurveto
            -18 vlineto
            -18 15 -17 20 return
          </CharString>
          <CharString index="42">
            506 114 rmoveto
            19 -15 16 -20 -25 -8 -22 -25 -8 vhcurveto
            -22 -9 -15 -11 -15 hhcurveto
            -39 -42 44 73 -10 hvcurveto
            159 hlineto
            42 5 13 36 135 -56 74 -74 -33 -41 -17 -46 -30 hvcurveto
            39 -25 -36 24 -51 hhcurveto
            -97 -25 -44 -35 -34 24 -18 28 9 38 3 48 3 hvcurveto
            4 7 4 1 6 hhcurveto
            45 25 -31 -56 hvcurveto
            -25 vlineto
            -110 -3 -86 -49 -82 vvcurveto
            -62 44 -67 75 48 50 22 40 28 vhcurveto
            -20 16 39 -42 55 hhcurveto
            89 31 99 21 hvcurveto
            -69 146 rmoveto
            -134 hlineto
            55 7 32 54 37 hhcurveto
            26 26 -28 -81 6 hvcurveto
            -213 -76 rmoveto
            -1 -46 rlineto
            -16 0 -19 -18 -15 vhcurveto
            -17 -21 -25 -2 -6 hhcurveto
            -35 -19 29 26 37 57 19 68 4 hvcurveto
            return
          </CharString>
          <CharString index="43">
            -171 -22 -86 -36 -94 105 -20 94 -14 hvcurveto
            44 -7 75 -12 -45 vvcurveto
            -34 -35 -27 -82 -43 -51 10 71 -23 vhcurveto
            22 -6 -5 12 -31 hhcurveto
            -41 -1 -24 -24 hvcurveto
            -94 vlineto
            -19 1 -29 36 10 17 0 33 13 vhcurveto
            -31 47 49 -2 27 hhcurveto
            161 32 87 49 hvcurveto
            return
          </CharString>
          <CharString index="44">
            hlineto
            -74 callsubr
            return
          </CharString>
          <CharString index="45">
            45 15 34 37 50 vvcurveto
            32 -14 40 -42 -34 -23 -27 -29 vhcurveto
            hintmask 0001000000000000
            -17 8 -15 12 -11 vhcurveto
            hintmask 0000100000010000
            0 -16 2 -6 vhcurveto
            -95 hlineto
            hintmask 0000000000100000
            -22 -13 -19 -21 hvcurveto
            hintmask 0000100000010000
            -19 1 14 -16 20 hhcurveto
            hintmask 1010100001001000
            21 callsubr
            hintmask 0000010010000000
            -10 7 -4 12 15 vvcurveto
            285 vlineto
            hintmask 0000100010000000
            -12 callsubr
            hintmask 1000000001000100
            -1 callgsubr
            hintmask 0100000000010000
            22 callgsubr
            return
          </CharString>
          <CharString index="46">
            70 callsubr
            -21 -8 -9 -30 -14 vhcurveto
            26 -33 -38 13 -40 hhcurveto
            -120 -105 -135 -181 -184 106 -133 119 48 38 21 21 23 hvcurveto
            75 callgsubr
            return
          </CharString>
          <CharString index="47">
            498 242 rmoveto
            35 -30 2 -18 vhcurveto
            -116 hlineto
            -18 -29 -2 -35 -37 28 -1 19 hvcurveto
            32 hlineto
            -98 -12 -42 -42 -48 hhcurveto
            -76 -69 103 138 144 73 98 73 hvcurveto
            return
          </CharString>
          <CharString index="48">
            -37 28 -1 19 vhcurveto
            71 -286 -71 -75 callsubr
            254 -60 callgsubr
            -100 114 hlineto
            return
          </CharString>
          <CharString index="49">
            19 callsubr
            21 107 101 104 callsubr
            -75 123 38 84 22 72 hintmask 0001110101000000
            295 639 rmoveto
            14 -15 17 -16 -25 -81 -42 -86 -50 32 -30 36 34 21 25 27 33 -26 22 -28 vhcurveto
            -3 hlineto
            12 31 26 9 7 2 rrcurveto
            9 3 17 6 19 vvcurveto
            216 -253 -57 callgsubr
            hintmask 1100001001010000
            -69 -46 0 -66 -11 vvcurveto
            -87 105 -64 130 130 105 65 86 38 -19 52 -52 28 vhcurveto
            7 -13 -42 22 -90 hhcurveto
            -69 hlineto
            -18 -21 -5 18 -15 hvcurveto
            -9 11 -1 19 0 vvcurveto
            hintmask 1011000110100000
            3 1 6 2 7 vhcurveto
            -8 14 32 -13 37 hhcurveto
            94 75 74 91 28 -8 27 -15 26 hvcurveto
            15 7 14 3 11 2 rrcurveto
            -26 9 24 -7 11 hhcurveto
            20 27 14 34 hvcurveto
            -192 -108 rmoveto
            -51 -39 -40 -47 -48 -38 42 48 51 39 39 47 48 38 -42 -47 vhcurveto
            106 -350 rmoveto
            -41 -71 -36 -92 vhcurveto
            hintmask 0100001000010000
            -28 callgsubr
            endchar
          </CharString>
          <CharString index="50">
            rmoveto
            37 -28 1 -19 vhcurveto
            return
          </CharString>
          <CharString index="51">
            18 vlineto
            -68 callgsubr
          </CharString>
          <CharString index="52">
            hstemhm
            221 -53 callsubr
            return
          </CharString>
          <CharString index="53">
            hstemhm
            93 83 89 83 -36 83 -47 83 -47 83 hintmask 0100000010000000
            -24 callgsubr
            hintmask 0100000100000000
            92 callgsubr
            hintmask 0010010010000000
            -39 callsubr
            hvcurveto
            hintmask 0010001000000000
            68 callsubr
            vhcurveto
            hintmask 1010100100000000
            -94 callsubr
            hintmask 0100001000000000
            -48 callsubr
            hintmask 0001000000000000
            return
          </CharString>
          <CharString index="54">
            83 hintmask 11001000
            -98 callgsubr
            return
          </CharString>
          <CharString index="55">
            -36 29 -16 callgsubr
            return
          </CharString>
          <CharString index="56">
            513 -41 callsubr
            -35 218 hlineto
            104 -53 44 -82 return
          </CharString>
          <CharString index="57">
            487 301 rmoveto
            161 -88 149 -133 vhcurveto
            -201 -78 callsubr
            14 -461 -14 -78 callsubr
            201 hlineto
            131 90 140 161 hvcurveto
            -82 hmoveto
            -110 -53 -116 -104 vhcurveto
            -86 461 86 hlineto
            106 51 -126 -109 hvcurveto
            return
          </CharString>
          <CharString index="58">
            29 -21 21 -29 -31 -19 -21 -29 -45 36 -43 52 100 49 133 11 4 vhcurveto
            149 439 rlineto
            24 hlineto
            82 callgsubr
            return
          </CharString>
          <CharString index="59">
            -24 7 20 -1 19 hhcurveto
            71 -47 callgsubr
            return
          </CharString>
          <CharString index="60">
            462 130 rmoveto
            106 -131 23 -33 5 vhcurveto
            -101 18 rlineto
            -26 6 -27 11 23 vvcurveto
            hintmask 00100000
            23 31 24 85 vhcurveto
            hintmask 01000000
            73 14 -24 -23 3 hvcurveto
            -20 1 3 -20 37 hhcurveto
            41 1 24 23 hvcurveto
            68 vlineto
            hintmask 00100000
            19 -2 28 -35 -22 -8 -9 -8 -4 vhcurveto
            17 -42 -40 0 -18 hhcurveto
            return
          </CharString>
          <CharString index="61">
            -11 75 -64 4 callgsubr
            -64 75 hstemhm
            27 68 157 72 -68 68 103 70 -63 70 -68 68 hintmask 0000000000100000
            504 132 callgsubr
            vhcurveto
            hintmask 0110001001000000
            -34 -1 -31 -17 hvcurveto
            -59 -110 204 vlineto
            hintmask 0011001000100000
            127 callgsubr
            182 hlineto
            hintmask 0001001010000000
            103 -44 hlineto
            -17 1 -31 34 33 2 31 17 vhcurveto
            71 vlineto
            62 callsubr
            -11 -10 0 5 -23 hvcurveto
            hintmask 1000110100000000
            6 -29 -11 0 -17 hhcurveto
            -96 -41 -22 -67 -16 hvcurveto
            -12 -52 -3 -51 -124 vvcurveto
            -80 0 -79 14 -62 vhcurveto
            -63 13 28 -33 113 hhcurveto
            20 7 0 7 34 hvcurveto
            hintmask 0100000000100000
            4 19 13 0 8 hhcurveto
            161 hlineto
            23 callsubr
            -252 127 rmoveto
            hintmask 1000111000000000
            -92 -11 -19 -43 -103 0 59 191 181 0 52 101 44 12 -15 -96 vhcurveto
            endchar
          </CharString>
          <CharString index="62">
            41 -40 1 -14 vhcurveto
            -310 hlineto
            -14 -40 -1 -41 -41 40 -1 14 hvcurveto
            310 hlineto
            96 callgsubr
            hvcurveto
            return
          </CharString>
          <CharString index="63">
            498 573 -57 callsubr
            -103 -63 callsubr
            16 return
          </CharString>
          <CharString index="64">
            5 callsubr
            106 75 hstemhm
            107 83 13 94 14 83 -8 82 -54 83 hintmask 0000001000000000
            497 178 rmoveto
            48 -14 98 -89 68 vhcurveto
            hintmask 0111100100000000
            62 37 12 45 29 vvcurveto
            67 -81 47 -99 -65 -116 -26 -95 vhcurveto
            -60 -45 vlineto
            -74 callsubr
            45 -286 -45 -63 callsubr
            81 hlineto
            23 callsubr
            441 vlineto
            17 0 10 28 13 vhcurveto
            9 22 23 4 24 hhcurveto
            55 44 -19 -21 -18 -22 -36 -69 -10 hvcurveto
            -45 -4 -19 -8 -28 vvcurveto
            -31 30 -6 0 vhcurveto
            hintmask 1000011010000000
            126 -8 27 -123 -52 vvcurveto
            -70 -55 -39 -48 -5 -5 1 1 -4 vhcurveto
            21 -1 3 -7 10 vhcurveto
            11 -9 -14 8 -15 hhcurveto
            hintmask 0100010000000000
            -24 -24 -18 -31 hvcurveto
            hintmask 1000001010000000
            -39 35 -42 73 93 93 72 112 vhcurveto
            endchar
          </CharString>
          <CharString index="65">
            521 38 rmoveto
            36 -29 1 -18 -29 -14 3 3 -8 vhcurveto
            205 vlineto
            72 -54 86 -146 -45 -104 -3 -76 -34 24 -18 27 17 33 10 43 1 vhcurveto
            0 32 3 16 66 47 -25 -59 3 vhcurveto
            -173 -4 -119 -53 -95 vvcurveto
            hintmask 01000000
            -71 64 -68 105 35 59 7 28 46 vhcurveto
            hintmask 00100000
            -27 25 45 -2 37 hhcurveto
            33 24 2 36 hvcurveto
            -182 100 rmoveto
            -19 0 -19 -33 -15 vhcurveto
            return
          </CharString>
          <CharString index="66">
            37 -57 callsubr
            return
          </CharString>
          <CharString index="67">
            -19 -28 -1 -37 return
          </CharString>
          <CharString index="68">
            36 -8 -25 callsubr
            return
          </CharString>
          <CharString index="69">
            -18 -29 -1 -36 return
          </CharString>
          <CharString index="70">
            232 -35 callsubr
            return
          </CharString>
          <CharString index="71">
            hlineto
            28 callsubr
            return
          </CharString>
          <CharString index="72">
            550 -88 callsubr
            return
          </CharString>
          <CharString index="73">
            -47 callgsubr
            endchar
          </CharString>
          <CharString index="74">
            -105 callsubr
            28 209 -8 callsubr
          </CharString>
          <CharString index="75">
            hlineto
            -61 callgsubr
            return
          </CharString>
          <CharString index="76">
            -70 callgsubr
            endchar
          </CharString>
          <CharString index="77">
            526 635 rmoveto
            33 -14 39 -42 1 vhcurveto
            -34 -1 -23 -27 -28 vvcurveto
            -17 7 -16 13 -11 vhcurveto
            0 -11 3 -5 vhcurveto
            -82 hlineto
            return
          </CharString>
          <CharString index="78">
            75 461 75 return
          </CharString>
          <CharString index="79">
            66 callgsubr
            17 68 vstem
            507 113 rmoveto
            23 -18 13 -17 -28 -6 -24 -6 -1 vhcurveto
            -31 -7 -13 -19 -19 hhcurveto
            -37 -35 51 66 -9 hvcurveto
            143 hlineto
            41 6 13 36 135 -53 74 -69 -49 -34 -36 -40 -23 hvcurveto
            31 -19 -37 45 -56 hhcurveto
            -81 -69 -94 -131 -131 69 -94 81 54 38 41 37 21 hvcurveto
            -36 21 39 -42 55 hhcurveto
            84 28 100 19 hvcurveto
            -69 147 rmoveto
            -117 hlineto
            61 9 28 48 30 hhcurveto
            20 24 -24 -85 6 hvcurveto
            -195 -35 rmoveto
            -88 -39 -68 -40 -40 -39 68 88 87 40 57 39 39 40 -58 -86 vhcurveto
            endchar
          </CharString>
          <CharString index="80">
            109 -21 435 -20 hstem
            222 80 77 80 vstem
            459 216 rmoveto
            20 -13 10 -4 3 vhcurveto
            -21 14 -53 26 -30 16 92 51 rcurveline
            15 8 14 9 22 vvcurveto
            4 0 36 -49 vhcurveto
            -110 -64 2 104 rlineto
            10 -1 38 -39 -39 -1 -38 -10 vhcurveto
            2 -104 -92 54 rlineto
            10 -16 -3 0 -8 hhcurveto
            -24 -16 -22 -18 -23 12 -7 16 -8 hvcurveto
            93 -51 -92 -51 rlineto
            -15 -8 -14 -8 -23 vvcurveto
            -4 0 -36 49 vhcurveto
            110 64 -2 -104 rlineto
            -10 1 -38 39 39 1 38 10 vhcurveto
            -2 104 79 -47 rlineto
            -17 28 3 0 9 hhcurveto
            24 16 22 18 hvcurveto
            endchar
          </CharString>
          <CharString index="81">
            25 callsubr
            106 75 hstem
            178 82 vstem
            440 551 rmoveto
            64 -84 2 -18 -82 -78 -48 -90 vhcurveto
            -43 -90 vlineto
            -19 -29 -2 -36 -52 callsubr
            91 -286 -91 67 callsubr
            30 -1 18 hvcurveto
            264 -60 callgsubr
            -91 return
          </CharString>
          <CharString index="82">
            12 -39 2 callsubr
            return
          </CharString>
          <CharString index="83">
            489 373 rmoveto
            22 -12 46 -88 -48 -58 -15 -52 -52 vhcurveto
            14 vlineto
            hintmask 00100000
            35 callsubr
            -107 hlineto
            hintmask 01000000
            -18 -29 -2 -35 hvcurveto
            return
          </CharString>
          <CharString index="84">
            -11 75 227 75 181 75 hstemhm
            42 83 -70 83 248 83 -70 83 hintmask 00101100
            482 177 rmoveto
            70 -54 56 -66 26 vhcurveto
            69 29 38 47 53 vvcurveto
            83 -86 81 -121 -122 -85 -82 -82 -53 39 -48 68 -28 vhcurveto
            hintmask 11010010
            -67 -26 -53 -56 -70 vvcurveto
            -98 93 -90 127 128 92 90 98 vhcurveto
            -96 280 rmoveto
            -52 -58 -39 -66 vhcurveto
            hintmask 10101100
            -66 -58 40 51 47 52 43 72 71 53 -43 -47 hvcurveto
            13 -279 rmoveto
            -63 -61 -51 -76 vhcurveto
            hintmask 01010010
            -76 -61 51 63 56 53 57 84 84 53 -57 -56 hvcurveto
            endchar
          </CharString>
          <CharString index="85">
            17 -38 callgsubr
            -35 return
          </CharString>
          <CharString index="86">
            0 -29 callsubr
            return
          </CharString>
          <CharString index="87">
            58 callgsubr
            hintmask 11011000
            -97 callgsubr
            hintmask 00100000
            return
          </CharString>
          <CharString index="88">
            37 -36 callgsubr
            return
          </CharString>
          <CharString index="89">
            vvcurveto
            -46 37 -55 67 141 callgsubr
            8 11 -3 23 -12 13 -21 23 -18 90 callsubr
            -6 62 callgsubr
            39 11 32 48 28 hvcurveto
            return
          </CharString>
          <CharString index="90">
            -16 callgsubr
            116 11 callgsubr
            return
          </CharString>
          <CharString index="91">
            -106 callgsubr
            hintmask 00010000
            150 return
          </CharString>
          <CharString index="92">
            31 callsubr
            17 79 callgsubr
            hstemhm
            133 123 -108 83 160 98 hintmask 0000010100000000
            489 373 rmoveto
            22 -12 46 -88 -48 -58 -15 -52 -52 vhcurveto
            14 vlineto
            hintmask 0000100000000000
            35 callsubr
            -107 hlineto
            hintmask 0001000000000000
            -18 -29 -2 -35 hvcurveto
            hintmask 0010100100000000
            -59 callsubr
            hintmask 0000010010000000
            45 callgsubr
            return
          </CharString>
          <CharString index="93">
            -59 callsubr
            hintmask 00010001
            45 callgsubr
            hintmask 01000001
            26 callsubr
            return
          </CharString>
          <CharString index="94">
            -36 30 -1 return
          </CharString>
          <CharString index="95">
            20 -15 15 -20 vhcurveto
            -95 hlineto
            -21 -14 136 callgsubr
            15 -16 19 hhcurveto
            47 -245 hlineto
            return
          </CharString>
          <CharString index="96">
            hlineto
            -19 -27 -1 -37 -36 28 -16 callgsubr
            return
          </CharString>
          <CharString index="97">
            36 -7 12 return
          </CharString>
          <CharString index="98">
            rmoveto
            70 2 -151 15 -76 hhcurveto
            -80 -146 -19 -66 -16 10 -22 31 5 24 16 10 14 hvcurveto
            11 22 74 9 46 hhcurveto
            47 65 -5 -15 30 hvcurveto
            -13 16 16 -13 9 hhcurveto
            28 13 17 21 1 hvcurveto
            endchar
          </CharString>
          <CharString index="99">
            rmoveto
            20 -18 19 -20 -13 -7 -5 -8 -67 callgsubr
          </CharString>
          <CharString index="100">
            rmoveto
            20 -24 11 -32 12 vhcurveto
            -78 28 -13 5 -6 0 -13 -5 rlinecurve
            -78 -28 rlineto
            -33 -12 -23 -11 -20 vvcurveto
            hintmask 00001000
            28 callgsubr
            vhcurveto
            hintmask 00010000
            9 19 6 6 20 hvcurveto
            66 20 66 -20 rlineto
            return
          </CharString>
          <CharString index="101">
            -6 75 109 74 117 75 hstem
            467 219 rmoveto
            123 -102 102 -130 -136 -47 -94 -26 -34 35 -1 7 22 9 4 22 9 vhcurveto
            46 20 49 8 25 hhcurveto
            67 67 -43 -74 18 hvcurveto
            -281 hlineto
            -25 -22 0 -44 -115 66 -99 131 120 98 101 124 hvcurveto
            -88 -41 rmoveto
            -63 -16 -52 -46 -62 hhcurveto
            -46 -54 22 87 -11 hvcurveto
            endchar
          </CharString>
          <CharString index="102">
            -86 callgsubr
            -116 hlineto
            return
          </CharString>
          <CharString index="103">
            217 534 -89 callgsubr
            return
          </CharString>
          <CharString index="104">
            -50 callgsubr
            endchar
          </CharString>
          <CharString index="105">
            76 -106 3 -47 -173 -61 -137 -89 -121 95 -103 127 143 34 103 17 vhcurveto
            return
          </CharString>
          <CharString index="106">
            41 1 24 24 hvcurveto
            135 vlineto
            return
          </CharString>
          <CharString index="107">
            114 hlineto
            118 74 91 95 hvcurveto
            -82 hmoveto
            -49 -40 -62 -88 vhcurveto
            -95 222 95 hlineto
            88 40 -63 -48 hvcurveto
            endchar
          </CharString>
          <CharString index="108">
            115 hlineto
            18 29 81 callsubr
            -20 hvcurveto
            return
          </CharString>
          <CharString index="109">
            vhcurveto
            13 callsubr
            return
          </CharString>
          <CharString index="110">
            -12 callgsubr
            42 0 return
          </CharString>
          <CharString index="111">
            0 -10 callgsubr
            return
          </CharString>
          <CharString index="112">
            -6 75 -69 32 callgsubr
            return
          </CharString>
          <CharString index="113">
            -66 callsubr
            vhcurveto
            hintmask 0000000101000000
            -69 callsubr
          </CharString>
          <CharString index="114">
            185 24 26 290 return
          </CharString>
          <CharString index="115">
            80 34 44 38 19 9 -16 -56 vhcurveto
            -219 vlineto
            -21 -1 -19 -5 -32 vvcurveto
            -36 28 -1 17 vhcurveto
            73 hlineto
            18 27 1 36 33 -17 5 -36 hvcurveto
            167 vlineto
            80 35 44 37 20 8 -16 -56 vhcurveto
            -219 vlineto
            -20 -1 -19 -5 -32 vvcurveto
            -36 28 -1 16 vhcurveto
            73 -36 callsubr
            hvcurveto
            return
          </CharString>
          <CharString index="116">
            118 rmoveto
            20 -9 8 -8 7 vhcurveto
            -176 153 176 153 rlineto
            8 7 9 8 20 vvcurveto
            26 -15 13 -14 -7 -3 -1 -9 -12 vhcurveto
            -210 -182 rlineto
            -7 -7 -9 -9 -19 vvcurveto
            -14 6 -12 7 -7 vhcurveto
            213 -183 rlineto
            -10 12 3 -1 7 hhcurveto
            14 15 13 26 hvcurveto
            return
          </CharString>
          <CharString index="117">
            -16 193 68 hlineto
            17 28 0 -25 29 hvcurveto
            return
          </CharString>
          <CharString index="118">
            306 rmoveto
            19 -9 9 -7 7 vhcurveto
            -210 182 rlineto
            9 -12 -4 1 -6 hhcurveto
            -14 -15 -13 -26 -20 9 -8 8 -7 hvcurveto
            176 -153 -176 -153 rlineto
            -8 -7 -9 -8 -20 vvcurveto
            -26 15 -13 14 6 4 1 10 12 vhcurveto
            213 183 rlineto
            7 7 6 12 14 vvcurveto
            return
          </CharString>
          <CharString index="119">
            82 -63 83 -76 83 3 83 cntrmask 1110000000000000
            return
          </CharString>
          <CharString index="120">
            -71 35 callgsubr
            return
          </CharString>
          <CharString index="121">
            -203 76 hstem
            253 83 14 82 vstem
            432 -95 rmoveto
            39 -27 45 -69 16 vhcurveto
            38 -4 16 -37 -41 -1 -25 -23 vhcurveto
            -27 150 callsubr
            -5 callgsubr
            vhcurveto
            endchar
          </CharString>
          <CharString index="122">
            29 callsubr
            82 -29 callsubr
            return
          </CharString>
          <CharString index="123">
            -21 callsubr
            hstem
            return
          </CharString>
          <CharString index="124">
            -113 -95 -99 -127 return
          </CharString>
          <CharString index="125">
            -51 -41 -77 -70 -66 -54 66 82 89 64 60 65 58 44 -50 -50 vhcurveto
            return
          </CharString>
          <CharString index="126">
            -223 74 153 71 38 74 180 74 return
          </CharString>
          <CharString index="127">
            31 callsubr
            17 -29 callsubr
            return
          </CharString>
          <CharString index="128">
            47 -210 hlineto
            -45 -44 -35 -55 -27 -18 2 9 -14 vhcurveto
            return
          </CharString>
          <CharString index="129">
            51 -1 rlineto
            -40 1 22 -15 27 hhcurveto
            28 24 19 33 hvcurveto
            return
          </CharString>
          <CharString index="130">
            38 9 10 38 hvcurveto
            return
          </CharString>
          <CharString index="131">
            -28 -26 -22 -35 -36 vvcurveto
            -46 38 75 callsubr
            24 vhcurveto
            26 callgsubr
            -15 -20 12 19 42 13 37 34 20 hvcurveto
            113 -36 callsubr
            hvcurveto
            return
          </CharString>
          <CharString index="132">
            0 32 callgsubr
            return
          </CharString>
          <CharString index="133">
            -24 23 -18 26 26 23 18 31 vhcurveto
            return
          </CharString>
          <CharString index="134">
            -11 40 callsubr
            return
          </CharString>
          <CharString index="135">
            18 30 1 36 return
          </CharString>
          <CharString index="136">
            -195 113 return
          </CharString>
          <CharString index="137">
            -38 -12 -24 -10 -10 -12 24 38 37 12 24 10 10 12 -24 -37 vhcurveto
            return
          </CharString>
          <CharString index="138">
            -204 -21 101 107 return
          </CharString>
          <CharString index="139">
            rmoveto
            21 -16 2 -11 vhcurveto
            -31 163 hlineto
            23 -4 6 -23 vhcurveto
            -14 hlineto
            -15 -4 -2 -13 -8 hvcurveto
            -110 -174 rlineto
            -7 -7 0 -1 -13 vvcurveto
            -23 7 -4 20 vhcurveto
            115 -37 -22 hlineto
            return
          </CharString>
          <CharString index="140">
            22 -7 -19 1 -18 hhcurveto
            -31 hlineto
            92 callsubr
            -33 19 -5 36 hvcurveto
            -286 vlineto
            -36 -19 -5 -33 -36 31 -1 17 hvcurveto
            85 hlineto
            18 27 1 36 33 -16 5 -36 hvcurveto
            167 vlineto
            return
          </CharString>
          <CharString index="141">
            71 vlineto
            35 callsubr
            return
          </CharString>
          <CharString index="142">
            -10 callsubr
            -40 vhcurveto
            return
          </CharString>
          <CharString index="143">
            -281 512 -88 callsubr
            return
          </CharString>
          <CharString index="144">
            304 338 rmoveto
            32 -25 25 -32 -32 -25 -25 -32 -32 25 -24 32 32 25 24 32 vhcurveto
            161 -433 rmoveto
            36 -28 17 -24 -24 -27 -19 -33 -9 2 -9 5 -9 vhcurveto
            return
          </CharString>
          <CharString index="145">
            -83 7 rmoveto
            -86 -57 -70 -68 -68 -57 70 86 84 60 60 65 66 59 -60 -84 vhcurveto
            endchar
          </CharString>
          <CharString index="146">
            29 hhcurveto
            110 99 96 128 hvcurveto
            -82 hmoveto
            -88 -64 -61 -65 return
          </CharString>
          <CharString index="147">
            75 483 75 return
          </CharString>
          <CharString index="148">
            40 1 25 23 hvcurveto
            156 vlineto
            return
          </CharString>
          <CharString index="149">
            17 112 callsubr
            hintmask 11000101
            50 callgsubr
            vhcurveto
            -35 175 hlineto
            -33 38 38 -7 39 callsubr
            vhcurveto
            return
          </CharString>
          <CharString index="150">
            264 84 hstem
            525 133 callgsubr
            -417 hlineto
            -14 -40 -1 -41 -41 40 -1 14 hvcurveto
            417 95 callgsubr
          </CharString>
          <CharString index="151">
            522 37 rmoveto
            33 -19 5 -36 vhcurveto
            228 vlineto
            21 -2 117 -93 -28 -38 -11 -33 -29 vhcurveto
            29 -17 -27 15 -31 hhcurveto
            -29 -27 -10 -18 -23 hvcurveto
            return
          </CharString>
          <CharString index="152">
            -11 69 callgsubr
            return
          </CharString>
          <CharString index="153">
            -21 146 -20 return
          </CharString>
          <CharString index="154">
            120 callsubr
            80 callgsubr
            return
          </CharString>
          <CharString index="155">
            75 26 75 191 75 116 75 return
          </CharString>
          <CharString index="156">
            -21 170 70 hstemhm
            return
          </CharString>
          <CharString index="157">
            75 hintmask 00101000
            462 130 rmoveto
            106 -131 23 -33 5 vhcurveto
            -101 18 rlineto
            -26 6 -27 11 23 vvcurveto
            hintmask 00010000
            23 31 24 85 vhcurveto
            return
          </CharString>
          <CharString index="158">
            hvcurveto
            -9 49 0 66 52 vvcurveto
            54 0 75 10 46 vhcurveto
            50 12 20 17 84 hhcurveto
            81 26 -15 -59 10 hvcurveto
            9 -49 0 -66 -52 vvcurveto
            return
          </CharString>
          <CharString index="159">
            vlineto
            18 -38 callgsubr
            return
          </CharString>
          <CharString index="160">
            hstemhm
            36 83 168 83 -1 83 -37 83 return
          </CharString>
          <CharString index="161">
            75 140 75 268 75 return
          </CharString>
          <CharString index="162">
            -37 107 callgsubr
            return
          </CharString>
          <CharString index="163">
            -34 -21 -25 -27 return
          </CharString>
          <CharString index="164">
            hstemhm
            71 84 145 113 -45 84 -39 113 return
          </CharString>
          <CharString index="165">
            -82 hmoveto
            -79 -61 -53 -66 -60 -35 46 56 -18 vhcurveto
            -7 22 -1 25 11 vvcurveto
            57 56 44 69 74 49 -61 -68 vhcurveto
            endchar
          </CharString>
          <CharString index="166">
            490 218 rmoveto
            125 -91 98 -107 -43 -40 -14 -24 -33 vhcurveto
            return
          </CharString>
          <CharString index="167">
            53 83 252 83 return
          </CharString>
          <CharString index="168">
            5 6 6 9 17 vvcurveto
            33 -27 19 -24 -17 -34 -10 -45 -84 84 -73 114 127 99 92 112 vhcurveto
            endchar
          </CharString>
          <CharString index="169">
            35 callsubr
            -154 hlineto
            return
          </CharString>
          <CharString index="170">
            hstemhm
            93 83 -48 104 33 83 -55 104 -85 83 -47 83 -47 83 return
          </CharString>
          <CharString index="171">
            0 79 callgsubr
            return
          </CharString>
          <CharString index="172">
            514 38 rmoveto
            36 -30 1 -17 vhcurveto
            return
          </CharString>
          <CharString index="173">
            75 205 75 181 75 return
          </CharString>
          <CharString index="174">
            91 callgsubr
            -37 return
          </CharString>
          <CharString index="175">
            -13 callsubr
            17 return
          </CharString>
          <CharString index="176">
            74 109 75 return
          </CharString>
          <CharString index="177">
            19 -1 29 -36 return
          </CharString>
          <CharString index="178">
            41 -40 1 -14 vhcurveto
            -66 hlineto
            -14 -40 -1 -41 -41 40 -1 14 hvcurveto
            66 95 callgsubr
          </CharString>
          <CharString index="179">
            9 11 -4 27 -11 156 callgsubr
            107 callsubr
            -6 -8 -3 -6 hhcurveto
            -15 -20 12 19 hvcurveto
            return
          </CharString>
          <CharString index="180">
            -72 callgsubr
            17 hvcurveto
            36 return
          </CharString>
          <CharString index="181">
            hlineto
            -21 -17 -17 -21 -21 17 -17 21 hvcurveto
            return
          </CharString>
          <CharString index="182">
            -55 67 128 callsubr
            return
          </CharString>
          <CharString index="183">
            75 227 78 178 75 hstemhm
            42 102 -74 102 199 83 -74 102 -83 83 hintmask 00000010
            482 return
          </CharString>
          <CharString index="184">
            -6 -9 -4 -10 -12 vvcurveto
            -27 23 -23 27 28 23 23 27 94 -85 70 -97 -102 -82 -82 -101 vhcurveto
            return
          </CharString>
          <CharString index="185">
            82 -35 83 -82 82 -47 83 -47 82 -82 83 -36 83 return
          </CharString>
          <CharString index="186">
            vhcurveto
            34 callsubr
            return
          </CharString>
          <CharString index="187">
            107 callsubr
            -7 -7 -3 return
          </CharString>
          <CharString index="188">
            1 36 37 -27 1 return
          </CharString>
          <CharString index="189">
            1 36 37 -30 1 return
          </CharString>
          <CharString index="190">
            36 -30 1 -18 return
          </CharString>
          <CharString index="191">
            75 11 76 59 76 26 75 160 75 hstem
            51 82 36 82 131 91 vstem
            473 return
          </CharString>
          <CharString index="192">
            49 callsubr
            159 72 -11 70 -70 72 return
          </CharString>
          <CharString index="193">
            hstemhm
            72 83 -42 104 91 104 -43 83 return
          </CharString>
          <CharString index="194">
            21 17 17 21 21 -17 17 -21 hvcurveto
            return
          </CharString>
          <CharString index="195">
            -20 hstem
            220 84 vstem
            return
          </CharString>
          <CharString index="196">
            hstemhm
            60 callsubr
            return
          </CharString>
          <CharString index="197">
            -21 107 callsubr
            return
          </CharString>
          <CharString index="198">
            -6 75 -69 75 return
          </CharString>
          <CharString index="199">
            -18 -30 -2 -35 return
          </CharString>
          <CharString index="200">
            554 rmoveto
            81 -43 57 -50 -51 -42 -59 -79 -81 43 -57 50 51 42 59 79 vhcurveto
            return
          </CharString>
          <CharString index="201">
            497 rmoveto
            -37 -12 -25 -10 -10 -12 25 37 35 11 27 11 11 11 -27 -35 vhcurveto
            return
          </CharString>
          <CharString index="202">
            -36 callsubr
            hvcurveto
            endchar
          </CharString>
          <CharString index="203">
            -17 -13 -19 -23 -22 -14 20 16 16 14 20 22 23 13 -19 -17 vhcurveto
            endchar
          </CharString>
          <CharString index="204">
            vlineto
            3 callsubr
            return
          </CharString>
          <CharString index="205">
            -38 callsubr
            -37 return
          </CharString>
          <CharString index="206">
            75 182 75 return
          </CharString>
          <CharString index="207">
            -23 37 31 hlineto
            11 16 1 21 hvcurveto
            -101 23 rmoveto
            -86 hlineto
            86 136 rlineto
            return
          </CharString>
          <CharString index="208">
            -35 -42 callgsubr
            155 hlineto
            17 30 1 36 return
          </CharString>
          <CharString index="209">
            5 273 147 168 59 57 rrcurveto
            23 20 1 3 16 vvcurveto
            endchar
          </CharString>
          <CharString index="210">
            75 292 75 hstemhm
            147 83 return
          </CharString>
          <CharString index="211">
            -20 55 callgsubr
            return
          </CharString>
          <CharString index="212">
            50 78 73 78 14 78 25 78 return
          </CharString>
          <CharString index="213">
            -222 75 508 75 return
          </CharString>
          <CharString index="214">
            -34 -34 rrcurveto
            -5 return
          </CharString>
          <CharString index="215">
            hlineto
            18 28 149 callsubr
            return
          </CharString>
          <CharString index="216">
            151 callsubr
            128 104 return
          </CharString>
          <CharString index="217">
            16 callsubr
            221 83 vstem
            return
          </CharString>
          <CharString index="218">
            48 rmoveto
            86 vlineto
            return
          </CharString>
          <CharString index="219">
            30 1 36 hvcurveto
            return
          </CharString>
          <CharString index="220">
            -81 75 274 75 274 75 hstem
            221 83 cntrmask 11100000
            470 return
          </CharString>
          <CharString index="221">
            -20 63 callsubr
            return
          </CharString>
          <CharString index="222">
            hstemhm
            93 83 103 73 -64 83 -45 73 0 83 -75 73 -59 83 return
          </CharString>
          <CharString index="223">
            -13 2 -17 3 -17 4 rrcurveto
            6 -22 -34 8 -25 hhcurveto
            -48 -3 return
          </CharString>
          <CharString index="224">
            75 83 68 callgsubr
            return
          </CharString>
          <CharString index="225">
            -21 154 76 callgsubr
            return
          </CharString>
          <CharString index="226">
            141 callsubr
            103 return
          </CharString>
          <CharString index="227">
            32 callgsubr
            -70 75 return
          </CharString>
          <CharString index="228">
            78 48 -20 hstem
            442 return
          </CharString>
          <CharString index="229">
            75 291 75 95 75 return
          </CharString>
          <CharString index="230">
            -28 2 6 -11 39 hhcurveto
            return
          </CharString>
          <CharString index="231">
            25 21 5 33 hvcurveto
            return
          </CharString>
          <CharString index="232">
            162 callsubr
            hintmask 10110000
            442 return
          </CharString>
          <CharString index="233">
            160 callsubr
            hintmask 10000000
            412 return
          </CharString>
          <CharString index="234">
            rlineto
            -10 -14 0 -3 -22 vvcurveto
            -38 11 -8 36 vhcurveto
            238 return
          </CharString>
          <CharString index="235">
            39 40 27 34 return
          </CharString>
          <CharString index="236">
            16 11 4 25 -11 16 rlinecurve
            -11 16 -23 5 -16 -11 return
          </CharString>
          <CharString index="237">
            150 callgsubr
            hstemhm
            return
          </CharString>
          <CharString index="238">
            135 callsubr
            113 83 return
          </CharString>
          <CharString index="239">
            hstemhm
            70 83 151 83 -32 102 return
          </CharString>
          <CharString index="240">
            hhcurveto
            144 callgsubr
            return
          </CharString>
          <CharString index="241">
            hstemhm
            99 callgsubr
            return
          </CharString>
          <CharString index="242">
            24 83 114 83 return
          </CharString>
          <CharString index="243">
            75 193 75 return
          </CharString>
          <CharString index="244">
            -71 hlineto
            73 callsubr
            return
          </CharString>
          <CharString index="245">
            -81 76 123 76 222 76 124 76 hstem
            return
          </CharString>
          <CharString index="246">
            164 callgsubr
            100 75 return
          </CharString>
          <CharString index="247">
            rmoveto
            31 -25 25 -32 vhcurveto
            return
          </CharString>
          <CharString index="248">
            45 callsubr
            52 return
          </CharString>
          <CharString index="249">
            27 34 25 vhcurveto
            9 11 return
          </CharString>
          <CharString index="250">
            hlineto
            -17 -30 -1 return
          </CharString>
          <CharString index="251">
            -112 0 -5 0 vvcurveto
            -22 17 -20 25 35 return
          </CharString>
          <CharString index="252">
            -17 -63 callsubr
            return
          </CharString>
          <CharString index="253">
            vvcurveto
            54 45 45 55 39 37 -18 -31 15 vhcurveto
            return
          </CharString>
          <CharString index="254">
            28 -29 17 vhcurveto
            23 19 11 27 25 vvcurveto
            39 return
          </CharString>
          <CharString index="255">
            86 hlineto
            106 51 -126 -109 hvcurveto
            endchar
          </CharString>
          <CharString index="256">
            81 callsubr
            -19 hvcurveto
            return
          </CharString>
          <CharString index="257">
            vlineto
            -23 1 -23 38 -2 vhcurveto
            return
          </CharString>
          <CharString index="258">
            103 93 68 callgsubr
            return
          </CharString>
          <CharString index="259">
            -134 21 callgsubr
            return
          </CharString>
          <CharString index="260">
            128 104 61 104 return
          </CharString>
          <CharString index="261">
            45 26 106 125 return
          </CharString>
          <CharString index="262">
            68 callsubr
            hvcurveto
            return
          </CharString>
          <CharString index="263">
            125 callgsubr
            hstemhm
            return
          </CharString>
          <CharString index="264">
            vvcurveto
            36 -29 1 return
          </CharString>
          <CharString index="265">
            75 461 117 callsubr
            return
          </CharString>
          <CharString index="266">
            103 hstem
            -397 104 61 104 vstem
            -293 return
          </CharString>
          <CharString index="267">
            67 callgsubr
            323 70 return
          </CharString>
          <CharString index="268">
            113 hstem
            -319 114 vstem
            -205 return
          </CharString>
          <CharString index="269">
            78 140 78 0 70 hstemhm
            221 70 return
          </CharString>
          <CharString index="270">
            66 callsubr
            hstemhm
            84 83 return
          </CharString>
          <CharString index="271">
            54 callsubr
            hstemhm
            36 83 return
          </CharString>
          <CharString index="272">
            166 -20 hstemhm
            return
          </CharString>
        <CharString name=".notdef">
          173 endchar
        </CharString>
        <CharString name="A">
          4 callsubr
          hstem
          -107 callsubr
          endchar
        </CharString>
        <CharString name="AE">
          -35 callgsubr
        </CharString>
        <CharString name="AE.dup">
          -35 callgsubr
        </CharString>
        <CharString name="AEacute">
          0 75 103 75 26 75 182 117 callsubr
          163 70 23 70 97 70 -62 70 hintmask 1011000101000000
          501 132 callgsubr
          -34 -1 -31 -17 vhcurveto
          -59 -105 204 105 vlineto
          17 29 149 callsubr
          -105 182 hlineto
          hintmask 1101001110000000
          97 -44 hlineto
          -17 1 -31 34 33 2 31 17 79 callsubr
          -274 hlineto
          -18 -28 -1 -36 -31 19 -6 18 -1 hvcurveto
          -94 -461 rlineto
          -27 -21 -4 -34 -52 callsubr
          69 -32 callsubr
          32 -20 5 -23 1 hvcurveto
          21 103 rlineto
          94 -103 hlineto
          -17 -1 -22 -5 -31 vvcurveto
          -37 29 -1 19 vhcurveto
          189 hlineto
          hintmask 0101001001000000
          23 callsubr
          -246 205 rmoveto
          -79 hlineto
          57 283 rlineto
          22 hlineto
          hintmask 0000110000000000
          119 241 -107 callgsubr
          13 4 15 13 vvcurveto
          endchar
        </CharString>
        <CharString name="Aacute">
          4 callsubr
          91 -21 146 -20 -99 callgsubr
          hintmask 00011000
          112 281 -107 callgsubr
          13 4 15 13 vvcurveto
          endchar
        </CharString>
        <CharString name="Abreve">
          4 callsubr
          70 78 48 -20 -99 callgsubr
          hintmask 00011000
          180 265 -96 callgsubr
        </CharString>
        <CharString name="Abreveacute">
          4 callsubr
          70 78 214 -20 -99 callgsubr
          hintmask 00011000
          180 265 -59 callgsubr
        </CharString>
        <CharString name="Abrevedotbelow">
          29 callsubr
          82 -10 callgsubr
          70 78 48 -20 134 callsubr
          hintmask 01111100
          -107 callsubr
          180 265 -104 callsubr
          hintmask 10000010
          -122 -899 -102 callgsubr
        </CharString>
        <CharString name="Abrevegrave">
          4 callsubr
          70 78 48 -20 -99 callgsubr
          hintmask 00011000
          180 265 -58 callgsubr
        </CharString>
        <CharString name="Abrevehookabove">
          4 callsubr
          70 162 callsubr
          -106 callgsubr
          hintmask 00010110
          180 265 -104 callsubr
          -75 192 -100 callgsubr
          -66 callsubr
          19 16 17 18 vhcurveto
          18 vlineto
          hintmask 00001000
          -68 callgsubr
        </CharString>
        <CharString name="Abrevetilde">
          4 callsubr
          70 78 10 78 -40 79 -39 79 -25 79 -99 callgsubr
          hintmask 00010100
          180 265 rmoveto
          23 -13 15 -25 -29 -5 -20 -14 -3 vhcurveto
          -14 -4 -62 0 -38 hhcurveto
          -39 -61 0 14 -4 hvcurveto
          14 -3 -5 20 -29 hhcurveto
          hintmask 00011001
          -24 -14 -15 -23 -84 111 -4 68 68 111 4 84 hvcurveto
          -1 172 -14 callgsubr
          hintmask 00000010
          -72 callsubr
          hintmask 00000101
          -92 callsubr
          hintmask 00001001
          -69 callgsubr
          -77 callsubr
          -95 callsubr
        </CharString>
        <CharString name="Acaron">
          4 callsubr
          174 -20 hstemhm
          -16 callsubr
          242 rmoveto
          -98 callsubr
        </CharString>
        <CharString name="Acircumflex">
          4 callsubr
          81 -21 hstemhm
          -16 callsubr
          206 -105 callsubr
          endchar
        </CharString>
        <CharString name="Acircumflexacute">
          4 callsubr
          81 -21 280 -20 -99 callgsubr
          hintmask 00011000
          150 206 -90 callgsubr
        </CharString>
        <CharString name="Acircumflexdotbelow">
          29 callsubr
          82 -10 callgsubr
          81 -21 134 callsubr
          hintmask 01111000
          -107 callsubr
          150 206 -105 callsubr
          hintmask 10000100
          -92 -840 -102 callgsubr
        </CharString>
        <CharString name="Acircumflexgrave">
          4 callsubr
          81 -21 hstemhm
          -16 callsubr
          206 -91 callsubr
        </CharString>
        <CharString name="Acircumflexhookabove">
          4 callsubr
          72 160 callsubr
          -16 callsubr
          206 -7 callsubr
          hintmask 00001110
          -76 callsubr
          57 229 -100 callgsubr
          -66 callsubr
          19 16 17 18 vhcurveto
          -56 callsubr
        </CharString>
        <CharString name="Acircumflextilde">
          4 callsubr
          81 -21 154 79 -25 79 -99 callgsubr
          hintmask 00010100
          150 206 -105 callsubr
          28 209 -14 callgsubr
          hintmask 00001000
          -72 callsubr
          hintmask 00000100
          -92 callsubr
          hintmask 00001000
          -69 callgsubr
          hintmask 00000100
          -77 callsubr
          hintmask 00001000
          -95 callsubr
        </CharString>
        <CharString name="Adblgrave">
          4 callsubr
          91 -21 152 -20 -99 callgsubr
          hintmask 00011000
          147 223 -103 callsubr
        </CharString>
        <CharString name="Adieresis">
          4 callsubr
          60 103 hstemhm
          113 104 91 104 -106 callgsubr
          hintmask 00011100
          -45 219 -89 callgsubr
          endchar
        </CharString>
        <CharString name="Adotbelow">
          29 callsubr
          82 -10 callgsubr
          134 callsubr
          hintmask 01110000
          -107 callsubr
          hintmask 10001000
          58 -634 -102 callgsubr
        </CharString>
        <CharString name="Agrave">
          4 callsubr
          91 -21 146 -20 -99 callgsubr
          hintmask 00011000
          111 223 -83 callsubr
        </CharString>
        <CharString name="Ahookabove">
          4 callsubr
          92 85 callsubr
          0 74 hintmask 1110000000000000
          -107 callsubr
          hintmask 0000110010000000
          104 332 -100 callgsubr
          hintmask 0001000100000000
          -66 callsubr
          vhcurveto
          hintmask 0000001010000000
          -69 callsubr
        </CharString>
        <CharString name="Alpha">
          4 callsubr
          hstem
          -107 callsubr
          endchar
        </CharString>
        <CharString name="Amacron">
          4 callsubr
          80 77 -99 callgsubr
          hintmask 00010000
          193 225 -90 callsubr
        </CharString>
        <CharString name="Aogonek">
          -198 68 130 -10 callgsubr
          hstemhm
          189 73 0 73 -56 73 55 73 hintmask 01111000
          499 37 rmoveto
          16 -7 12 -14 6 vhcurveto
          3 -6 -18 1 -15 hhcurveto
          -117 504 rlineto
          42 -10 -15 2 -35 hhcurveto
          -33 -17 -1 -42 -10 hvcurveto
          -117 -505 rlineto
          -14 -19 -1 -2 -6 hvcurveto
          -13 -7 -8 -12 -16 vvcurveto
          -35 30 -2 20 vhcurveto
          99 hlineto
          22 27 1 36 33 -18 4 -35 1 hvcurveto
          19 86 rlineto
          hintmask 01100100
          146 hlineto
          19 -86 rlineto
          -35 -1 -18 -4 -33 vvcurveto
          -24 12 -8 15 -3 vhcurveto
          hintmask 11101011
          -30 -25 -19 -33 -41 -18 callsubr
          38 hlineto
          20 30 2 35 hvcurveto
          -182 199 rmoveto
          -110 hlineto
          55 260 rlineto
          endchar
        </CharString>
        <CharString name="Aogonekacute">
          -198 68 130 -10 callgsubr
          91 68 callgsubr
          189 73 0 73 -56 73 55 73 hintmask 0111001000000000
          499 37 rmoveto
          16 -7 12 -14 6 vhcurveto
          3 -6 -18 1 -15 hhcurveto
          -117 504 rlineto
          42 -10 -15 2 -35 hhcurveto
          -33 -17 -1 -42 -10 hvcurveto
          -117 -505 rlineto
          -14 -19 -1 -2 -6 hvcurveto
          -13 -7 -8 -12 -16 vvcurveto
          -35 30 -2 20 vhcurveto
          99 hlineto
          22 27 1 36 33 -18 4 -35 1 hvcurveto
          19 86 rlineto
          hintmask 0110000100000000
          146 hlineto
          19 -86 rlineto
          -35 -1 -18 -4 -33 vvcurveto
          -24 12 -8 15 -3 vhcurveto
          hintmask 1110001011000000
          -30 -25 -19 -33 -41 -18 callsubr
          38 hlineto
          20 30 2 35 hvcurveto
          -182 199 rmoveto
          -110 hlineto
          55 260 rlineto
          hintmask 0000110000000000
          112 281 -107 callgsubr
          13 4 15 13 vvcurveto
          endchar
        </CharString>
        <CharString name="Aring">
          0 75 86 75 387 47 40 47 hstemhm
          176 56 62 56 hintmask 11100100
          -107 callsubr
          hintmask 00111100
          32 194 rmoveto
          -12 -16 -8 -15 -15 -16 8 12 13 16 7 15 15 16 -7 -13 -3 callsubr
        </CharString>
        <CharString name="Aringacute">
          0 75 86 75 387 47 40 47 165 callsubr
          176 56 62 56 hintmask 11100010
          -107 callsubr
          hintmask 00111110
          32 194 -55 callgsubr
        </CharString>
        <CharString name="Atilde">
          4 callsubr
          60 79 -25 79 -99 callgsubr
          hintmask 00001000
          179 261 -8 callsubr
        </CharString>
        <CharString name="B">
          -23 callgsubr
        </CharString>
        <CharString name="Beta">
          -23 callgsubr
        </CharString>
        <CharString name="C">
          27 callsubr
          hstem
          38 83 282 83 vstem
          -71 callgsubr
          endchar
        </CharString>
        <CharString name="Cacute">
          152 callgsubr
          146 -20 hstemhm
          38 83 282 83 hintmask 11001100
          -71 callgsubr
          hintmask 00110000
          -85 605 -107 callgsubr
          13 4 15 13 vvcurveto
          endchar
        </CharString>
        <CharString name="Ccaron">
          27 callsubr
          155 -20 hstemhm
          38 83 282 83 hintmask 11011000
          -71 callgsubr
          hintmask 00101000
          -47 566 rmoveto
          -98 callsubr
        </CharString>
        <CharString name="Ccedilla">
          -203 76 674 75 hstemhm
          38 83 240 83 -41 83 hintmask 00010000
          486 172 rmoveto
          39 -29 0 -13 vhcurveto
          hintmask 01101000
          -11 -27 0 -35 -3 hvcurveto
          -90 -6 -74 -22 -38 hhcurveto
          -85 -79 101 141 140 80 101 83 56 50 -43 -75 12 hvcurveto
          hintmask 00010000
          -20 4 3 -18 35 hhcurveto
          hintmask 01101000
          -1 callsubr
          19 -1 29 -36 -19 -9 -12 -9 -6 vhcurveto
          -2 -3 0 -2 -8 -17 rrcurveto
          25 -33 -44 18 -47 hhcurveto
          -130 -113 -134 -182 -176 104 -130 123 -10 hvcurveto
          -6 150 callsubr
          hintmask 10010000
          37 -2 20 -13 -16 vvcurveto
          -32 -91 0 -34 -43 -24 -3 -35 -28 20 -10 18 97 140 4 104 37 -24 43 -62 18 vhcurveto
          hintmask 00001000
          78 28 50 70 71 vvcurveto
          endchar
        </CharString>
        <CharString name="Ccircumflex">
          27 callsubr
          62 -21 hstemhm
          38 83 282 83 hintmask 11011000
          -71 callgsubr
          hintmask 00101000
          -47 530 -105 callsubr
          endchar
        </CharString>
        <CharString name="Cdotaccent">
          27 callsubr
          52 113 hstemhm
          38 83 112 114 56 83 hintmask 11010100
          -71 callgsubr
          hintmask 00101000
          -139 559 -102 callgsubr
        </CharString>
        <CharString name="Chi">
          -29 callgsubr
        </CharString>
        <CharString name="D">
          0 75 461 75 hstem
          79 83 243 82 vstem
          -50 callsubr
          endchar
        </CharString>
        <CharString name="Dcaron">
          88 callgsubr
          79 83 243 82 hintmask 11011000
          -50 callsubr
          hintmask 00100000
          -56 437 rmoveto
          -98 callsubr
        </CharString>
        <CharString name="Dcroat">
          -18 callgsubr
        </CharString>
        <CharString name="Ddotbelow">
          15 callsubr
          hstemhm
          79 83 -19 114 148 82 hintmask 01110100
          -50 callsubr
          hintmask 10001000
          -148 -439 -102 callgsubr
        </CharString>
        <CharString name="Delta">
          0 81 542 -20 hstem
          492 29 rmoveto
          0 0 5 -5 15 vhcurveto
          -164 533 rlineto
          37 -11 -13 4 -37 hhcurveto
          -26 -24 -1 -37 -11 hvcurveto
          -164 -536 rlineto
          -5 -16 0 -4 0 vvcurveto
          -27 23 -2 19 vhcurveto
          376 hlineto
          19 23 2 27 hvcurveto
          -101 52 rmoveto
          -258 hlineto
          129 425 rlineto
          endchar
        </CharString>
        <CharString name="Dlinebelow">
          162 callgsubr
          79 83 243 82 hintmask 01111000
          -50 callsubr
          hintmask 10000000
          -13 -451 -90 callsubr
        </CharString>
        <CharString name="E">
          16 callgsubr
          13 callgsubr
          hintmask 11111010
          -102 callsubr
          hintmask 10110100
          -99 callsubr
          hintmask 00000010
          23 callsubr
          endchar
        </CharString>
        <CharString name="Eacute">
          16 callgsubr
          83 46 callsubr
          13 callgsubr
          hintmask 1110011010000000
          -102 callsubr
          hintmask 1010010100000000
          -99 callsubr
          hintmask 0000000010000000
          23 callsubr
          hintmask 0001100000000000
          -130 729 -107 callgsubr
          13 4 15 13 vvcurveto
          endchar
        </CharString>
        <CharString name="Ebreve">
          16 callgsubr
          62 78 48 -20 13 callgsubr
          hintmask 1110011010000000
          -102 callsubr
          hintmask 1010010100000000
          -99 callsubr
          hintmask 0000000010000000
          23 callsubr
          hintmask 0001100000000000
          -62 713 -96 callgsubr
        </CharString>
        <CharString name="Ecaron">
          16 callgsubr
          166 -20 13 callgsubr
          hintmask 11101101
          -102 callsubr
          hintmask 10101010
          -99 callsubr
          hintmask 00000001
          23 callsubr
          hintmask 00010000
          -92 690 rmoveto
          -98 callsubr
        </CharString>
        <CharString name="Ecircumflex">
          111 callgsubr
          13 callgsubr
          hintmask 11101101
          -102 callsubr
          hintmask 10101010
          -99 callsubr
          hintmask 00000001
          23 callsubr
          hintmask 00010000
          -92 654 -105 callsubr
          endchar
        </CharString>
        <CharString name="Ecircumflexacute">
          111 callgsubr
          280 -20 13 callgsubr
          hintmask 1110011010000000
          -102 callsubr
          hintmask 1010010100000000
          -99 callsubr
          hintmask 0000000010000000
          23 callsubr
          hintmask 0001100000000000
          -92 654 -90 callgsubr
        </CharString>
        <CharString name="Ecircumflexdotbelow">
          29 callsubr
          82 4 callgsubr
          73 -21 85 callgsubr
          hintmask 0111010101000000
          -102 callsubr
          hintmask 0101010010000000
          -99 callsubr
          hintmask 0000100001000000
          23 callsubr
          -92 654 -105 callsubr
          hintmask 1000001000000000
          -92 -840 -102 callgsubr
        </CharString>
        <CharString name="Ecircumflexgrave">
          111 callgsubr
          13 callgsubr
          hintmask 11101101
          -102 callsubr
          hintmask 10101010
          -99 callsubr
          hintmask 00000001
          23 callsubr
          hintmask 00010000
          -92 654 -91 callsubr
        </CharString>
        <CharString name="Ecircumflexhookabove">
          16 callgsubr
          64 67 callgsubr
          93 83 112 83 -48 70 6 83 -61 83 hintmask 1110001100100000
          -102 callsubr
          hintmask 1010001001000000
          -99 callsubr
          hintmask 0000000000100000
          23 callsubr
          hintmask 0001000000000000
          -92 654 rmoveto
          20 -24 11 -32 12 vhcurveto
          -78 28 -13 5 -6 0 -13 -5 rlinecurve
          -78 -28 rlineto
          -33 -12 -23 -11 -20 vvcurveto
          hintmask 0000100000000000
          28 callgsubr
          vhcurveto
          hintmask 0001000000000000
          9 19 6 6 20 hvcurveto
          66 20 66 -20 rlineto
          hintmask 0000110010000000
          -76 callsubr
          57 229 -100 callgsubr
          -66 callsubr
          19 16 17 18 vhcurveto
          -56 callsubr
        </CharString>
        <CharString name="Ecircumflextilde">
          111 callgsubr
          154 79 -25 79 13 callgsubr
          hintmask 1110001101000000
          -102 callsubr
          hintmask 1010001010000000
          -99 callsubr
          hintmask 0000000001000000
          23 callsubr
          hintmask 0001010000000000
          -92 654 -105 callsubr
          28 209 -14 callgsubr
          hintmask 0000100000000000
          -72 callsubr
          hintmask 0000010000000000
          -92 callsubr
          hintmask 0000100000000000
          -69 callgsubr
          hintmask 0000010000000000
          -77 callsubr
          hintmask 0000100000000000
          -95 callsubr
        </CharString>
        <CharString name="Edblgrave">
          16 callgsubr
          83 -21 152 -20 13 callgsubr
          hintmask 1110011010000000
          -102 callsubr
          hintmask 1010010100000000
          -99 callsubr
          hintmask 0000000010000000
          23 callsubr
          hintmask 0001100000000000
          -66 671 -103 callsubr
        </CharString>
        <CharString name="Edieresis">
          16 callgsubr
          52 103 hstemhm
          93 83 -63 104 71 83 -63 104 -13 83 -61 83 hintmask 1110101001000000
          -102 callsubr
          hintmask 1010100010000000
          -99 callsubr
          hintmask 0000000001000000
          23 callsubr
          hintmask 0001010100000000
          -287 667 -89 callgsubr
          endchar
        </CharString>
        <CharString name="Edotaccent">
          16 callgsubr
          63 113 85 callgsubr
          hintmask 1110101010000000
          -102 callsubr
          hintmask 1010100100000000
          -99 callsubr
          hintmask 0000000010000000
          23 callsubr
          hintmask 0001010000000000
          -184 683 -102 callgsubr
        </CharString>
        <CharString name="Edotbelow">
          29 callsubr
          82 4 callgsubr
          85 callgsubr
          hintmask 0111101010000000
          -102 callsubr
          hintmask 0101100100000000
          -99 callsubr
          hintmask 0000000010000000
          23 callsubr
          hintmask 1000010000000000
          -184 -186 -102 callgsubr
        </CharString>
        <CharString name="Egrave">
          16 callgsubr
          83 46 callsubr
          13 callgsubr
          hintmask 1110011010000000
          -102 callsubr
          hintmask 1010010100000000
          -99 callsubr
          hintmask 0000000010000000
          23 callsubr
          hintmask 0001100000000000
          -131 671 -83 callsubr
        </CharString>
        <CharString name="Ehookabove">
          16 callgsubr
          84 49 callsubr
          93 83 -17 72 -11 70 -70 72 -4 83 -79 74 33 83 -61 83 hintmask 1110010001001000
          -102 callsubr
          hintmask 1010010000010000
          -99 callsubr
          hintmask 0000000000001000
          23 callsubr
          hintmask 0000101000100000
          -138 780 -100 callgsubr
          hintmask 0001000010000000
          -66 callsubr
          vhcurveto
          hintmask 0000000100100000
          -69 callsubr
        </CharString>
        <CharString name="Emacron">
          16 callgsubr
          72 77 13 callgsubr
          hintmask 11101101
          -102 callsubr
          hintmask 10101010
          -99 callsubr
          hintmask 00000001
          23 callsubr
          hintmask 00010000
          -49 673 -90 callsubr
        </CharString>
        <CharString name="Eng">
          -11 102 -91 75 -75 84 452 75 -73 84 hstemhm
          10 154 callgsubr
          cntrmask 00000111
          hintmask 00001111
          492 306 rmoveto
          157 -66 159 -138 -43 -38 -15 -26 -32 vhcurveto
          hintmask 01010111
          22 -3 -11 8 -32 hhcurveto
          137 callsubr
          -461 72 callgsubr
          349 hlineto
          hintmask 00101111
          62 7 45 52 60 hhcurveto
          96 24 -121 -111 -86 0 -104 -35 -32 hvcurveto
          hintmask 10000111
          4 -7 -9 3 -10 hhcurveto
          -27 -23 -23 -28 -28 23 -23 27 129 16 166 151 hvcurveto
          endchar
        </CharString>
        <CharString name="Eogonek">
          -198 68 130 4 callgsubr
          115 callsubr
          hintmask 0111101000100000
          -102 callsubr
          hintmask 0001000100000000
          223 -44 hlineto
          -12 callgsubr
          vhcurveto
          hintmask 0101100010000000
          42 0 25 23 hvcurveto
          71 122 callgsubr
          -364 67 callsubr
          30 -1 18 hvcurveto
          21 -461 -44 callgsubr
          hintmask 0100000100000000
          254 hlineto
          hintmask 1100010001000000
          -29 -25 -18 -32 -40 -18 callsubr
          46 hlineto
          hintmask 0000000000100000
          23 callsubr
          endchar
        </CharString>
        <CharString name="Eogonekacute">
          -198 68 130 75 204 75 182 75 83 -21 146 -20 115 callsubr
          hintmask 0111001010001000
          -102 callsubr
          hintmask 0001000001000000
          223 -44 hlineto
          -12 callgsubr
          vhcurveto
          hintmask 0101001000100000
          42 0 25 23 hvcurveto
          71 122 callgsubr
          -364 67 callsubr
          30 -1 18 hvcurveto
          21 -461 -44 callgsubr
          hintmask 0100000001000000
          254 hlineto
          hintmask 1100000100010000
          -29 -25 -18 -32 -40 -18 callsubr
          46 hlineto
          hintmask 0000000000001000
          23 callsubr
          hintmask 0000110000000000
          -130 729 -107 callgsubr
          13 4 15 13 vvcurveto
          endchar
        </CharString>
        <CharString name="Epsilon">
          16 callgsubr
          13 callgsubr
          hintmask 11111010
          -102 callsubr
          hintmask 10110100
          -99 callsubr
          hintmask 00000010
          23 callsubr
          endchar
        </CharString>
        <CharString name="Ereversed">
          16 callgsubr
          hstemhm
          24 83 -61 83 28 83 112 83 hintmask 11101110
          504 37 rmoveto
          50 callgsubr
          vhcurveto
          -21 461 21 hlineto
          18 30 1 37 83 callsubr
          hvcurveto
          -364 hlineto
          -39 -7 -12 -36 hvcurveto
          -71 vlineto
          -23 0 -25 42 40 1 26 22 vhcurveto
          44 223 -182 -112 vlineto
          40 -1 -4 15 -37 hhcurveto
          -40 -1 -25 -22 hvcurveto
          -91 149 callgsubr
          15 41 1 vhcurveto
          112 -204 hlineto
          hintmask 10010000
          -245 59 hlineto
          24 -1 24 -41 -40 -1 -25 -23 vhcurveto
          -86 vlineto
          -38 9 -10 38 vhcurveto
          385 95 callsubr
        </CharString>
        <CharString name="Eta">
          104 callgsubr
          hstem
          134 callgsubr
          vstem
          -92 callgsubr
          endchar
        </CharString>
        <CharString name="Eth">
          -18 callgsubr
        </CharString>
        <CharString name="Etilde">
          16 callgsubr
          52 79 -25 79 13 callgsubr
          hintmask 1110011010000000
          -102 callsubr
          hintmask 1010010100000000
          -99 callsubr
          hintmask 0000000010000000
          23 callsubr
          hintmask 0000100000000000
          -63 709 -14 callgsubr
          hintmask 0001000000000000
          -72 callsubr
          hintmask 0000100000000000
          -92 callsubr
          hintmask 0001000000000000
          -69 callgsubr
          hintmask 0000100000000000
          -77 callsubr
          hintmask 0001000000000000
          -95 callsubr
        </CharString>
        <CharString name="Euro">
          -11 76 141 76 48 76 140 76 hstem
          112 84 190 84 vstem
          470 25 rmoveto
          93 vlineto
          20 -17 16 -19 vhcurveto
          -12 hlineto
          -19 -15 -14 -17 -2 hvcurveto
          -33 -4 -29 -25 -33 hhcurveto
          -38 -25 31 33 -19 hvcurveto
          -14 23 -10 27 -6 27 rrcurveto
          129 hlineto
          15 11 9 13 3 hvcurveto
          4 16 rlineto
          19 5 -14 19 -20 hhcurveto
          -145 24 hlineto
          24 171 vlineto
          15 12 10 13 2 hvcurveto
          4 15 rlineto
          20 5 -14 18 -20 hhcurveto
          -163 hlineto
          6 27 10 26 14 24 rrcurveto
          32 19 25 31 38 hhcurveto
          33 29 -25 -33 4 hvcurveto
          -17 2 15 -14 19 hhcurveto
          12 hlineto
          19 17 16 20 hvcurveto
          93 vlineto
          20 -17 16 -19 vhcurveto
          -4 hlineto
          -12 -10 -5 -8 -6 hvcurveto
          -6 -7 rlineto
          13 -24 -28 7 -29 hhcurveto
          -63 -53 -45 -55 -33 hvcurveto
          -22 -36 -14 -39 -8 -41 rrcurveto
          -29 hlineto
          -14 -12 -10 -13 -3 hvcurveto
          -3 -16 rlineto
          -18 -6 15 -19 20 hhcurveto
          22 -24 hlineto
          -24 -19 vlineto
          -14 -12 -11 -13 -3 hvcurveto
          -3 -15 rlineto
          -19 -6 15 -18 20 hhcurveto
          32 hlineto
          8 -42 14 -38 22 -37 rrcurveto
          -55 33 53 -45 63 hhcurveto
          29 28 7 13 25 hvcurveto
          5 -6 rlineto
          -9 6 10 -5 12 hhcurveto
          4 hlineto
          19 17 16 20 hvcurveto
          endchar
        </CharString>
        <CharString name="F">
          0 75 193 136 callsubr
          hstem
          98 83 117 83 28 83 cntrmask 11100000
          492 492 rmoveto
          34 callsubr
          -371 -78 callsubr
          24 -461 -24 -78 callsubr
          150 2 callgsubr
          193 117 hlineto
          -41 4 -15 38 40 1 26 22 vhcurveto
          91 vlineto
          22 -1 26 -40 -38 -4 -15 -41 vhcurveto
          -117 193 228 -44 hlineto
          -12 callgsubr
          41 1 25 23 vhcurveto
          endchar
        </CharString>
        <CharString name="G">
          -11 75 140 75 268 75 53 callsubr
          hintmask 11111000
          -60 callsubr
          hintmask 00000100
          -25 callgsubr
          hintmask 10111010
          -61 callsubr
          hintmask 01000100
          41 callsubr
          hintmask 00000010
          124 callsubr
          endchar
        </CharString>
        <CharString name="Gacute">
          -11 54 callsubr
          72 -21 146 145 callgsubr
          hintmask 1110011000000000
          -60 callsubr
          hintmask 0000000100000000
          -25 callgsubr
          hintmask 1010011010000000
          -61 callsubr
          hintmask 0100000100000000
          41 callsubr
          hintmask 0000000010000000
          124 callsubr
          hintmask 0001100000000000
          -124 535 -107 callgsubr
          13 4 15 13 vvcurveto
          endchar
        </CharString>
        <CharString name="Gamma">
          16 callsubr
          105 83 219 83 vstem
          490 492 rmoveto
          34 callsubr
          -366 -4 callgsubr
          -461 -28 -63 callsubr
          158 hlineto
          16 31 82 callsubr
          -17 hvcurveto
          -47 461 219 -44 hlineto
          -12 callgsubr
          41 1 25 23 vhcurveto
          endchar
        </CharString>
        <CharString name="Gbreve">
          -11 54 callsubr
          51 78 48 145 callgsubr
          hintmask 1110011000000000
          -60 callsubr
          hintmask 0000000100000000
          -25 callgsubr
          hintmask 1010011010000000
          -61 callsubr
          hintmask 0100000100000000
          41 callsubr
          hintmask 0000000010000000
          124 callsubr
          hintmask 0001100000000000
          -56 519 -96 callgsubr
        </CharString>
        <CharString name="Gcaron">
          -11 54 callsubr
          155 145 callgsubr
          hintmask 11101100
          -60 callsubr
          hintmask 00000010
          -25 callgsubr
          hintmask 10101101
          -61 callsubr
          hintmask 01000010
          41 callsubr
          hintmask 00000001
          124 callsubr
          hintmask 00010000
          -86 496 rmoveto
          -98 callsubr
        </CharString>
        <CharString name="Gcedilla">
          31 callsubr
          6 164 callsubr
          89 123 -44 83 -1 83 -37 83 hintmask 0011110100000000
          -60 callsubr
          hintmask 0000000010000000
          -25 callgsubr
          hintmask 0010110101000000
          -61 callsubr
          hintmask 0001000010000000
          41 callsubr
          hintmask 1100001001000000
          124 callsubr
          -167 -339 -95 callgsubr
        </CharString>
        <CharString name="Gcircumflex">
          -11 54 callsubr
          62 -21 53 callsubr
          hintmask 11101100
          -60 callsubr
          hintmask 00000010
          -25 callgsubr
          hintmask 10101101
          -61 callsubr
          hintmask 01000010
          41 callsubr
          hintmask 00000001
          124 callsubr
          hintmask 00010000
          -86 460 -105 callsubr
          endchar
        </CharString>
        <CharString name="Gcommaaccent">
          31 callsubr
          6 164 callsubr
          89 123 -44 83 -1 83 -37 83 hintmask 0011110100000000
          -60 callsubr
          hintmask 0000000010000000
          -25 callgsubr
          hintmask 0010110101000000
          -61 callsubr
          hintmask 0001000010000000
          41 callsubr
          hintmask 0000000001000000
          124 callsubr
          hintmask 1100001000000000
          -167 -339 -95 callgsubr
        </CharString>
        <CharString name="Gdotaccent">
          -11 54 callsubr
          52 113 hstemhm
          36 83 87 114 -33 83 -1 83 -37 83 hintmask 1110101000000000
          -60 callsubr
          hintmask 0000000100000000
          -25 callgsubr
          hintmask 1010101010000000
          -61 callsubr
          hintmask 0100000100000000
          41 callsubr
          hintmask 0000000010000000
          124 callsubr
          hintmask 0001010000000000
          -178 489 -102 callgsubr
        </CharString>
        <CharString name="H">
          104 callgsubr
          hstem
          134 callgsubr
          vstem
          -92 callgsubr
          endchar
        </CharString>
        <CharString name="H_uni0303">
          104 callgsubr
          52 76 callgsubr
          134 callgsubr
          hintmask 11100110
          -92 callgsubr
          hintmask 00001000
          -63 720 -8 callsubr
        </CharString>
        <CharString name="Hbar">
          0 75 205 75 61 76 44 75 hstem
          134 callgsubr
          vstem
          20 callgsubr
          341 22 hlineto
          87 callsubr
          -22 44 17 -5 callsubr
          98 callsubr
          28 -1 19 hvcurveto
          16 -44 -190 44 16 -5 callsubr
          -19 -28 -1 -37 -36 29 -1 18 hvcurveto
          17 -44 -22 74 callsubr
          22 -341 -17 hlineto
          -19 -28 -1 -37 -36 29 -17 callsubr
          205 190 -205 -26 callgsubr
          -147 318 rmoveto
          -190 61 190 hlineto
          endchar
        </CharString>
        <CharString name="Hbrevebelow">
          -213 78 48 -20 107 163 callsubr
          190 83 hintmask 00111110
          -92 callgsubr
          hintmask 11000100
          -62 -162 -96 callgsubr
        </CharString>
        <CharString name="Hcircumflex">
          104 callgsubr
          73 -21 hstemhm
          134 callgsubr
          hintmask 11101100
          -92 callgsubr
          hintmask 00010000
          -92 665 -105 callsubr
          endchar
        </CharString>
        <CharString name="Hdieresis">
          104 callgsubr
          52 103 hstemhm
          84 83 -54 104 91 104 -55 83 hintmask 11101001
          -92 callgsubr
          hintmask 00010110
          -287 678 -89 callgsubr
          endchar
        </CharString>
        <CharString name="Hdotbelow">
          29 callsubr
          82 163 callsubr
          39 114 37 83 hintmask 01111010
          -92 callgsubr
          hintmask 10000100
          -184 -175 -102 callgsubr
        </CharString>
        <CharString name="I">
          110 callsubr
          -98 callgsubr
          endchar
        </CharString>
        <CharString name="Iacute">
          0 75 461 75 83 -21 146 -20 -55 callsubr
          hintmask 00110000
          -75 740 -107 callgsubr
          13 4 15 13 vvcurveto
          endchar
        </CharString>
        <CharString name="Ibreve">
          -21 callsubr
          62 78 48 -20 -55 callsubr
          hintmask 00110000
          -7 724 -96 callgsubr
        </CharString>
        <CharString name="Icaron">
          88 callgsubr
          221 83 hintmask 11010000
          -98 callgsubr
          hintmask 00100000
          -37 701 rmoveto
          -98 callsubr
        </CharString>
        <CharString name="Icircumflex">
          -21 callsubr
          73 -21 hstemhm
          221 83 hintmask 11010000
          -98 callgsubr
          hintmask 00100000
          -37 665 -105 callsubr
          endchar
        </CharString>
        <CharString name="Idblgrave">
          -21 callsubr
          83 -21 152 -20 -55 callsubr
          hintmask 00110000
          -11 682 -103 callsubr
        </CharString>
        <CharString name="Idieresis">
          130 callsubr
          113 104 4 83 4 104 hintmask 11001000
          -98 callgsubr
          hintmask 00110100
          -232 678 -89 callgsubr
          endchar
        </CharString>
        <CharString name="Idieresisacute">
          0 75 461 75 52 110 callgsubr
          4 83 4 104 hintmask 11000010
          -98 callgsubr
          hintmask 00111101
          -232 678 -89 callgsubr
          -38 216 -107 callgsubr
          13 4 15 13 vvcurveto
          endchar
        </CharString>
        <CharString name="Idotaccent">
          -21 callsubr
          63 113 134 callsubr
          -99 -53 callsubr
          hintmask 00110000
          -129 694 -102 callgsubr
        </CharString>
        <CharString name="Idotbelow">
          15 callsubr
          134 callsubr
          -99 83 hintmask 01101000
          -98 callgsubr
          hintmask 10010000
          -129 -175 -102 callgsubr
        </CharString>
        <CharString name="Igrave">
          0 75 461 75 83 -21 146 -20 -55 callsubr
          hintmask 00110000
          -76 682 -83 callsubr
        </CharString>
        <CharString name="Ihookabove">
          71 callgsubr
          -98 callgsubr
          hintmask 0001100010000000
          -83 791 -100 callgsubr
          hintmask 0010001000000000
          -66 callsubr
          vhcurveto
          hintmask 0000010010000000
          -69 callsubr
        </CharString>
        <CharString name="Imacron">
          -21 callsubr
          72 77 hstemhm
          221 83 hintmask 11010000
          -98 callgsubr
          hintmask 00100000
          6 684 -90 callsubr
        </CharString>
        <CharString name="Imacron.alt">
          -21 callsubr
          72 77 hstemhm
          221 83 hintmask 11010000
          -98 callgsubr
          hintmask 00100000
          -82 684 1 callgsubr
        </CharString>
        <CharString name="Iogonek">
          -198 68 130 -29 callsubr
          hstemhm
          167 74 -20 83 71 74 hintmask 01101100
          449 -19 callsubr
          -97 461 97 -60 callgsubr
          -277 67 callsubr
          30 -1 18 hvcurveto
          97 -461 -97 67 callsubr
          30 -1 18 hvcurveto
          93 hlineto
          hintmask 11010100
          24 callsubr
          endchar
        </CharString>
        <CharString name="Iogonekacute">
          -198 68 130 158 callsubr
          167 74 -20 83 71 74 hintmask 01100011
          449 -19 callsubr
          -97 461 97 -60 callgsubr
          -277 67 callsubr
          30 -1 18 hvcurveto
          97 -461 -97 67 callsubr
          30 -1 18 hvcurveto
          93 hlineto
          hintmask 11000101
          24 callsubr
          hintmask 00011000
          -75 740 -107 callgsubr
          13 4 15 13 vvcurveto
          endchar
        </CharString>
        <CharString name="Iota">
          110 callsubr
          -98 callgsubr
          endchar
        </CharString>
        <CharString name="Itilde">
          120 callgsubr
          79 -25 79 -55 callsubr
          hintmask 00010000
          -8 720 rmoveto
          20 -18 19 -20 -13 -7 -5 -8 -101 callsubr
        </CharString>
        <CharString name="J">
          -11 75 19 75 378 75 hstem
          68 103 158 82 vstem
          -48 callgsubr
          endchar
        </CharString>
        <CharString name="J_uni030C.cap">
          -11 75 19 75 266 -21 101 107 -75 75 hstemhm
          68 103 158 82 123 123 hintmask 11001111
          -48 callgsubr
          176 -43 160 callgsubr
          hintmask 00110001
          -33 26 -22 28 vhcurveto
          3 hlineto
          -12 -31 -26 -9 -7 -2 rrcurveto
          -9 -3 -17 -6 -19 vvcurveto
          -14 15 -17 16 25 81 42 86 vhcurveto
          endchar
        </CharString>
        <CharString name="Jacute">
          -11 75 19 75 378 117 callsubr
          68 103 158 82 hintmask 11100110
          -48 callgsubr
          hintmask 00011000
          -22 203 -107 callgsubr
          13 4 15 13 vvcurveto
          endchar
        </CharString>
        <CharString name="Jcircumflex">
          -11 75 19 75 378 75 73 -21 hstemhm
          68 103 158 82 hintmask 11101100
          -48 callgsubr
          hintmask 00010000
          16 128 -105 callsubr
          endchar
        </CharString>
        <CharString name="K">
          16 callsubr
          86 70 150 70 vstem
          -71 callsubr
          endchar
        </CharString>
        <CharString name="Kappa">
          16 callsubr
          86 70 150 70 vstem
          -71 callsubr
          endchar
        </CharString>
        <CharString name="Kcedilla">
          20 callsubr
          hstemhm
          86 70 52 123 -25 70 hintmask 01111010
          -71 callsubr
          -166 131 callgsubr
          hintmask 11000100
          -37 callgsubr
        </CharString>
        <CharString name="Kcommaaccent">
          20 callsubr
          hstemhm
          86 70 52 123 -25 70 hintmask 00111010
          -71 callsubr
          hintmask 11000100
          -166 -134 -95 callgsubr
        </CharString>
        <CharString name="L">
          16 callsubr
          105 83 219 83 vstem
          -82 callsubr
          endchar
        </CharString>
        <CharString name="L_uni0303">
          120 callgsubr
          76 callgsubr
          105 83 219 83 hintmask 11001100
          -82 callsubr
          hintmask 00010000
          -168 709 rmoveto
          20 -18 19 -20 -13 -7 -5 -8 -101 callsubr
        </CharString>
        <CharString name="Lacute">
          0 158 callsubr
          105 83 219 83 hintmask 11001100
          -82 callsubr
          hintmask 00110000
          -235 729 -107 callgsubr
          13 4 15 13 vvcurveto
          endchar
        </CharString>
        <CharString name="Lambda">
          0 75 548 -20 hstem
          497 37 rmoveto
          33 -20 5 -37 vhcurveto
          -117 506 rlineto
          41 -10 -22 1 -24 hhcurveto
          -10 hlineto
          -23 -23 -1 -38 -9 hvcurveto
          -118 -509 rlineto
          -37 -20 -5 -33 -36 107 callgsubr
          105 hlineto
          18 -38 callgsubr
          -11 hlineto
          93 414 93 -414 rlineto
          -11 67 callsubr
          29 -1 19 hvcurveto
          105 95 callsubr
        </CharString>
        <CharString name="Lcaron">
          0 75 349 -21 101 107 -75 75 hstemhm
          105 83 166 123 -70 83 hintmask 10011010
          -82 callsubr
          -13 483 21 callgsubr
          vhcurveto
          hintmask 01100100
          -37 callgsubr
        </CharString>
        <CharString name="Lcedilla">
          20 callsubr
          hstem
          105 83 20 123 76 83 vstem
          -82 callsubr
          -159 -145 -95 callgsubr
        </CharString>
        <CharString name="Lcommaaccent">
          20 callsubr
          hstemhm
          105 83 20 123 76 83 hintmask 00111010
          -82 callsubr
          hintmask 11000100
          -159 -145 -95 callgsubr
        </CharString>
        <CharString name="Ldot">
          0 75 185 113 163 75 hstemhm
          105 83 164 114 -59 83 hintmask 11110100
          -82 callsubr
          -24 269 140 callsubr
          hintmask 01001000
          -74 callgsubr
          32 25 25 32 hvcurveto
          endchar
        </CharString>
        <CharString name="Ldotbelow">
          15 callsubr
          hstemhm
          105 83 18 114 87 83 hintmask 01110100
          -82 callsubr
          hintmask 10001000
          -170 -186 -102 callgsubr
        </CharString>
        <CharString name="Ldotbelowmacron">
          15 callsubr
          72 77 hstemhm
          105 83 18 114 87 83 hintmask 11101110
          -82 callsubr
          -170 -186 rmoveto
          -101 callgsubr
          hintmask 00010000
          29 859 -90 callsubr
        </CharString>
        <CharString name="Lslash">
          16 callsubr
          105 83 219 83 vstem
          490 111 callsubr
          24 -1 24 -40 -41 -1 -23 -25 vhcurveto
          -59 -219 230 vlineto
          193 130 129 callsubr
          -152 -104 rcurveline
          143 47 vlineto
          16 31 82 callsubr
          -17 hvcurveto
          -158 -4 callgsubr
          -200 hlineto
          -63 -43 -16 -11 -5 -24 11 -16 rlinecurve
          11 -16 23 -5 17 12 22 15 rcurveline
          -173 -28 vlineto
          -22 callgsubr
          endchar
        </CharString>
        <CharString name="M">
          16 callsubr
          67 71 249 70 vstem
          -53 callgsubr
          endchar
        </CharString>
        <CharString name="Mdotbelow">
          15 callsubr
          hstemhm
          67 71 68 114 67 70 hintmask 01110100
          -53 callgsubr
          hintmask 10001000
          -189 -175 -102 callgsubr
        </CharString>
        <CharString name="Mu">
          16 callsubr
          67 71 249 70 vstem
          -53 callgsubr
          endchar
        </CharString>
        <CharString name="N">
          16 callsubr
          135 callgsubr
          vstem
          -97 callsubr
          endchar
        </CharString>
        <CharString name="Nacute">
          0 158 callsubr
          135 callgsubr
          hintmask 11001100
          -97 callsubr
          hintmask 00110000
          -124 204 -107 callgsubr
          13 4 15 13 vvcurveto
          endchar
        </CharString>
        <CharString name="Ncaron">
          88 callgsubr
          135 callgsubr
          hintmask 11011000
          -97 callsubr
          hintmask 00100000
          -86 165 rmoveto
          -98 callsubr
        </CharString>
        <CharString name="Ncedilla">
          20 callsubr
          hstem
          90 70 48 123 33 70 vstem
          -97 callsubr
          -167 -670 -95 callgsubr
        </CharString>
        <CharString name="Ncommaaccent">
          20 callsubr
          hstemhm
          90 70 48 123 33 70 hintmask 00111010
          -97 callsubr
          hintmask 11000100
          -167 -670 -95 callgsubr
        </CharString>
        <CharString name="Ndotaccent">
          120 callgsubr
          113 hstemhm
          90 70 46 114 44 70 hintmask 11010100
          -97 callsubr
          hintmask 00101000
          -178 147 -102 callgsubr
        </CharString>
        <CharString name="Ndotbelow">
          15 callsubr
          hstemhm
          90 70 46 114 44 70 hintmask 01110100
          -97 callsubr
          hintmask 10001000
          -178 -711 -102 callgsubr
        </CharString>
        <CharString name="Ntilde">
          120 callgsubr
          76 callgsubr
          135 callgsubr
          hintmask 11001100
          -97 callsubr
          hintmask 00010000
          -57 184 rmoveto
          20 -18 19 -20 -13 -7 -5 -8 -101 callsubr
        </CharString>
        <CharString name="Nu">
          16 callsubr
          135 callgsubr
          vstem
          -97 callsubr
          endchar
        </CharString>
        <CharString name="O">
          27 callsubr
          hstem
          60 callsubr
          vstem
          -105 callgsubr
          endchar
        </CharString>
        <CharString name="OE">
          -46 callsubr
        </CharString>
        <CharString name="OE.dup">
          -46 callsubr
        </CharString>
        <CharString name="Oacute">
          152 callgsubr
          146 -20 89 callsubr
          hintmask 11001100
          -105 callgsubr
          hintmask 00110000
          -14 463 -107 callgsubr
          13 4 15 13 vvcurveto
          endchar
        </CharString>
        <CharString name="Obreve">
          27 callsubr
          51 78 48 -20 89 callsubr
          hintmask 11001100
          -105 callgsubr
          hintmask 00110000
          54 447 -96 callgsubr
        </CharString>
        <CharString name="Ocaron">
          27 callsubr
          155 -20 89 callsubr
          hintmask 11011000
          -105 callgsubr
          hintmask 00100000
          24 424 rmoveto
          -98 callsubr
        </CharString>
        <CharString name="Ocircumflex">
          27 callsubr
          62 -21 89 callsubr
          hintmask 11011000
          -105 callgsubr
          hintmask 00100000
          24 388 -105 callsubr
          endchar
        </CharString>
        <CharString name="Ocircumflexacute">
          27 callsubr
          62 -21 280 -20 89 callsubr
          hintmask 11001100
          -105 callgsubr
          hintmask 00110000
          24 388 -90 callgsubr
        </CharString>
        <CharString name="Ocircumflexdotbelow">
          29 callsubr
          71 40 callsubr
          62 -21 hstemhm
          53 83 70 114 68 83 hintmask 01111010
          -105 callgsubr
          24 388 -105 callsubr
          hintmask 10000100
          -92 -840 -102 callgsubr
        </CharString>
        <CharString name="Ocircumflexgrave">
          27 callsubr
          62 -21 89 callsubr
          hintmask 11011000
          -105 callgsubr
          hintmask 00100000
          24 388 -91 callsubr
        </CharString>
        <CharString name="Ocircumflexhookabove">
          27 callsubr
          53 67 callgsubr
          53 83 187 70 -5 83 hintmask 11000101
          -105 callgsubr
          hintmask 00100000
          24 388 rmoveto
          20 -24 11 -32 12 vhcurveto
          -78 28 -13 5 -6 0 -13 -5 rlinecurve
          -78 -28 rlineto
          -33 -12 -23 -11 -20 vvcurveto
          hintmask 00010000
          28 callgsubr
          vhcurveto
          hintmask 00100000
          9 19 6 6 20 hvcurveto
          66 20 66 -20 rlineto
          hintmask 00011010
          -76 callsubr
          57 229 -100 callgsubr
          -66 callsubr
          19 16 17 18 vhcurveto
          -56 callsubr
        </CharString>
        <CharString name="Ocircumflextilde">
          27 callsubr
          62 118 callsubr
          53 83 252 83 hintmask 11000110
          -105 callgsubr
          hintmask 00101000
          24 388 -33 callsubr
        </CharString>
        <CharString name="Odblgrave">
          152 callgsubr
          152 -20 89 callsubr
          hintmask 11001100
          -105 callgsubr
          hintmask 00110000
          50 405 -103 callsubr
        </CharString>
        <CharString name="Odieresis">
          27 callsubr
          41 103 hstemhm
          53 83 -23 104 91 104 -24 83 hintmask 11010010
          -105 callgsubr
          hintmask 00101100
          -171 401 -89 callgsubr
          endchar
        </CharString>
        <CharString name="Odotbelow">
          29 callsubr
          71 40 callsubr
          hstemhm
          53 83 70 114 68 83 hintmask 01110100
          -105 callgsubr
          hintmask 10001000
          -68 -452 -102 callgsubr
        </CharString>
        <CharString name="Ograve">
          152 callgsubr
          146 -20 89 callsubr
          hintmask 11001100
          -105 callgsubr
          hintmask 00110000
          -15 405 -83 callsubr
        </CharString>
        <CharString name="Ohookabove">
          27 callsubr
          73 49 callsubr
          53 83 23 24 callgsubr
          22 83 hintmask 1100100001000000
          -105 callgsubr
          hintmask 0001010010000000
          -22 514 -100 callgsubr
          hintmask 0010000100000000
          -66 callsubr
          vhcurveto
          hintmask 0000001010000000
          -69 callsubr
        </CharString>
        <CharString name="Ohorn">
          27 callsubr
          86 -20 hstem
          54 82 250 111 vstem
          -91 callgsubr
          endchar
        </CharString>
        <CharString name="Ohornacute">
          152 callgsubr
          35 -20 131 -20 hstemhm
          54 82 250 111 hintmask 11010110
          -91 callgsubr
          hintmask 00101000
          -41 459 -107 callgsubr
          13 4 15 13 vvcurveto
          endchar
        </CharString>
        <CharString name="Ohorndotbelow">
          29 callsubr
          71 40 callsubr
          86 -20 hstemhm
          54 82 70 114 66 111 hintmask 01111010
          -91 callgsubr
          hintmask 10000100
          -66 -456 -102 callgsubr
        </CharString>
        <CharString name="Ohorngrave">
          152 callgsubr
          35 -20 131 -20 hstemhm
          54 82 250 111 hintmask 11010110
          -91 callgsubr
          hintmask 00101000
          -42 401 -83 callsubr
        </CharString>
        <CharString name="Ohornhookabove">
          27 callsubr
          73 -21 34 -20 156 70 hstemhm
          54 82 23 24 callgsubr
          20 111 hintmask 1101010001100000
          -91 callgsubr
          hintmask 0000101001000000
          -20 510 -31 callgsubr
        </CharString>
        <CharString name="Ohorntilde">
          27 callsubr
          41 76 callgsubr
          54 82 250 111 hintmask 11001100
          -91 callgsubr
          hintmask 00010000
          26 439 rmoveto
          20 -18 19 -20 -13 -7 -5 -8 -101 callsubr
        </CharString>
        <CharString name="Ohungarumlaut">
          152 callgsubr
          152 -20 89 callsubr
          hintmask 11001100
          -105 callgsubr
          hintmask 00110000
          -142 468 -84 callgsubr
        </CharString>
        <CharString name="Omacron">
          27 callsubr
          61 77 89 callsubr
          hintmask 11011000
          -105 callgsubr
          hintmask 00100000
          67 407 -90 callsubr
        </CharString>
        <CharString name="Omega">
          -32 callgsubr
        </CharString>
        <CharString name="Omicron">
          27 callsubr
          hstem
          60 callsubr
          vstem
          -105 callgsubr
          endchar
        </CharString>
        <CharString name="Oogonek">
          -198 68 119 40 callsubr
          hstem
          53 83 35 73 56 73 15 83 vstem
          -27 callgsubr
          endchar
        </CharString>
        <CharString name="Oogonekacute">
          -198 68 119 40 callsubr
          72 68 callgsubr
          53 83 35 73 56 73 15 83 hintmask 1110011110000000
          -27 callgsubr
          hintmask 0001100000000000
          -14 463 -107 callgsubr
          13 4 15 13 vvcurveto
          endchar
        </CharString>
        <CharString name="Orogate">
          60 callsubr
          vstem
          471 305 rmoveto
          269 -20 43 -151 4 vhcurveto
          122 vlineto
          21 -17 17 -21 -21 -17 -17 -21 vhcurveto
          -122 vlineto
          -151 -4 -20 -42 -270 vvcurveto
          -269 20 -42 151 -5 vhcurveto
          -121 vlineto
          -21 17 -17 21 21 17 17 21 vhcurveto
          122 vlineto
          150 4 21 42 269 vvcurveto
          -83 9 rmoveto
          -60 0 -69 -11 -52 vhcurveto
          -51 -10 -24 -18 -81 hhcurveto
          -80 -23 18 46 -11 hvcurveto
          -12 48 0 85 53 vvcurveto
          56 0 62 9 44 vhcurveto
          61 14 29 10 74 hhcurveto
          68 33 -7 -50 13 hvcurveto
          12 -45 0 -72 -59 vvcurveto
          endchar
        </CharString>
        <CharString name="Oslash">
          -62 -21 72 40 callsubr
          72 -20 hstem
          53 69 280 69 vstem
          -65 callgsubr
          endchar
        </CharString>
        <CharString name="Oslash.dup">
          -62 -21 72 40 callsubr
          72 -20 hstem
          53 69 280 69 vstem
          -65 callgsubr
          endchar
        </CharString>
        <CharString name="Oslashacute">
          -62 -21 72 40 callsubr
          72 -21 21 -20 145 -20 hstemhm
          53 69 280 69 hintmask 11101011
          -65 callgsubr
          hintmask 00010100
          62 231 -107 callgsubr
          13 4 15 13 vvcurveto
          endchar
        </CharString>
        <CharString name="Otilde">
          27 callsubr
          41 79 -25 79 89 callsubr
          hintmask 11001100
          -105 callgsubr
          hintmask 00010000
          53 443 rmoveto
          20 -18 19 -20 -13 -7 -5 -8 59 callgsubr
          hintmask 00011000
          -92 callsubr
          hintmask 00100000
          -69 callgsubr
          hintmask 00010000
          -77 callsubr
          hintmask 00100000
          -95 callsubr
        </CharString>
        <CharString name="P">
          -9 callgsubr
        </CharString>
        <CharString name="Phi">
          0 75 77 75 157 75 77 75 hstem
          141 80 0 83 0 80 cntrmask 00001110
          486 305 rmoveto
          75 -76 66 -106 13 vhcurveto
          77 32 vlineto
          18 30 82 callsubr
          -18 hvcurveto
          -147 67 callsubr
          30 -1 18 hvcurveto
          32 -77 hlineto
          -109 -13 -74 -68 -72 vvcurveto
          -76 78 -66 105 -12 vhcurveto
          -77 -32 vlineto
          -18 -30 -1 -36 55 callsubr
          147 -60 callgsubr
          -32 77 hlineto
          109 14 73 68 71 vvcurveto
          -80 1 rmoveto
          -40 -47 -29 -53 -10 vhcurveto
          157 vlineto
          57 -10 43 -31 -37 vvcurveto
          -187 -79 rmoveto
          -61 11 -40 32 35 vvcurveto
          38 43 31 58 10 vhcurveto
          endchar
        </CharString>
        <CharString name="Pi">
          16 callsubr
          134 callgsubr
          vstem
          20 callgsubr
          461 17 -86 callgsubr
          -390 -63 callsubr
          17 -461 -17 hlineto
          -19 -28 -1 -37 -36 29 -17 callsubr
          461 190 -461 -26 callgsubr
          endchar
        </CharString>
        <CharString name="Psi">
          0 75 336 75 50 75 hstem
          75 83 63 83 62 83 vstem
          488 448 rmoveto
          38 -31 0 -12 -75 -4 -77 -41 -48 -6 -64 -56 -24 vhcurveto
          304 26 52 callsubr
          -135 -78 callsubr
          26 -304 hlineto
          -56 23 -7 62 52 vvcurveto
          54 -11 63 -68 -12 -31 0 -38 -29 21 -5 10 -3 vhcurveto
          8 -1 0 -31 -22 vvcurveto
          1 -75 28 -105 117 -24 rrcurveto
          -78 -26 vlineto
          -72 callgsubr
          18 hvcurveto
          135 hlineto
          18 -38 callgsubr
          -26 78 hlineto
          117 24 27 102 1 87 rrcurveto
          12 0 32 8 1 vhcurveto
          10 3 21 5 29 vvcurveto
          endchar
        </CharString>
        <CharString name="Q">
          -114 -21 124 75 0 75 408 75 hstemhm
          53 83 10 83 0 83 76 83 hintmask 11011011
          -75 callgsubr
          vhcurveto
          50 1 57 -110 rlineto
          -14 10 12 -1 19 hhcurveto
          9 hlineto
          19 20 2 24 4 -20 39 -11 23 hvcurveto
          -28 51 39 19 18 36 9 78 rlinecurve
          6 53 0 66 45 vvcurveto
          -83 1 rmoveto
          -175 -13 -31 -18 -14 vhcurveto
          -42 77 rlineto
          18 -11 -1 1 -24 hhcurveto
          -11 hlineto
          -18 -21 -2 -24 hvcurveto
          hintmask 00111101
          -6 1 -4 4 -7 vhcurveto
          39 -75 rlineto
          -19 hlineto
          -81 -19 25 49 -9 51 callsubr
          endchar
        </CharString>
        <CharString name="R">
          -83 callgsubr
          endchar
        </CharString>
        <CharString name="Racute">
          -83 callgsubr
          hintmask 1110000000000000
          20 338 -107 callgsubr
          13 4 15 13 vvcurveto
          endchar
        </CharString>
        <CharString name="Rcaron">
          -83 callgsubr
          hintmask 1110010000000000
          58 299 rmoveto
          -98 callsubr
        </CharString>
        <CharString name="Rcedilla">
          0 75 193 136 callsubr
          hstemhm
          84 82 -82 83 41 123 -3 -89 callsubr
          hintmask 1110010010000000
          90 callgsubr
          -23 -536 -95 callgsubr
        </CharString>
        <CharString name="Rcommaaccent">
          0 75 193 136 callsubr
          hstemhm
          84 82 -82 83 41 123 -3 -89 callsubr
          hintmask 1110000010000000
          130 callgsubr
          -23 -536 -95 callgsubr
        </CharString>
        <CharString name="Rdblgrave">
          -83 callgsubr
          hintmask 1110000000000000
          55 280 -103 callsubr
        </CharString>
        <CharString name="Rdotaccent">
          0 75 193 136 callsubr
          hstemhm
          84 82 -82 83 39 114 8 -89 callsubr
          hintmask 1110000010000000
          130 callgsubr
          -34 292 -102 callgsubr
        </CharString>
        <CharString name="Rdotbelow">
          0 75 193 136 callsubr
          hstemhm
          84 82 -82 83 39 114 8 -89 callsubr
          hintmask 1110000010000000
          130 callgsubr
          -34 -577 -102 callgsubr
        </CharString>
        <CharString name="Rdotbelowmacron">
          0 75 193 136 callsubr
          hstemhm
          84 82 -82 83 39 114 8 -89 callsubr
          hintmask 1110010010000000
          90 callgsubr
          -34 -577 rmoveto
          -101 callgsubr
          hintmask 1110000000000000
          135 859 -90 callsubr
        </CharString>
        <CharString name="Rho">
          -9 callgsubr
        </CharString>
        <CharString name="S">
          -11 48 callsubr
          hstem
          105 callsubr
          vstem
          -93 callgsubr
          endchar
        </CharString>
        <CharString name="Sacute">
          -11 48 callsubr
          72 68 callgsubr
          105 callsubr
          hintmask 1111001111000000
          -93 callgsubr
          hintmask 0000110000000000
          -100 607 -107 callgsubr
          13 4 15 13 vvcurveto
          endchar
        </CharString>
        <CharString name="Scaron">
          -11 48 callsubr
          155 -20 hstemhm
          105 callsubr
          hintmask 1111011110000000
          -93 callgsubr
          hintmask 0000100000000000
          -62 568 rmoveto
          -98 callsubr
        </CharString>
        <CharString name="Scedilla">
          -213 76 126 75 26 75 -75 76 190 75 116 75 hstemhm
          132 78 0 83 0 78 cntrmask 0000001110000000
          hintmask 0110111110000000
          474 170 rmoveto
          65 -36 43 -13 13 vhcurveto
          -41 40 -27 7 -78 18 -78 18 rcurveline
          -38 11 -35 31 42 vvcurveto
          46 45 43 65 105 17 -87 -29 5 vhcurveto
          -26 4 13 -7 24 hhcurveto
          41 1 24 23 hvcurveto
          129 124 callgsubr
          -24 -8 -14 -26 -8 vhcurveto
          29 -40 -50 11 -42 hhcurveto
          -113 -76 -81 -87 -68 46 -68 85 -24 hvcurveto
          112 -27 rlineto
          26 -5 77 -18 -79 vvcurveto
          -48 -40 -53 -72 -25 -43 4 22 -36 vhcurveto
          -43 28 -4 38 -1 16 rrcurveto
          20 -1 -1 21 -39 hhcurveto
          hintmask 1101001110000000
          -41 0 -24 -23 hvcurveto
          -129 vlineto
          -19 1 -29 36 22 9 12 28 9 vhcurveto
          30 -19 40 -13 43 -5 rrcurveto
          -18 vlineto
          -24 0 -23 38 -2 vhcurveto
          37 -2 21 -12 -17 vvcurveto
          -31 -91 0 -35 -43 -23 -3 -35 -29 20 -9 18 96 141 3 104 38 -26 44 -66 17 vhcurveto
          92 20 55 77 80 vvcurveto
          endchar
        </CharString>
        <CharString name="Scircumflex">
          -11 48 callsubr
          62 -21 hstemhm
          105 callsubr
          hintmask 1111011110000000
          -93 callgsubr
          hintmask 0000100000000000
          -62 532 -105 callsubr
          endchar
        </CharString>
        <CharString name="Sdotbelow">
          29 callsubr
          71 48 callsubr
          hstemhm
          50 78 73 78 -73 114 -27 78 25 78 hintmask 0111111011000000
          -93 callgsubr
          hintmask 1000000100000000
          -154 -308 -102 callgsubr
        </CharString>
        <CharString name="Sigma">
          0 77 459 75 hstem
          403 83 vstem
          486 48 rmoveto
          73 vlineto
          22 -1 26 -40 -41 -1 -25 -23 vhcurveto
          -44 -250 vlineto
          117 203 rlineto
          10 16 0 3 15 vvcurveto
          -131 222 rlineto
          254 -44 hlineto
          -12 callgsubr
          41 1 25 23 79 callsubr
          -353 hlineto
          -19 -29 -1 -37 -6 0 -7 9 -14 hvcurveto
          143 -241 -142 -244 rlineto
          -10 -16 0 -3 -7 vvcurveto
          -33 32 -2 16 vhcurveto
          353 140 callgsubr
        </CharString>
        <CharString name="T">
          16 callsubr
          131 callsubr
          vstem
          -82 callgsubr
          endchar
        </CharString>
        <CharString name="T_uni0303">
          120 callgsubr
          76 callgsubr
          131 callsubr
          hintmask 11001110
          -82 callgsubr
          hintmask 00010000
          -59 265 rmoveto
          20 -18 19 -20 -13 -7 -5 -8 -101 callsubr
        </CharString>
        <CharString name="T_uni0308">
          130 callsubr
          24 83 6 104 4 83 4 104 5 83 hintmask 11010101
          -82 callgsubr
          hintmask 00101010
          -283 223 -89 callgsubr
          endchar
        </CharString>
        <CharString name="Tau">
          16 callsubr
          131 callsubr
          vstem
          -82 callgsubr
          endchar
        </CharString>
        <CharString name="Tcaron">
          88 callgsubr
          131 callsubr
          hintmask 11011100
          -82 callgsubr
          hintmask 00100000
          -88 246 rmoveto
          -98 callsubr
        </CharString>
        <CharString name="Tcedilla">
          -206 76 130 -29 callsubr
          hstem
          135 callsubr
          14 82 17 83 vstem
          500 492 rmoveto
          34 callsubr
          -381 hlineto
          -38 -10 -9 -39 hvcurveto
          -71 vlineto
          -12 callgsubr
          41 1 25 23 vhcurveto
          44 114 -461 -43 vlineto
          -81 callsubr
          43 -19 hlineto
          -23 1 -23 38 -2 vhcurveto
          -5 callgsubr
          37 -25 44 -64 17 vhcurveto
          36 2 callgsubr
          461 113 -44 hlineto
          -12 callgsubr
          41 1 25 23 vhcurveto
          endchar
        </CharString>
        <CharString name="Tdotbelow">
          15 callsubr
          hstemhm
          24 83 99 114 -99 83 113 83 hintmask 01110110
          -82 callgsubr
          hintmask 10001000
          -180 -630 -102 callgsubr
        </CharString>
        <CharString name="Theta">
          -11 75 201 81 201 75 hstem
          60 callsubr
          cntrmask 11100000
          -75 callgsubr
          7 callsubr
          vhcurveto
          -83 1 rmoveto
          -54 0 -75 -10 -46 vhcurveto
          -50 -12 -20 -17 -84 hhcurveto
          -81 -26 15 59 -10 51 callsubr
          -23 -23 rmoveto
          45 vlineto
          24 0 24 -42 -12 -23 0 -30 -5 vhcurveto
          -42 hlineto
          29 -5 -22 1 -13 hhcurveto
          -42 0 -24 -24 hvcurveto
          -45 vlineto
          -24 0 -24 42 12 23 0 30 5 vhcurveto
          42 hlineto
          -29 5 22 -1 13 hhcurveto
          42 0 24 24 hvcurveto
          endchar
        </CharString>
        <CharString name="Thorn">
          0 75 45 75 222 75 44 75 hstem
          83 83 224 82 vstem
          472 306 rmoveto
          95 -75 91 -117 vhcurveto
          -114 44 17 108 callsubr
          -116 -63 callsubr
          16 -461 -16 -63 callsubr
          116 108 callsubr
          -17 45 0 callsubr
        </CharString>
        <CharString name="Tlinebelow">
          162 callgsubr
          131 callsubr
          hintmask 01111100
          -82 callgsubr
          hintmask 10000000
          -45 -642 -90 callsubr
        </CharString>
        <CharString name="U">
          45 callsubr
          hstem
          72 83 214 83 vstem
          -104 callgsubr
          endchar
        </CharString>
        <CharString name="U_uni032F">
          -192 -21 48 78 76 155 callgsubr
          72 83 214 83 hintmask 00111100
          -104 callgsubr
          hintmask 11000000
          -79 -749 -64 callgsubr
        </CharString>
        <CharString name="Uacute">
          -11 75 472 117 callsubr
          72 83 214 83 hintmask 11001100
          -104 callgsubr
          hintmask 00110000
          -147 203 -107 callgsubr
          13 4 15 13 vvcurveto
          endchar
        </CharString>
        <CharString name="Ubreve">
          45 callsubr
          62 78 48 -20 hstemhm
          72 83 214 83 hintmask 11001100
          -104 callgsubr
          hintmask 00110000
          -79 187 -96 callgsubr
        </CharString>
        <CharString name="Ucaron">
          45 callsubr
          165 callsubr
          72 83 214 83 hintmask 11011000
          -104 callgsubr
          hintmask 00100000
          -109 164 rmoveto
          -98 callsubr
        </CharString>
        <CharString name="Ucircumflex">
          45 callsubr
          73 -21 hstemhm
          72 83 214 83 hintmask 11011000
          -104 callgsubr
          hintmask 00100000
          -109 128 -105 callsubr
          endchar
        </CharString>
        <CharString name="Udblgrave">
          119 callgsubr
          152 -20 hstemhm
          72 83 214 83 hintmask 11001100
          -104 callgsubr
          hintmask 00110000
          -83 145 -103 callsubr
        </CharString>
        <CharString name="Udieresis">
          119 callsubr
          86 callsubr
          hintmask 11010010
          -104 callgsubr
          hintmask 00101100
          -3 callgsubr
          endchar
        </CharString>
        <CharString name="Udieresisacute">
          119 callsubr
          82 -21 146 -20 86 callsubr
          hintmask 1100010010000000
          -104 callgsubr
          hintmask 0011101100000000
          -3 callgsubr
          -38 216 -107 callgsubr
          13 4 15 13 vvcurveto
          endchar
        </CharString>
        <CharString name="Udieresiscaron">
          119 callsubr
          165 -20 86 callsubr
          hintmask 11001001
          -104 callgsubr
          hintmask 00110110
          -3 callgsubr
          177 vmoveto
          -98 callsubr
        </CharString>
        <CharString name="Udieresisgrave">
          119 callsubr
          82 -21 146 -20 86 callsubr
          hintmask 1100010010000000
          -104 callgsubr
          hintmask 0011101100000000
          -3 callgsubr
          -39 158 -83 callsubr
        </CharString>
        <CharString name="Udotbelow">
          29 callsubr
          71 155 callgsubr
          72 83 51 114 49 83 hintmask 01110100
          -104 callgsubr
          hintmask 10001000
          -201 -712 -102 callgsubr
        </CharString>
        <CharString name="Ugrave">
          -11 75 472 117 callsubr
          72 83 214 83 hintmask 11001100
          -104 callgsubr
          hintmask 00110000
          -148 145 -83 callsubr
        </CharString>
        <CharString name="Uhookabove">
          45 callsubr
          84 49 callsubr
          72 83 4 24 callgsubr
          3 83 hintmask 1100100001000000
          -104 callgsubr
          hintmask 0001010010000000
          -155 254 -100 callgsubr
          hintmask 0010000100000000
          -66 callsubr
          vhcurveto
          hintmask 0000001010000000
          -69 callsubr
        </CharString>
        <CharString name="Uhorn">
          45 callsubr
          97 -20 57 callsubr
          hintmask 01100010
          -30 callsubr
          hintmask 01001000
          -22 -13 136 callgsubr
          14 -16 20 hhcurveto
          hintmask 11010100
          -77 callgsubr
          hintmask 00000010
          106 callgsubr
          endchar
        </CharString>
        <CharString name="Uhornacute">
          119 callgsubr
          35 -20 131 -20 57 callsubr
          hintmask 0101000010000000
          -30 callsubr
          hintmask 0100001000000000
          -22 -13 136 callgsubr
          14 -16 20 hhcurveto
          hintmask 1100010100000000
          -77 callgsubr
          hintmask 0000000010000000
          106 callgsubr
          hintmask 0010100000000000
          -181 142 -107 callgsubr
          13 4 15 13 vvcurveto
          endchar
        </CharString>
        <CharString name="Uhorndotbelow">
          29 callsubr
          71 69 callgsubr
          97 -20 hstemhm
          71 84 51 114 -20 113 -45 84 -39 113 hintmask 0011000010000000
          -30 callsubr
          hintmask 0010001000000000
          -22 -13 136 callgsubr
          14 -16 20 hhcurveto
          hintmask 0110100100000000
          -77 callgsubr
          hintmask 0000000010000000
          106 callgsubr
          hintmask 1000010000000000
          -206 -773 -102 callgsubr
        </CharString>
        <CharString name="Uhorngrave">
          119 callgsubr
          35 -20 131 -20 57 callsubr
          hintmask 0101000010000000
          -30 callsubr
          hintmask 0100001000000000
          -22 -13 136 callgsubr
          14 -16 20 hhcurveto
          hintmask 1100010100000000
          -77 callgsubr
          hintmask 0000000010000000
          106 callgsubr
          hintmask 0010100000000000
          -182 84 -83 callsubr
        </CharString>
        <CharString name="Uhornhookabove">
          45 callsubr
          84 -21 34 -20 156 70 hstemhm
          71 84 4 24 callgsubr
          -66 113 -45 84 -39 113 hintmask 0101000000001000
          -30 callsubr
          hintmask 0100000000100000
          -22 -13 136 callgsubr
          14 -16 20 hhcurveto
          hintmask 1100010000010000
          -77 callgsubr
          hintmask 0000000000001000
          106 callgsubr
          hintmask 0000101001000000
          -160 193 -31 callgsubr
        </CharString>
        <CharString name="Uhorntilde">
          141 callsubr
          79 -25 79 57 callsubr
          hintmask 01000001
          -30 callsubr
          hintmask 01000100
          -22 -13 136 callgsubr
          14 -16 20 hhcurveto
          hintmask 11001010
          -77 callgsubr
          hintmask 00000001
          106 callgsubr
          hintmask 00010000
          -114 122 rmoveto
          20 -18 19 -20 -13 -7 -5 -8 -101 callsubr
        </CharString>
        <CharString name="Uhungarumlaut">
          119 callgsubr
          152 -20 hstemhm
          72 83 214 83 hintmask 11001100
          -104 callgsubr
          hintmask 00110000
          -275 208 -84 callgsubr
        </CharString>
        <CharString name="Umacron">
          45 callsubr
          72 77 hstemhm
          72 83 214 83 hintmask 11011000
          -104 callgsubr
          hintmask 00100000
          -66 147 -90 callsubr
        </CharString>
        <CharString name="Uogonek">
          -198 68 119 155 callgsubr
          72 83 24 73 -73 83 46 73 -12 83 hintmask 11110101
          521 574 rmoveto
          83 callsubr
          vhcurveto
          -125 67 callsubr
          30 -1 18 hvcurveto
          21 -325 hlineto
          -98 -59 -49 -48 -49 -58 49 98 vhcurveto
          325 21 vlineto
          18 30 1 37 83 callsubr
          hvcurveto
          -125 67 callsubr
          30 -1 18 hvcurveto
          21 -329 hlineto
          -108 66 -84 84 -21 vhcurveto
          -25 -25 -18 -33 -33 157 callgsubr
          66 40 39 27 34 25 vhcurveto
          hintmask 10001010
          9 11 -3 22 -12 14 -20 23 -19 -21 -34 138 callgsubr
          37 18 35 29 21 hvcurveto
          hintmask 00100001
          85 19 68 85 109 vvcurveto
          -20 callgsubr
          endchar
        </CharString>
        <CharString name="Upsilon">
          0 75 413 67 0 67 hstemhm
          36 83 102 83 101 83 hintmask 00100000
          488 488 rmoveto
          59 -44 75 -76 -52 -36 -33 -72 -18 vhcurveto
          77 -19 -38 28 -49 hhcurveto
          hintmask 11011100
          -75 -45 -74 -60 -39 30 0 11 13 29 1 37 33 7 35 31 64 0 -152 -48 hvcurveto
          -280 -26 vlineto
          -72 callgsubr
          18 hvcurveto
          135 hlineto
          18 -38 callgsubr
          -26 280 hlineto
          49 0 151 63 32 6 -38 -28 -40 27 0 15 11 30 0 39 vhcurveto
          endchar
        </CharString>
        <CharString name="Uring">
          45 callsubr
          12 47 40 47 hstemhm
          72 83 21 56 62 56 19 83 hintmask 11001101
          -104 callgsubr
          hintmask 00110110
          -227 116 rmoveto
          -12 -16 -8 -15 -15 -16 8 12 13 16 7 15 15 16 -7 -13 -3 callsubr
        </CharString>
        <CharString name="Utilde">
          141 callsubr
          76 callgsubr
          72 83 214 83 hintmask 11001100
          -104 callgsubr
          hintmask 00010000
          -80 183 rmoveto
          20 -18 19 -20 -13 -7 -5 -8 -101 callsubr
        </CharString>
        <CharString name="V">
          13 -21 544 75 hstem
          508 574 rmoveto
          83 callsubr
          vhcurveto
          -100 143 callsubr
          -36 -32 18 -5 34 -1 hvcurveto
          -103 -425 -103 425 rlineto
          34 1 18 5 32 vvcurveto
          36 -30 1 -17 vhcurveto
          -100 91 callgsubr
          -34 21 -4 37 hvcurveto
          127 -501 rlineto
          -42 11 18 -1 32 hhcurveto
          30 21 1 41 10 hvcurveto
          127 502 rlineto
          37 21 4 34 hvcurveto
          endchar
        </CharString>
        <CharString name="W">
          13 -21 544 75 hstem
          -79 callsubr
          endchar
        </CharString>
        <CharString name="Wacute">
          13 -21 544 117 callsubr
          hintmask 11000000
          -79 callsubr
          hintmask 00110000
          -140 204 -107 callgsubr
          13 4 15 13 vvcurveto
          endchar
        </CharString>
        <CharString name="Wcircumflex">
          13 -21 544 75 73 -21 hstemhm
          hintmask 11000000
          -79 callsubr
          hintmask 00100000
          -102 129 -105 callsubr
          endchar
        </CharString>
        <CharString name="Wdieresis">
          13 -21 544 75 52 103 hstemhm
          113 104 91 104 hintmask 11000000
          -79 callsubr
          hintmask 00111000
          -297 142 -89 callgsubr
          endchar
        </CharString>
        <CharString name="Wgrave">
          13 -21 544 117 callsubr
          hintmask 11000000
          -79 callsubr
          hintmask 00110000
          -141 146 -83 callsubr
        </CharString>
        <CharString name="X">
          -29 callgsubr
        </CharString>
        <CharString name="Xi">
          0 73 208 73 184 73 hstem
          489 545 rmoveto
          18 vlineto
          35 callsubr
          -359 hlineto
          -39 -9 -9 -39 hvcurveto
          -18 149 callgsubr
          18 23 1 vhcurveto
          288 hlineto
          -23 1 4 -18 37 hhcurveto
          40 1 25 23 hvcurveto
          -70 -252 rmoveto
          48 vlineto
          24 -1 23 -41 -26 -13 -10 -24 -2 vhcurveto
          -148 hlineto
          24 -2 -13 10 -26 hhcurveto
          -41 -1 -23 -24 hvcurveto
          -48 vlineto
          -23 1 -23 41 26 13 9 25 2 vhcurveto
          148 hlineto
          -25 2 13 -9 26 hhcurveto
          41 1 23 23 hvcurveto
          74 -245 rmoveto
          23 vlineto
          23 -1 25 -40 -37 -4 -18 -28 -1 vhcurveto
          -296 hlineto
          28 -1 -4 18 -37 hhcurveto
          -40 -1 -25 -23 hvcurveto
          -23 vlineto
          -39 9 -9 39 vhcurveto
          367 140 callgsubr
        </CharString>
        <CharString name="Y">
          110 callsubr
          -87 callgsubr
          endchar
        </CharString>
        <CharString name="Yacute">
          0 158 callsubr
          221 83 hintmask 11001000
          -87 callgsubr
          hintmask 00110000
          -133 204 -107 callgsubr
          13 4 15 13 vvcurveto
          endchar
        </CharString>
        <CharString name="Ycircumflex">
          -21 callsubr
          73 -21 hstemhm
          221 83 hintmask 11010000
          -87 callgsubr
          hintmask 00100000
          -95 129 -105 callsubr
          endchar
        </CharString>
        <CharString name="Ydieresis">
          130 callsubr
          113 104 4 83 4 104 hintmask 11001000
          -87 callgsubr
          hintmask 00110100
          -290 142 -89 callgsubr
          endchar
        </CharString>
        <CharString name="Ydotbelow">
          15 callsubr
          134 callsubr
          -99 83 hintmask 01101000
          507 573 -57 callsubr
          -102 hlineto
          -17 -29 -1 -36 -31 18 -6 22 -1 hvcurveto
          -89 -203 -91 203 rlineto
          22 1 18 6 31 157 callsubr
          -17 vhcurveto
          -102 10 callgsubr
          hlineto
          141 -292 rlineto
          -169 -16 vlineto
          98 callsubr
          27 -1 20 hvcurveto
          hintmask 01010000
          1 callsubr
          hintmask 01101000
          -16 169 hlineto
          140 292 rlineto
          16 hlineto
          82 callgsubr
          hintmask 10010000
          -187 -711 -102 callgsubr
        </CharString>
        <CharString name="Ygrave">
          0 158 callsubr
          221 83 hintmask 11001000
          -87 callgsubr
          hintmask 00110000
          -134 146 -83 callsubr
        </CharString>
        <CharString name="Yhookabove">
          71 callgsubr
          -87 callgsubr
          hintmask 0001100010000000
          -141 255 -100 callgsubr
          hintmask 0010001000000000
          -66 callsubr
          vhcurveto
          hintmask 0000010010000000
          -69 callsubr
        </CharString>
        <CharString name="Ytilde">
          120 callgsubr
          76 callgsubr
          221 83 hintmask 11001000
          -87 callgsubr
          hintmask 00010000
          -66 184 rmoveto
          20 -18 19 -20 -13 -7 -5 -8 -101 callsubr
        </CharString>
        <CharString name="Z">
          16 callsubr
          57 83 260 83 vstem
          -73 callgsubr
          endchar
        </CharString>
        <CharString name="Zacute">
          0 158 callsubr
          57 83 260 83 hintmask 11001100
          -73 callgsubr
          hintmask 00110000
          -109 729 -107 callgsubr
          13 4 15 13 vvcurveto
          endchar
        </CharString>
        <CharString name="Zcaron">
          88 callgsubr
          57 83 260 83 hintmask 11011000
          -73 callgsubr
          hintmask 00100000
          -71 690 rmoveto
          -98 callsubr
        </CharString>
        <CharString name="Zdotaccent">
          -21 callsubr
          63 113 hstemhm
          57 83 66 114 80 83 hintmask 11010100
          -73 callgsubr
          hintmask 00101000
          -163 683 -102 callgsubr
        </CharString>
        <CharString name="Zdotbelow">
          15 callsubr
          hstemhm
          57 83 66 114 80 83 hintmask 01110100
          -73 callgsubr
          hintmask 10001000
          -163 -186 -102 callgsubr
        </CharString>
        <CharString name="Zeta">
          16 callsubr
          57 83 260 83 vstem
          -73 callgsubr
          endchar
        </CharString>
        <CharString name="a">
          5 callgsubr
          hstemhm
          48 82 hintmask 01110000
          -106 callsubr
          hintmask 10010000
          -70 callsubr
          endchar
        </CharString>
        <CharString name="aacute">
          5 callgsubr
          66 68 callgsubr
          48 82 hintmask 01100100
          -106 callsubr
          hintmask 10000100
          -70 callsubr
          hintmask 00011000
          35 381 -107 callgsubr
          12 4 16 13 vvcurveto
          endchar
        </CharString>
        <CharString name="abreve">
          5 callgsubr
          55 78 48 -20 hstemhm
          48 82 hintmask 01100100
          -106 callsubr
          hintmask 10000100
          -70 callsubr
          hintmask 00011000
          103 375 -96 callgsubr
        </CharString>
        <CharString name="abreveacute">
          5 callgsubr
          55 78 214 -20 hstemhm
          48 82 hintmask 01100100
          -106 callsubr
          hintmask 10000100
          -70 callsubr
          hintmask 00011000
          103 375 -59 callgsubr
        </CharString>
        <CharString name="abrevedotbelow">
          29 callsubr
          76 18 callgsubr
          55 78 48 -20 hstemhm
          48 82 76 114 hintmask 00110010
          -42 callsubr
          hintmask 01001110
          -70 callsubr
          103 375 -104 callsubr
          hintmask 10000001
          -122 -725 -102 callgsubr
        </CharString>
        <CharString name="abrevegrave">
          5 callgsubr
          55 78 48 -20 hstemhm
          48 82 hintmask 01100100
          -106 callsubr
          hintmask 10000100
          -70 callsubr
          hintmask 00011000
          103 375 -58 callgsubr
        </CharString>
        <CharString name="abrevehookabove">
          5 callgsubr
          55 78 140 78 0 70 hstemhm
          48 82 91 70 hintmask 01100010
          -106 callsubr
          hintmask 10000010
          -70 callsubr
          hintmask 00010101
          103 375 -104 callsubr
          -75 192 -100 callgsubr
          -66 callsubr
          19 16 17 18 vhcurveto
          18 vlineto
          hintmask 00001000
          -68 callgsubr
        </CharString>
        <CharString name="abrevetilde">
          5 callgsubr
          55 158 callgsubr
          48 82 hintmask 0110000010000000
          -43 callgsubr
          hintmask 1000000010000000
          -70 callsubr
          hintmask 0001010000000000
          103 375 rmoveto
          23 -13 15 -25 -29 -5 -20 -14 -3 vhcurveto
          -14 -4 -62 0 -38 hhcurveto
          -39 -61 0 14 -4 hvcurveto
          14 -3 -5 20 -29 hhcurveto
          hintmask 0001100100000000
          -24 -14 -15 -23 -84 111 -4 68 68 111 4 84 hvcurveto
          -1 172 -14 callgsubr
          hintmask 0000001000000000
          -72 callsubr
          hintmask 0000010100000000
          -92 callsubr
          hintmask 0000100100000000
          -69 callgsubr
          -77 callsubr
          -95 callsubr
        </CharString>
        <CharString name="acaron">
          5 callgsubr
          192 -20 hstemhm
          48 82 hintmask 01101000
          -106 callsubr
          hintmask 10001000
          -70 callsubr
          hintmask 00010000
          74 392 -96 callsubr
        </CharString>
        <CharString name="acircumflex">
          5 callgsubr
          65 -21 hstemhm
          48 82 hintmask 01101000
          -106 callsubr
          hintmask 10001000
          -70 callsubr
          hintmask 00010000
          74 308 -100 callsubr
          endchar
        </CharString>
        <CharString name="acircumflexacute">
          5 callgsubr
          66 -21 280 -20 hstemhm
          48 82 hintmask 01100100
          -106 callsubr
          hintmask 10000100
          -70 callsubr
          hintmask 00011000
          73 316 -90 callgsubr
        </CharString>
        <CharString name="acircumflexdotbelow">
          29 callsubr
          76 18 callgsubr
          65 -21 hstemhm
          48 82 76 114 hintmask 00110100
          -42 callsubr
          hintmask 01001100
          -70 callsubr
          74 308 -100 callsubr
          hintmask 10000010
          -93 -658 -102 callgsubr
        </CharString>
        <CharString name="acircumflexgrave">
          5 callgsubr
          66 -21 hstemhm
          48 82 hintmask 01101000
          -106 callsubr
          hintmask 10001000
          -70 callsubr
          hintmask 00010000
          73 316 -91 callsubr
        </CharString>
        <CharString name="acircumflexhookabove">
          5 callgsubr
          57 67 callgsubr
          48 82 193 70 hintmask 01100010
          -106 callsubr
          hintmask 10000010
          -70 callsubr
          hintmask 00010000
          73 316 -7 callsubr
          hintmask 00001101
          -76 callsubr
          57 229 -100 callgsubr
          -66 callsubr
          19 16 17 18 vhcurveto
          -56 callsubr
        </CharString>
        <CharString name="acircumflextilde">
          5 callgsubr
          66 118 callsubr
          48 82 hintmask 01100010
          -106 callsubr
          hintmask 10000010
          -70 callsubr
          hintmask 00010100
          73 316 -105 callsubr
          28 209 -14 callgsubr
          hintmask 00001000
          -72 callsubr
          hintmask 00000100
          -92 callsubr
          hintmask 00001000
          -69 callgsubr
          hintmask 00000100
          -77 callsubr
          hintmask 00001000
          -95 callsubr
        </CharString>
        <CharString name="acute">
          497 46 callsubr
          hstem
          374 580 -107 callgsubr
          12 4 16 13 vvcurveto
          endchar
        </CharString>
        <CharString name="acute.cap">
          513 46 callsubr
          hstem
          374 596 -107 callgsubr
          13 4 15 13 vvcurveto
          endchar
        </CharString>
        <CharString name="acute.dup">
          497 46 callsubr
          hstem
          374 580 -107 callgsubr
          12 4 16 13 vvcurveto
          endchar
        </CharString>
        <CharString name="acute.ts1">
          487 46 callsubr
          hstem
          412 570 -107 callgsubr
          12 4 16 13 vvcurveto
          endchar
        </CharString>
        <CharString name="adblgrave">
          5 callgsubr
          63 156 callsubr
          48 82 hintmask 01100100
          -106 callsubr
          hintmask 10000100
          -70 callsubr
          hintmask 00011000
          99 320 -103 callsubr
        </CharString>
        <CharString name="adieresis">
          5 callgsubr
          67 103 hstemhm
          48 82 -2 104 61 104 hintmask 01101000
          -106 callsubr
          hintmask 10001000
          -70 callsubr
          hintmask 00010110
          -107 351 -63 callgsubr
        </CharString>
        <CharString name="adotbelow">
          29 callsubr
          76 18 callgsubr
          hstemhm
          48 82 76 114 hintmask 00111000
          -42 callsubr
          hintmask 01001000
          -70 callsubr
          hintmask 10000100
          -19 -350 -102 callgsubr
        </CharString>
        <CharString name="ae">
          66 callgsubr
          31 68 292 68 vstem
          -65 callsubr
          endchar
        </CharString>
        <CharString name="ae.dup">
          66 callgsubr
          31 68 292 68 vstem
          -65 callsubr
          endchar
        </CharString>
        <CharString name="aeacute">
          53 callgsubr
          146 -20 hstemhm
          31 68 292 68 hintmask 11100110
          -65 callsubr
          hintmask 00011000
          150 409 -107 callgsubr
          12 4 16 13 vvcurveto
          endchar
        </CharString>
        <CharString name="agrave">
          5 callgsubr
          66 68 callgsubr
          48 82 hintmask 01100100
          -106 callsubr
          hintmask 10000100
          -70 callsubr
          hintmask 00011000
          34 323 -84 callsubr
          -16 28 -12 hvcurveto
          61 callgsubr
          -3 7 6 -2 8 hhcurveto
          31 9 37 9 hvcurveto
          endchar
        </CharString>
        <CharString name="ahookabove">
          5 callgsubr
          19 49 callsubr
          48 82 29 24 callgsubr
          hintmask 0110010000000000
          -43 callgsubr
          hintmask 1000010000000000
          -70 callsubr
          hintmask 0000101001000000
          27 384 -100 callgsubr
          hintmask 0001000010000000
          6 callsubr
        </CharString>
        <CharString name="amacron">
          5 callgsubr
          80 77 hstemhm
          48 82 hintmask 01101000
          -106 callsubr
          hintmask 10001000
          -70 callsubr
          hintmask 00010000
          116 350 -90 callsubr
        </CharString>
        <CharString name="ampersand">
          -11 75 297 75 -38 75 74 75 hstemhm
          26 81 -8 69 -61 72 -26 81 -6 81 -75 72 -31 70 19 81 -26 70 -69 69 -69 72 hintmask 0100000010010000
          492 398 -57 callsubr
          -90 hlineto
          -17 -29 -2 -35 hvcurveto
          hintmask 0100000000100000
          -31 18 -6 18 -1 vhcurveto
          -23 -61 -27 -71 -24 -49 -17 27 -31 52 -14 37 rrcurveto
          hintmask 0011010001000000
          97 103 0 59 22 vvcurveto
          64 -24 78 -74 -51 -58 -46 -103 -42 7 -54 19 -60 vhcurveto
          -14 -15 -45 -51 -3 -1 rrcurveto
          hintmask 1000100000100100
          -21 -26 -16 -36 -47 vvcurveto
          -78 49 -74 79 50 40 29 35 31 vhcurveto
          -22 19 41 -42 54 hhcurveto
          69 31 71 50 41 -35 -1 0 hvcurveto
          hintmask 1000000000001000
          -32 -3 -30 -8 hvcurveto
          -36 -4 -13 -12 -13 hhcurveto
          -31 -30 35 15 -12 hvcurveto
          hintmask 0000000000010000
          20 33 18 43 10 24 rrcurveto
          hintmask 0100000000000010
          56 147 rlineto
          hintmask 0100000000010000
          25 hlineto
          hintmask 0010001000000010
          82 callgsubr
          -258 82 rmoveto
          -25 -15 -30 -40 -46 vhcurveto
          hintmask 1011010001000000
          -10 44 -1 43 7 vvcurveto
          50 20 24 19 27 0 -59 -8 vhcurveto
          -6 -367 rmoveto
          -44 -33 -30 -5 -13 hhcurveto
          hintmask 0000100100000000
          -39 -6 57 23 41 9 13 37 42 hvcurveto
          hintmask 0000000010000000
          25 -50 28 -46 22 -31 rrcurveto
          endchar
        </CharString>
        <CharString name="anglearc">
          100 -21 454 -20 hstemhm
          336 84 -58 84 hintmask 00100000
          488 121 rmoveto
          17 -10 14 -13 6 vhcurveto
          -66 33 rlineto
          14 37 7 38 40 vvcurveto
          40 -7 38 -14 37 vhcurveto
          66 33 rlineto
          13 6 10 14 17 vvcurveto
          hintmask 11010000
          23 -19 19 -23 -7 -6 -1 -4 -6 vhcurveto
          -65 -33 -5 8 -5 7 -6 7 rlinecurve
          10 -7 -12 6 -13 hhcurveto
          -23 -19 -19 -23 -9 3 -10 5 -7 hvcurveto
          6 -7 -227 -115 rlineto
          -13 -6 -10 -14 -17 vvcurveto
          -17 10 -14 13 -6 vhcurveto
          227 -115 -6 -7 rlineto
          -5 -7 -3 -10 -9 vvcurveto
          -23 19 -19 23 13 12 6 10 7 vhcurveto
          6 7 5 7 5 8 65 -33 rcurveline
          -4 6 6 -1 7 hhcurveto
          23 19 19 23 hvcurveto
          -152 185 rmoveto
          -26 -4 -26 -8 -25 vhcurveto
          -153 77 153 77 rlineto
          hintmask 00100000
          8 -25 4 -26 -26 vvcurveto
          endchar
        </CharString>
        <CharString name="angleleft">
          -60 -21 774 -20 hstem
          453 -38 rmoveto
          10 -21 35 -13 20 vhcurveto
          -184 279 206 314 rlineto
          7 11 5 10 10 vvcurveto
          23 -18 19 -24 vhcurveto
          -21 -2 -11 -8 -21 -33 -219 -345 rcurveline
          -3 222 -341 0 vhcurveto
          -19 13 16 -23 21 hhcurveto
          23 19 22 21 hvcurveto
          endchar
        </CharString>
        <CharString name="angleright">
          -60 -21 774 -20 hstem
          71 92 vstem
          385 305 rmoveto
          -219 345 -21 33 -11 8 -21 2 rlinecurve
          -24 -18 -19 -23 -10 5 -10 7 -11 hvcurveto
          206 -314 -184 -279 rlineto
          -13 -20 -21 -35 -10 vvcurveto
          -21 19 -22 23 21 16 23 19 13 vhcurveto
          0 222 341 3 vvcurveto
          endchar
        </CharString>
        <CharString name="aogonek">
          -41 callgsubr
          endchar
        </CharString>
        <CharString name="aogonekacute">
          -41 callgsubr
          hintmask 11100000
          35 381 -107 callgsubr
          12 4 16 13 vvcurveto
          endchar
        </CharString>
        <CharString name="aring">
          5 callgsubr
          61 47 40 47 hstemhm
          48 82 46 56 62 56 hintmask 01100110
          -106 callsubr
          hintmask 10000100
          -70 callsubr
          hintmask 00011011
          -45 360 -33 callgsubr
        </CharString>
        <CharString name="aringacute">
          5 callgsubr
          61 47 40 47 165 callsubr
          48 82 46 56 62 56 hintmask 0110001100000000
          -43 callgsubr
          hintmask 1000001000000000
          -70 callsubr
          hintmask 0001110110000000
          -45 360 -55 callgsubr
        </CharString>
        <CharString name="asciicircum">
          436 544 rmoveto
          -159 77 -9 4 -11 0 -9 -4 rlinecurve
          -159 -77 -43 -21 30 -64 42 18 rlinecurve
          144 62 144 -62 43 -18 30 64 -43 21 rlinecurve
          endchar
        </CharString>
        <CharString name="asciitilde">
          239 76 callgsubr
          hintmask 01000000
          441 333 rmoveto
          19 -18 20 -20 -13 -7 -6 -7 -85 callgsubr
        </CharString>
        <CharString name="asciitilde.low">
          0 76 callgsubr
          hintmask 01000000
          441 94 97 callgsubr
          hintmask 10000000
          -26 -28 -23 -15 -12 hhcurveto
          -5 -9 8 10 -11 hvcurveto
          hintmask 01000000
          14 -14 -21 22 -36 hhcurveto
          -28 -29 -17 -17 -23 hvcurveto
          -22 -16 -29 -25 -19 vvcurveto
          hintmask 10000000
          -20 18 -19 20 13 7 6 7 8 vhcurveto
          hintmask 01000000
          25 28 23 16 12 hhcurveto
          5 9 -9 -10 11 hvcurveto
          hintmask 10000000
          -13 14 21 -22 36 hhcurveto
          28 29 16 18 23 hvcurveto
          22 16 29 24 20 vvcurveto
          endchar
        </CharString>
        <CharString name="asterisk">
          -27 callsubr
        </CharString>
        <CharString name="asterisk.math">
          -27 callsubr
        </CharString>
        <CharString name="at">
          -6 75 34 75 255 75 34 75 hstemhm
          42 70 73 72 76 70 -68 68 11 68 hintmask 1011110100000000
          482 86 rmoveto
          34 -33 1 -12 -19 -4 -1 -11 -11 vhcurveto
          -30 -33 -35 -10 -31 hhcurveto
          -102 -90 102 134 140 94 97 97 22 33 -7 -37 22 hvcurveto
          5 -12 -17 5 -17 hhcurveto
          -81 -68 -87 -115 hvcurveto
          hintmask 1101111010000000
          -121 73 -82 75 50 99 42 176 65 -2 231 -177 -136 -125 -131 -180 -179 123 -133 140 92 85 62 30 vhcurveto
          -68 219 rmoveto
          -74 -39 -53 -39 -43 -36 56 71 vhcurveto
          hintmask 0010000110000000
          76 40 52 38 41 38 -54 -74 vhcurveto
          endchar
        </CharString>
        <CharString name="atilde">
          5 callgsubr
          52 76 callgsubr
          48 82 hintmask 01100100
          -106 callsubr
          hintmask 10000100
          -70 callsubr
          hintmask 00001000
          102 378 rmoveto
          19 -18 20 -20 -13 -7 -6 -7 -67 callgsubr
        </CharString>
        <CharString name="b">
          -6 75 297 75 95 75 hstemhm
          10 83 0 82 -82 83 232 82 hintmask 01100100
          59 callsubr
          160 vlineto
          35 callsubr
          -71 hlineto
          hintmask 00110000
          73 callsubr
          -488 hlineto
          -24 1 -24 41 vhcurveto
          hintmask 11001010
          31 8 14 20 1 hvcurveto
          42 callgsubr
        </CharString>
        <CharString name="backslash">
          142 callgsubr
          469 -39 rmoveto
          9 -5 11 -3 7 vhcurveto
          -323 673 rlineto
          12 -5 -10 19 -26 hhcurveto
          -24 -18 -20 -22 -9 5 -11 3 -7 hvcurveto
          323 -673 rlineto
          -12 5 10 -19 26 hhcurveto
          24 18 20 22 hvcurveto
          endchar
        </CharString>
        <CharString name="baht">
          -70 -21 91 66 callsubr
          91 -20 hstemhm
          87 82 47 77 -76 82 84 80 -59 80 hintmask 0001101010000000
          484 171 rmoveto
          64 -40 61 -70 25 vhcurveto
          54 26 35 49 56 vvcurveto
          74 -60 83 -110 2 vhcurveto
          53 vlineto
          20 -17 18 -21 vhcurveto
          hintmask 0000000100000000
          -22 -16 -18 -20 hvcurveto
          hintmask 1101011001000000
          -1 -53 rlineto
          -148 143 callsubr
          -36 -37 29 -1 19 hvcurveto
          18 -461 -18 -42 callgsubr
          148 -53 hlineto
          -20 1 16 -18 22 hhcurveto
          21 17 18 21 hvcurveto
          52 15 vlineto
          115 61 91 80 hvcurveto
          -101 280 rmoveto
          -33 -23 -49 -67 -12 vhcurveto
          179 vlineto
          hintmask 0111011010000000
          71 -4 19 -52 -29 vvcurveto
          -167 -96 rmoveto
          -47 181 47 hlineto
          188 -364 rmoveto
          -43 -35 -51 -76 -3 vhcurveto
          205 vlineto
          hintmask 0110010101000000
          6 hlineto
          77 28 -67 -41 hvcurveto
          -188 -97 rmoveto
          -47 205 hlineto
          hintmask 0110001000000000
          47 hlineto
          endchar
        </CharString>
        <CharString name="bar">
          -60 -21 773 88 callsubr
          304 -27 rmoveto
          30 callgsubr
          endchar
        </CharString>
        <CharString name="bigcircle">
          0 42 444 41 hstem
          -1 42 443 42 vstem
          -56 callgsubr
          endchar
        </CharString>
        <CharString name="blanksymbol">
          -6 75 297 75 95 75 hstem
          10 154 callgsubr
          cntrmask 00011100
          59 callsubr
          39 vlineto
          107 92 rlineto
          9 6 5 11 11 vvcurveto
          21 -17 17 -21 -10 -8 -3 -5 -7 vhcurveto
          -58 -50 rlineto
          21 vlineto
          35 callsubr
          137 callsubr
          -65 hlineto
          -69 -59 rlineto
          -9 -7 -5 -11 -11 vvcurveto
          -21 17 -17 21 10 9 4 5 6 vhcurveto
          20 17 rlineto
          -323 vlineto
          -24 1 -24 41 31 8 14 20 1 vhcurveto
          42 callgsubr
        </CharString>
        <CharString name="braceleft">
          113 callsubr
          -43 rmoveto
          35 -30 2 -11 vhcurveto
          -124 3 -1 29 29 vvcurveto
          156 vlineto
          25 -3 39 -47 30 vhcurveto
          36 25 14 32 24 vvcurveto
          190 vlineto
          52 1 99 -11 32 hhcurveto
          8 26 7 30 37 -28 1 -21 -71 -127 -17 -88 -1 hvcurveto
          -1 -171 rlineto
          -31 0 -13 -30 -14 vhcurveto
          -14 -34 -48 -1 -21 hhcurveto
          -8 -26 -7 -30 -36 29 -2 12 hvcurveto
          24 -1 100 -4 2 -44 rrcurveto
          -162 vlineto
          -31 1 -46 54 -31 vhcurveto
          -23 42 55 -7 48 hhcurveto
          21 28 1 37 hvcurveto
          endchar
        </CharString>
        <CharString name="braceright">
          113 callsubr
          305 rmoveto
          36 -29 2 -12 vhcurveto
          -22 1 -101 4 -2 45 rrcurveto
          162 vlineto
          30 -1 46 -54 31 vhcurveto
          26 -48 -63 4 -35 hhcurveto
          -20 -29 -1 -37 -32 23 -5 17 hvcurveto
          126 -2 1 -30 -30 vvcurveto
          -156 vlineto
          -39 13 -31 36 -23 vhcurveto
          -48 -33 -1 -44 -4 vvcurveto
          -173 vlineto
          -27 -1 -29 -132 -2 vhcurveto
          -8 -26 -7 -30 -37 29 -1 20 89 111 39 66 hvcurveto
          1 171 rlineto
          31 0 13 30 14 vhcurveto
          14 34 46 1 22 hhcurveto
          8 26 7 30 hvcurveto
          endchar
        </CharString>
        <CharString name="bracketleft">
          -81 75 623 75 hstem
          218 82 vstem
          487 -44 rmoveto
          37 -27 1 -19 vhcurveto
          -141 623 141 108 callsubr
          -177 hlineto
          -38 -8 -11 -37 hvcurveto
          -677 vlineto
          -36 7 -12 39 vhcurveto
          177 hlineto
          18 28 1 36 hvcurveto
          endchar
        </CharString>
        <CharString name="bracketright">
          -81 75 623 75 hstem
          224 82 vstem
          306 -33 rmoveto
          677 122 callgsubr
          -177 hlineto
          -18 -28 -1 -36 -37 27 -1 19 hvcurveto
          141 -623 -141 hlineto
          -18 -28 -1 -36 -37 27 -1 19 hvcurveto
          177 hlineto
          38 8 11 37 hvcurveto
          endchar
        </CharString>
        <CharString name="breve">
          486 121 callsubr
          574 -96 callgsubr
        </CharString>
        <CharString name="breve.cap">
          492 121 callsubr
          580 -96 callgsubr
        </CharString>
        <CharString name="breve.ts1">
          484 79 49 -20 hstem
          462 574 rmoveto
          20 -11 18 -27 -14 -12 -6 -11 -6 vhcurveto
          -4 -6 2 -7 -5 -4 rrcurveto
          -14 -13 -61 -1 -48 hhcurveto
          -48 -63 1 14 -13 hvcurveto
          -5 4 2 7 -4 6 rrcurveto
          11 -6 -12 6 -14 hhcurveto
          -27 -11 -18 -20 -83 116 -7 86 85 113 7 83 hvcurveto
          endchar
        </CharString>
        <CharString name="brokenbar">
          -60 -21 773 88 callsubr
          304 404 rmoveto
          234 vlineto
          14 -1 40 -41 -41 -1 -40 -14 vhcurveto
          -234 vlineto
          -21 19 -17 23 23 19 17 21 vhcurveto
          -431 vmoveto
          234 vlineto
          21 -19 17 -23 -23 -19 -17 -21 vhcurveto
          -234 74 callgsubr
          endchar
        </CharString>
        <CharString name="bullet">
          94 284 hstem
          121 284 78 callgsubr
          endchar
        </CharString>
        <CharString name="c">
          36 callgsubr
          132 callsubr
          hintmask 11110000
          -19 callgsubr
          hintmask 00001000
          22 callsubr
          hintmask 11110000
          -2 callsubr
          endchar
        </CharString>
        <CharString name="cacute">
          98 callgsubr
          146 -20 132 callsubr
          hintmask 11001100
          -19 callgsubr
          hintmask 00000010
          22 callsubr
          hintmask 11001100
          -2 callsubr
          hintmask 00110000
          -68 479 -107 callgsubr
          12 4 16 13 vvcurveto
          endchar
        </CharString>
        <CharString name="caron">
          623 -20 hstem
          413 591 -96 callsubr
        </CharString>
        <CharString name="caron.cap">
          596 -20 hstem
          412 557 rmoveto
          -98 callsubr
        </CharString>
        <CharString name="caron.ts1">
          618 -20 hstem
          450 570 rmoveto
          19 -14 29 -26 -10 -13 -7 -7 -14 vhcurveto
          -111 -54 -105 50 rlineto
          7 -14 -20 11 -9 hhcurveto
          -27 -14 -30 -18 -23 32 -14 24 -11 hvcurveto
          117 -52 11 -4 11 -2 11 6 rlinecurve
          122 55 rlineto
          19 9 30 12 24 vvcurveto
          endchar
        </CharString>
        <CharString name="ccaron">
          36 callgsubr
          192 -20 -6 callgsubr
          490 -96 callsubr
        </CharString>
        <CharString name="ccedilla">
          -203 76 121 75 299 76 -75 75 hstemhm
          70 83 0 83 68 83 -32 102 -95 82 -57 82 hintmask 0100100001000000
          469 114 rmoveto
          34 -35 1 -7 -19 -12 -2 -24 -9 vhcurveto
          -12 -5 -20 -42 -64 hhcurveto
          -78 -67 65 84 hvcurveto
          hintmask 0001001000000000
          154 callsubr
          vhcurveto
          hintmask 0010000100000000
          22 callsubr
          hintmask 0001101000000000
          76 -106 3 -47 -173 -61 -137 -89 -112 82 -97 113 -13 vhcurveto
          -12 150 callsubr
          hintmask 1000010010000000
          -5 callgsubr
          37 -24 43 -62 18 vhcurveto
          hintmask 0000000001000000
          88 24 23 72 15 vvcurveto
          endchar
        </CharString>
        <CharString name="ccircumflex">
          36 callgsubr
          65 -21 -6 callgsubr
          406 -100 callsubr
          endchar
        </CharString>
        <CharString name="cdotaccent">
          36 callgsubr
          62 113 hstemhm
          70 83 80 114 -43 83 -32 102 hintmask 11010100
          -19 callgsubr
          hintmask 00000010
          22 callsubr
          hintmask 11010100
          -2 callsubr
          hintmask 00101000
          -122 449 -102 callgsubr
        </CharString>
        <CharString name="cedilla">
          14 callsubr
        </CharString>
        <CharString name="cedilla.dup">
          14 callsubr
        </CharString>
        <CharString name="cent">
          -70 -21 617 -20 hstem
          70 81 99 77 28 102 vstem
          469 114 rmoveto
          34 -35 1 -7 -19 -12 -3 -23 -9 vhcurveto
          -4 -11 -13 -31 -43 -9 rrcurveto
          297 vlineto
          13 15 -1 0 hvcurveto
          -40 1 22 -15 27 hhcurveto
          28 24 19 33 66 -79 11 -51 2 hvcurveto
          44 vlineto
          21 -18 17 -20 -21 -18 -17 -21 vhcurveto
          1 -49 rlineto
          -133 -25 -48 -117 -79 vvcurveto
          -108 75 -92 105 -20 vhcurveto
          -51 vlineto
          -20 18 -18 21 20 18 18 20 vhcurveto
          49 vlineto
          113 15 29 87 16 vvcurveto
          -220 -36 rmoveto
          -56 20 -42 54 66 vvcurveto
          38 18 80 80 26 vhcurveto
          endchar
        </CharString>
        <CharString name="cent.oldstyle">
          -70 -21 85 75 -73 75 298 75 82 -20 hstemhm
          70 82 23 102 78 102 -70 82 hintmask 0100000010000000
          469 114 rmoveto
          34 -35 1 -7 -19 -12 -2 -24 -9 vhcurveto
          -12 -5 -20 -42 -64 hhcurveto
          hintmask 1011111100000000
          -6 -8 1 1 -7 hvcurveto
          67 298 rlineto
          6 5 -1 0 hvcurveto
          -40 1 22 -15 27 hhcurveto
          28 24 19 33 53 -49 18 -48 6 hvcurveto
          8 38 rlineto
          23 6 -18 23 -25 hhcurveto
          -18 -15 -13 -17 -3 hvcurveto
          -12 -52 rlineto
          -158 -11 -55 -130 -85 vvcurveto
          -84 47 -76 72 -39 vhcurveto
          -14 -63 rlineto
          -25 -6 18 -22 25 hhcurveto
          18 15 13 17 3 hvcurveto
          13 57 rlineto
          hintmask 0100010010000000
          -1 10 11 -1 10 hhcurveto
          143 34 103 17 hvcurveto
          -205 252 rmoveto
          -59 -264 rlineto
          -33 28 -20 41 47 vvcurveto
          39 20 89 92 20 vhcurveto
          endchar
        </CharString>
        <CharString name="centigrade">
          -10 75 326 75 0 42 -4 75 -31 75 -43 42 hstemhm
          3 42 72 42 -7 83 103 83 -81 81 -8 42 -40 81 hintmask 1001000010010000
          496 175 rmoveto
          31 -20 7 -21 -24 -18 -8 -35 vhcurveto
          -30 -3 -14 -75 -53 hhcurveto
          -48 -26 64 43 -15 hvcurveto
          -13 41 -6 44 43 vvcurveto
          68 9 78 39 58 vhcurveto
          hintmask 0100100000001000
          32 24 17 12 18 hhcurveto
          26 47 -23 -107 -24 24 -3 17 35 5 23 22 hvcurveto
          hintmask 0001000000001000
          143 vlineto
          hintmask 0000100010100000
          28 -12 16 -25 -19 -12 -14 -15 -7 vhcurveto
          18 -24 -24 11 -33 hhcurveto
          -80 -2 -48 -66 -28 -65 rrcurveto
          -24 -57 -8 -66 -62 vvcurveto
          -104 29 -142 95 -53 vhcurveto
          hintmask 1000000001000000
          -11 19 21 -5 22 hhcurveto
          hintmask 0100011100001000
          95 63 92 93 hvcurveto
          -337 369 93 callgsubr
          hintmask 0010011100000000
          96 callsubr
        </CharString>
        <CharString name="circumflex">
          496 -21 hstem
          413 507 -100 callsubr
          endchar
        </CharString>
        <CharString name="circumflex.cap">
          503 -21 hstem
          412 521 -105 callsubr
          endchar
        </CharString>
        <CharString name="circumflex.dup">
          496 -21 hstem
          413 507 -100 callsubr
          endchar
        </CharString>
        <CharString name="colon">
          0 137 161 57 callgsubr
          -298 vmoveto
          19 callgsubr
          endchar
        </CharString>
        <CharString name="colonmonetary">
          -70 -21 793 -20 hstemhm
          38 81 131 76 0 76 3 81 hintmask 01001100
          486 172 rmoveto
          39 -29 0 -13 -11 -27 0 -35 -3 vhcurveto
          -4 -63 -38 -30 -35 -11 rrcurveto
          466 vlineto
          37 -16 30 -38 9 -55 rrcurveto
          -20 4 3 -18 35 87 callgsubr
          19 -1 29 -36 -19 -9 -12 -9 -6 vhcurveto
          -2 -3 0 -2 -8 -17 -22 17 -27 13 -30 7 rrcurveto
          48 vlineto
          20 -17 18 -21 vhcurveto
          hintmask 10110100
          -21 -17 -18 -20 hvcurveto
          -44 vlineto
          -116 -19 -96 -127 -168 vvcurveto
          -169 95 -126 117 -19 vhcurveto
          -45 vlineto
          -20 17 -18 21 21 17 18 20 vhcurveto
          47 vlineto
          94 19 66 79 80 vvcurveto
          -238 -102 rmoveto
          -71 24 -58 91 121 vvcurveto
          121 59 91 70 23 vhcurveto
          endchar
        </CharString>
        <CharString name="comma">
          0 137 hstem
          194 158 vstem
          352 32 rmoveto
          65 -42 40 -47 -44 -25 -33 -35 -42 32 -27 36 3 2 0 1 3 vhcurveto
          -16 -47 -37 -12 -10 -4 rrcurveto
          -12 -3 -21 -7 -24 vvcurveto
          -19 19 -20 20 33 106 54 113 vhcurveto
          endchar
        </CharString>
        <CharString name="copyleft">
          128 callgsubr
          119 47 131 47 99 42 vstem
          -56 callgsubr
          -99 hmoveto
          91 -57 66 -65 -22 -20 -8 -11 -16 vhcurveto
          -3 4 0 1 -1 2 rrcurveto
          5 -5 -3 7 -11 hhcurveto
          -20 -2 -16 -11 hvcurveto
          -66 vlineto
          -14 1 -12 24 20 0 11 10 2 vhcurveto
          35 7 22 19 25 hhcurveto
          40 37 -47 -66 -67 -36 -47 -41 -18 -33 10 40 -3 hvcurveto
          21 -2 -16 0 -4 hhcurveto
          -8 -17 0 -23 -45 44 -46 59 65 57 66 91 hvcurveto
          endchar
        </CharString>
        <CharString name="copyright">
          128 callgsubr
          99 47 131 47 119 42 vstem
          -56 callgsubr
          -119 -66 rmoveto
          23 -17 0 -8 -4 -16 0 -20 -2 vhcurveto
          -40 -3 -33 -11 -18 hhcurveto
          -41 -36 47 67 66 37 47 40 25 22 -19 -35 7 hvcurveto
          -10 2 0 -11 20 hhcurveto
          24 1 12 14 hvcurveto
          66 vlineto
          11 -2 16 -20 -11 -3 -7 -5 -5 vhcurveto
          -1 -2 0 -1 -3 -4 rrcurveto
          11 -16 -20 8 -22 hhcurveto
          -65 -57 -66 -91 -91 57 -66 65 59 44 46 45 hvcurveto
          endchar
        </CharString>
        <CharString name="currency">
          147 84 -78 84 138 84 -78 84 hstemhm
          110 84 137 84 -78 84 hintmask 10010100
          422 146 rmoveto
          28 27 -26 29 -9 11 -19 18 rcurveline
          12 23 7 24 28 vvcurveto
          27 -7 25 -12 23 vhcurveto
          18 17 rlineto
          hintmask 00010010
          9 11 27 29 -29 27 -27 29 -29 -27 -11 -9 -17 -18 rcurveline
          hintmask 10101000
          12 -23 -24 7 -27 hhcurveto
          -28 -25 -7 -12 -22 hvcurveto
          -19 19 -11 9 -29 26 -27 -28 rlinecurve
          -28 -27 26 -29 9 -11 20 -19 rcurveline
          -12 -22 -7 -25 -27 vvcurveto
          -27 7 -25 12 -22 vhcurveto
          -19 -18 -9 -11 -27 -29 29 -27 rlinecurve
          27 -29 29 27 11 9 18 18 rcurveline
          hintmask 01101010
          -12 22 25 -7 28 hhcurveto
          27 24 7 12 23 hvcurveto
          18 -19 11 -9 29 -26 27 28 rlinecurve
          -91 160 rmoveto
          -38 -30 -31 -38 -39 -30 31 38 38 30 31 39 vhcurveto
          hintmask 00000100
          38 30 -31 -38 hvcurveto
          endchar
        </CharString>
        <CharString name="cwm">
          -107 endchar
        </CharString>
        <CharString name="cwmascender">
          -107 endchar
        </CharString>
        <CharString name="cwmcapital">
          -107 endchar
        </CharString>
        <CharString name="d">
          -6 75 -69 122 callsubr
          hstemhm
          265 154 callgsubr
          cntrmask 00001110
          hintmask 01111110
          65 callsubr
          -36 488 27 callgsubr
          137 callsubr
          -130 hlineto
          23 -31 -37 12 -38 hhcurveto
          -110 -98 -95 -129 hvcurveto
          hintmask 10001110
          -125 92 -98 107 49 38 20 25 28 vhcurveto
          hintmask 01001110
          123 callsubr
          71 hlineto
          54 callgsubr
          hintmask 10101110
          18 callsubr
          endchar
        </CharString>
        <CharString name="dagger">
          -189 -21 597 81 235 -20 hstem
          215 93 vstem
          460 427 108 callgsubr
          rrcurveto
          8 1 9 1 12 vhcurveto
          18 108 7 42 31 vvcurveto
          9 0 39 -46 -47 0 -38 -10 -27 11 -65 12 -71 vhcurveto
          2 -17 1 -15 1 -15 116 callsubr
          -34 -6 -15 8 -26 43 25 34 8 9 37 hvcurveto
          8 1 12 3 12 1 -2 -19 -3 -18 -5 -20 rrcurveto
          -17 -71 0 -8 -53 vvcurveto
          -147 13 -164 11 -93 vhcurveto
          -19 1 3 -7 18 hhcurveto
          19 1 5 18 4 hvcurveto
          16 109 7 130 168 vvcurveto
          54 0 7 -23 99 vhcurveto
          -1 9 -2 10 -1 10 13 -1 17 -4 17 -3 rrcurveto
          148 callgsubr
          endchar
        </CharString>
        <CharString name="daggerdbl">
          -179 -21 130 81 -22 80 364 81 189 -20 hstemhm
          215 93 hintmask 00111100
          460 473 108 callgsubr
          1 7 0 6 1 7 rrcurveto
          17 78 8 40 28 vvcurveto
          8 0 38 -47 -14 -32 -4 -42 -20 5 -29 8 -35 vhcurveto
          7 -34 5 -27 2 -21 116 callsubr
          -35 -5 -16 8 -25 43 25 34 8 8 37 hvcurveto
          8 2 12 3 12 1 -1 -6 0 -7 -1 -6 rrcurveto
          -17 -79 -8 -30 -28 vvcurveto
          -41 31 -4 15 41 6 29 16 39 -23 74 -4 43 vhcurveto
          47 -8 rlineto
          148 callgsubr
          -444 vmoveto
          20 -16 20 -30 -23 -21 -3 -17 -79 vhcurveto
          -10 -1 rlineto
          5 54 22 56 44 vvcurveto
          42 -31 4 -15 -41 -6 -29 -17 -23 10 -38 12 -60 vhcurveto
          2 -10 2 -12 1 -12 -17 2 -9 2 -40 9 rrcurveto
          9 -37 -20 0 -9 hhcurveto
          -34 -13 -24 -16 -18 14 -22 33 29 28 6 4 13 hvcurveto
          hintmask 11000100
          36 8 12 2 14 2 -3 -21 -4 -25 -7 -35 rrcurveto
          -13 -56 0 -23 -5 vvcurveto
          -41 31 -5 15 41 6 30 16 28 -9 43 -16 77 vhcurveto
          -2 17 18 -2 9 -2 39 -9 rlinecurve
          hintmask 00100000
          -9 39 21 0 6 hhcurveto
          33 14 22 18 hvcurveto
          endchar
        </CharString>
        <CharString name="dblbracketleft">
          -80 84 605 84 hstem
          142 82 74 85 vstem
          499 -38 rmoveto
          23 -21 19 -34 vhcurveto
          -61 605 59 hlineto
          39 18 17 26 29 -25 12 -36 hvcurveto
          -231 hlineto
          -38 -27 -7 -37 hvcurveto
          -683 vlineto
          -33 13 -13 32 vhcurveto
          260 hlineto
          34 18 21 21 hvcurveto
          -201 42 rmoveto
          -74 605 74 hlineto
          endchar
        </CharString>
        <CharString name="dblbracketright">
          -80 84 605 84 hstem
          141 85 74 82 vstem
          382 -38 rmoveto
          688 vlineto
          20 -5 23 -35 vhcurveto
          -277 hlineto
          -32 -7 -22 -20 -23 8 -19 34 hvcurveto
          73 -605 -70 hlineto
          -34 -11 -19 -23 -21 10 -21 32 hvcurveto
          275 hlineto
          32 7 21 21 hvcurveto
          -82 42 rmoveto
          -74 605 74 hlineto
          endchar
        </CharString>
        <CharString name="dblgrave.ts1">
          488 -21 145 -20 hstem
          417 513 rmoveto
          39 callgsubr
          -175 hmoveto
          39 callgsubr
          endchar
        </CharString>
        <CharString name="dblverticalbar">
          142 callgsubr
          116 84 126 84 vstem
          200 -27 rmoveto
          30 callgsubr
          210 hmoveto
          30 callgsubr
          endchar
        </CharString>
        <CharString name="dcaron">
          91 callsubr
          291 75 63 107 -75 75 hstemhm
          34 82 149 78 callsubr
          -30 123 hintmask 0100000000010000
          65 callsubr
          hintmask 0100000000001000
          47 callgsubr
          hintmask 1010110001000000
          36 -130 12 callgsubr
          hintmask 0100000010000000
          123 callsubr
          hintmask 0100000000100000
          71 hlineto
          hintmask 1010111000001000
          54 callgsubr
          18 callsubr
          260 265 21 callgsubr
          vhcurveto
          hintmask 0001000000000100
          -37 callgsubr
        </CharString>
        <CharString name="dcroat">
          91 callsubr
          291 75 12 64 19 75 hstemhm
          34 82 149 82 -34 82 -48 84 -47 82 hintmask 0101000010000000
          65 callsubr
          -36 378 41 hlineto
          117 callgsubr
          -41 46 hlineto
          hintmask 0000100001000000
          35 callsubr
          hintmask 0000100100000000
          -71 hlineto
          hintmask 1011111000000000
          73 callsubr
          -19 -136 163 callgsubr
          136 -47 12 callgsubr
          hintmask 0100000100000000
          123 callsubr
          hintmask 0100000001000000
          71 hlineto
          54 callgsubr
          hintmask 1010011000000000
          18 callsubr
          endchar
        </CharString>
        <CharString name="ddotbelow">
          29 callsubr
          76 75 -69 122 callsubr
          hstemhm
          34 82 90 114 -55 78 callsubr
          hintmask 0010000000001000
          65 callsubr
          hintmask 0010000000000100
          -36 488 hlineto
          hintmask 0000100000010000
          35 callsubr
          hintmask 0000100001000000
          -71 hlineto
          hintmask 0000000100000000
          -19 -29 -1 -37 hvcurveto
          hintmask 0000100010000000
          68 callsubr
          vhcurveto
          hintmask 0101110000100000
          36 -130 12 callgsubr
          hintmask 0010000001000000
          123 callsubr
          hintmask 0010000000010000
          71 hlineto
          hintmask 0101010100000100
          54 callgsubr
          18 callsubr
          hintmask 1000001000000000
          -27 -404 -102 callgsubr
        </CharString>
        <CharString name="degree">
          466 42 72 42 hstem
          183 42 72 42 vstem
          339 544 93 callgsubr
          96 callsubr
        </CharString>
        <CharString name="diameter">
          90 83 266 83 hstem
          46 83 266 83 vstem
          488 491 rmoveto
          23 -19 19 -23 -12 -9 -5 -7 -9 vhcurveto
          -34 -35 rlineto
          23 -34 -42 13 -44 hhcurveto
          -119 -97 -97 -119 -45 13 -42 23 -34 hvcurveto
          -34 -35 rlineto
          -8 -8 -4 -9 -12 vvcurveto
          -23 19 -19 23 12 9 5 7 9 vhcurveto
          34 35 rlineto
          -23 34 42 -13 44 hhcurveto
          119 97 97 119 45 -13 42 -23 34 hvcurveto
          34 34 rlineto
          8 9 4 9 12 vvcurveto
          -93 -185 rmoveto
          -74 -58 -59 -74 -21 -20 5 9 -18 vhcurveto
          177 178 rlineto
          9 -17 5 -21 -21 vvcurveto
          -75 119 rmoveto
          -177 -178 rlineto
          -9 17 -5 21 21 vvcurveto
          74 58 59 74 21 20 -5 -9 18 vhcurveto
          endchar
        </CharString>
        <CharString name="died">
          4 -21 305 78 185 88 callsubr
          497 328 rmoveto
          33 -23 5 -22 vhcurveto
          -148 145 hlineto
          32 -20 8 -23 -34 -7 -20 -25 vhcurveto
          -140 -148 vlineto
          -22 -23 -5 -33 -21 14 -19 26 hvcurveto
          153 -257 hlineto
          -27 4 -21 40 39 1 27 22 vhcurveto
          256 153 vlineto
          25 15 16 24 hvcurveto
          endchar
        </CharString>
        <CharString name="dieresis">
          498 103 hstem
          153 callsubr
          vstem
          -37 callsubr
          endchar
        </CharString>
        <CharString name="dieresis.cap">
          482 103 hstem
          113 104 91 104 vstem
          -4 callsubr
          endchar
        </CharString>
        <CharString name="dieresis.dup">
          498 103 hstem
          153 callsubr
          vstem
          -37 callsubr
          endchar
        </CharString>
        <CharString name="dieresis.ts1">
          500 113 hstem
          104 113 90 113 vstem
          420 556 rmoveto
          27 -21 30 -33 vhcurveto
          -3 -3 -1 -3 hhcurveto
          -34 -5 -16 -26 -25 vvcurveto
          -22 18 -34 36 32 27 21 35 vhcurveto
          -203 hmoveto
          25 -21 32 -34 vhcurveto
          -3 -3 -1 -3 hhcurveto
          -29 -5 -20 -22 -29 vvcurveto
          -26 21 -30 33 36 23 27 29 vhcurveto
          endchar
        </CharString>
        <CharString name="discount">
          22 -21 42 96 -95 95 415 96 43 -20 hstemhm
          130 96 72 96 hintmask 11011100
          469 650 rmoveto
          24 -20 19 -23 -19 -18 -23 -17 -9 vhcurveto
          -306 -565 rlineto
          -9 -17 -10 -17 -11 vvcurveto
          -23 19 -19 23 23 13 18 19 10 vhcurveto
          309 571 rlineto
          7 13 10 18 10 vvcurveto
          -243 -49 rmoveto
          -26 -20 -15 -22 -6 vhcurveto
          -33 1 -21 20 28 vvcurveto
          26 20 16 22 5 vhcurveto
          33 21 -20 -29 hvcurveto
          168 -510 rmoveto
          hintmask 00100010
          -26 -20 -16 -22 -5 vhcurveto
          -33 -21 20 29 25 20 16 22 5 hvcurveto
          33 21 -20 -28 hvcurveto
          endchar
        </CharString>
        <CharString name="divide">
          30 138 0 138 -42 84 95 138 hstemhm
          193 137 hintmask 00100000
          488 306 rmoveto
          40 -41 2 -16 vhcurveto
          -338 hlineto
          hintmask 01000000
          -16 -41 -2 -40 hvcurveto
          hintmask 00100000
          -41 38 -1 14 vhcurveto
          348 hlineto
          hintmask 01011000
          14 38 1 41 hvcurveto
          -158 206 rmoveto
          40 -33 29 -35 -42 -27 -34 -34 -41 33 -29 35 42 27 35 34 vhcurveto
          -414 vmoveto
          41 -33 29 -35 -42 -27 -35 -34 vhcurveto
          hintmask 10001000
          -40 33 -29 35 42 27 34 34 vhcurveto
          endchar
        </CharString>
        <CharString name="divorced">
          -42 -21 152 80 275 80 -80 81 152 -20 hstemhm
          -211 79 219 82 51 84 51 83 217 79 hintmask 0110011000000000
          169 308 rmoveto
          107 -82 109 -113 -110 -75 -113 -105 -107 80 -110 113 114 73 115 104 vhcurveto
          565 -2 rmoveto
          hintmask 1101111111000000
          103 -72 116 -114 -118 -75 -113 -107 -108 78 -108 116 113 72 114 103 vhcurveto
          -430 -322 rmoveto
          649 vlineto
          30 -15 14 -26 -29 -14 -17 -32 vhcurveto
          -649 vlineto
          -34 18 -8 22 43 1 24 23 vhcurveto
          -217 321 rmoveto
          -63 -41 -73 -68 -70 -40 71 69 64 42 71 68 69 40 -73 -66 vhcurveto
          568 -1 rmoveto
          -66 -40 -69 -64 -71 -42 74 65 62 41 74 67 69 40 -71 -69 vhcurveto
          endchar
        </CharString>
        <CharString name="dlinebelow">
          -188 77 105 75 -69 122 callsubr
          hstemhm
          34 82 149 78 callsubr
          hintmask 0010000000010000
          65 callsubr
          hintmask 0010000000001000
          47 callgsubr
          hintmask 0101110001000000
          36 -130 12 callgsubr
          hintmask 0010000010000000
          123 callsubr
          hintmask 0010000000100000
          71 hlineto
          hintmask 0101011000001000
          54 callgsubr
          18 callsubr
          hintmask 1000000000000000
          108 -416 -90 callsubr
        </CharString>
        <CharString name="dollar">
          142 callgsubr
          55 76 94 75 93 76 vstem
          469 174 rmoveto
          49 -27 99 -142 29 vhcurveto
          188 vlineto
          28 -5 37 -13 15 -38 rrcurveto
          -9 -9 -5 -13 -13 vvcurveto
          -26 20 -24 31 24 28 13 42 77 -54 73 -115 12 vhcurveto
          29 124 callgsubr
          -37 -1 -29 -19 vhcurveto
          -30 vlineto
          -108 -16 -62 -76 -74 vvcurveto
          -24 6 -108 164 -33 vhcurveto
          -211 vlineto
          -36 7 -32 19 -14 39 rrcurveto
          7 6 8 10 21 vvcurveto
          33 -28 19 -23 -10 -42 -4 -52 -83 57 -77 113 -14 vhcurveto
          -29 vlineto
          -19 1 -29 37 36 1 29 19 vhcurveto
          30 vlineto
          119 22 50 86 69 vvcurveto
          -244 193 rmoveto
          -50 11 -44 31 43 vvcurveto
          41 40 34 54 11 vhcurveto
          168 -367 rmoveto
          -44 -37 -41 -56 -12 vhcurveto
          193 vlineto
          57 -14 36 -38 -44 vvcurveto
          endchar
        </CharString>
        <CharString name="dollar.oldstyle">
          -6 76 -74 74 -74 76 hstemhm
          45 75 -74 74 0 79 -41 79 -76 76 50 76 -76 79 -41 79 -16 91 -75 74 cntrmask 1110000000000000
          hintmask 1110000010000000
          479 453 rmoveto
          72 -50 56 -66 24 vhcurveto
          43 vlineto
          hintmask 1110000000100000
          26 -11 19 -27 vhcurveto
          hintmask 1110000110000000
          -29 -9 -22 -25 hvcurveto
          -29 -50 29 vlineto
          hintmask 1110010000000000
          25 -10 22 -28 vhcurveto
          hintmask 1110100100000000
          -27 -11 -18 -28 hvcurveto
          -45 vlineto
          -59 -26 -56 -48 -76 vvcurveto
          2 -73 44 -41 69 -36 rrcurveto
          -201 vlineto
          -13 11 -13 16 12 9 13 8 17 vvcurveto
          27 -20 26 -31 vhcurveto
          hintmask 1111000100000000
          -29 -23 -23 -34 -67 49 -76 67 -16 hvcurveto
          -50 vlineto
          hintmask 1110010000000000
          -24 12 -17 26 vhcurveto
          hintmask 1110000110000000
          28 10 22 25 hvcurveto
          29 vlineto
          -1 6 9 -1 10 hhcurveto
          10 15 2 0 hvcurveto
          -29 vlineto
          hintmask 1110000000100000
          -25 10 -22 28 vhcurveto
          hintmask 1110000010001000
          26 12 17 25 hvcurveto
          53 vlineto
          60 23 53 60 2 77 rrcurveto
          77 -63 63 -52 18 vhcurveto
          183 vlineto
          hintmask 1110100110010000
          13 -9 12 -13 -10 vvcurveto
          -1 vlineto
          -10 -12 -8 -15 vvcurveto
          -26 19 -25 31 29 24 19 35 vhcurveto
          -192 -98 rmoveto
          -50 13 rlineto
          173 vlineto
          0 15 2 10 10 15 -2 0 vhcurveto
          -129 -143 rmoveto
          -20 14 -18 18 26 vvcurveto
          hintmask 1110001001001000
          25 18 18 20 14 vhcurveto
          246 -339 rmoveto
          -32 -16 -21 -22 -18 vhcurveto
          133 vlineto
          19 -15 18 -19 1 -28 rrcurveto
          -117 -101 rmoveto
          0 -15 -3 -9 -10 -16 2 0 vhcurveto
          209 vlineto
          50 -12 rlineto
          endchar
        </CharString>
        <CharString name="dong">
          24 72 -66 66 -66 72 hstemhm
          32 79 140 79 -34 79 -46 81 cntrmask 11100000
          hintmask 11100010
          488 66 rmoveto
          35 -28 1 -17 vhcurveto
          -33 359 38 hlineto
          20 17 10 20 20 -17 11 -20 hvcurveto
          -38 43 hlineto
          36 -7 10 -38 vhcurveto
          -68 hlineto
          hintmask 11101000
          -18 -28 -1 -35 hvcurveto
          hintmask 11100100
          -35 29 -1 16 vhcurveto
          hintmask 11111000
          34 -17 -129 hlineto
          -20 -16 -11 -20 -20 16 -10 20 hvcurveto
          129 -44 hlineto
          22 -29 -35 11 -36 hhcurveto
          -106 -92 -92 -121 -120 88 -93 101 47 36 20 22 26 hvcurveto
          hintmask 11110100
          -26 2 6 -10 37 hhcurveto
          67 hlineto
          19 27 1 35 hvcurveto
          -88 vmoveto
          20 -16 13 -22 vhcurveto
          -380 hlineto
          -21 -17 -13 -20 -21 17 -12 21 hvcurveto
          380 hlineto
          22 16 12 21 hvcurveto
          -159 239 rmoveto
          -48 -39 -73 -66 -62 -51 63 78 84 60 57 62 vhcurveto
          hintmask 11100010
          55 41 -48 -47 hvcurveto
          endchar
        </CharString>
        <CharString name="dotaccent">
          493 109 callgsubr
          550 -102 callgsubr
        </CharString>
        <CharString name="dotaccent.alt">
          459 109 callgsubr
          516 -102 callgsubr
        </CharString>
        <CharString name="dotaccent.cap">
          482 109 callgsubr
          539 -102 callgsubr
        </CharString>
        <CharString name="dotlessi">
          25 callsubr
          hstem
          233 83 vstem
          -94 callgsubr
          endchar
        </CharString>
        <CharString name="dotlessj">
          106 callsubr
          hstem
          44 103 142 83 vstem
          -68 callsubr
          endchar
        </CharString>
        <CharString name="e">
          66 callgsubr
          -103 callgsubr
          endchar
        </CharString>
        <CharString name="eacute">
          53 callgsubr
          146 -20 -88 callgsubr
          hintmask 00011000
          -7 333 -107 callgsubr
          12 4 16 13 vvcurveto
          endchar
        </CharString>
        <CharString name="ebreve">
          -21 callgsubr
          55 78 48 -20 -88 callgsubr
          hintmask 00011000
          61 327 -96 callgsubr
        </CharString>
        <CharString name="ecaron">
          -21 callgsubr
          192 -20 -88 callgsubr
          hintmask 00010000
          32 344 -96 callsubr
        </CharString>
        <CharString name="ecircumflex">
          -21 callgsubr
          65 -21 -88 callgsubr
          hintmask 00010000
          32 260 -100 callsubr
          endchar
        </CharString>
        <CharString name="ecircumflexacute">
          53 callgsubr
          280 -20 -88 callgsubr
          hintmask 00011000
          31 268 -90 callgsubr
        </CharString>
        <CharString name="ecircumflexdotbelow">
          29 callsubr
          76 -15 callgsubr
          65 -21 134 callsubr
          hintmask 01111000
          -103 callgsubr
          32 260 -100 callsubr
          hintmask 10000100
          -93 -658 -102 callgsubr
        </CharString>
        <CharString name="ecircumflexgrave">
          53 callgsubr
          -88 callgsubr
          hintmask 00010000
          31 268 -91 callsubr
        </CharString>
        <CharString name="ecircumflexhookabove">
          -21 callgsubr
          57 160 callsubr
          hintmask 11100000
          -103 callgsubr
          hintmask 00010000
          31 268 -7 callsubr
          hintmask 00001110
          -76 callsubr
          57 229 -100 callgsubr
          -66 callsubr
          19 16 17 18 vhcurveto
          -56 callsubr
        </CharString>
        <CharString name="ecircumflextilde">
          53 callgsubr
          154 79 -25 79 -88 callgsubr
          hintmask 00010100
          31 268 -105 callsubr
          28 209 -14 callgsubr
          hintmask 00001000
          -72 callsubr
          hintmask 00000100
          -92 callsubr
          hintmask 00001000
          -69 callgsubr
          hintmask 00000100
          -77 callsubr
          hintmask 00001000
          -95 callsubr
        </CharString>
        <CharString name="edblgrave">
          -21 callgsubr
          63 -21 152 -20 -88 callgsubr
          hintmask 00011000
          57 272 -103 callsubr
        </CharString>
        <CharString name="edieresis">
          -21 callgsubr
          67 103 hstemhm
          153 callsubr
          hintmask 11100000
          -103 callgsubr
          hintmask 00011100
          -149 303 -63 callgsubr
        </CharString>
        <CharString name="edotaccent">
          -21 callgsubr
          62 113 134 callsubr
          hintmask 11100000
          -103 callgsubr
          hintmask 00011000
          -61 303 -102 callgsubr
        </CharString>
        <CharString name="edotbelow">
          29 callsubr
          76 -15 callgsubr
          134 callsubr
          hintmask 01110000
          -103 callgsubr
          hintmask 10001000
          -61 -398 -102 callgsubr
        </CharString>
        <CharString name="egrave">
          53 callgsubr
          146 -20 -88 callgsubr
          hintmask 00011000
          -8 275 -84 callsubr
          -16 28 -12 hvcurveto
          61 callgsubr
          -3 7 6 -2 8 hhcurveto
          31 9 37 9 hvcurveto
          endchar
        </CharString>
        <CharString name="ehookabove">
          -21 callgsubr
          19 85 callsubr
          0 74 hintmask 1110000000000000
          -103 callgsubr
          hintmask 0000110010000000
          -15 336 -100 callgsubr
          hintmask 0001000100000000
          -66 callsubr
          vhcurveto
          hintmask 0000001010000000
          -69 callsubr
        </CharString>
        <CharString name="eight">
          -23 callsubr
        </CharString>
        <CharString name="eight.taboldstyle">
          -23 callsubr
        </CharString>
        <CharString name="ellipsis">
          0 137 hstem
          19 137 38 137 38 137 cntrmask 01110000
          156 68 rmoveto
          19 callgsubr
          175 hmoveto
          19 callgsubr
          175 hmoveto
          19 callgsubr
          endchar
        </CharString>
        <CharString name="emacron">
          -21 callgsubr
          80 77 -88 callgsubr
          hintmask 00010000
          74 302 -90 callsubr
        </CharString>
        <CharString name="emdash">
          264 84 hstem
          471 306 rmoveto
          -46 callgsubr
        </CharString>
        <CharString name="emdash.alt">
          43 callsubr
        </CharString>
        <CharString name="endash">
          264 84 hstem
          471 306 rmoveto
          -46 callgsubr
        </CharString>
        <CharString name="eng">
          -227 84 143 120 callsubr
          hstemhm
          44 154 callgsubr
          cntrmask 00001110
          hintmask 00011110
          465 67 rmoveto
          226 vlineto
          104 -54 44 -81 -56 -41 -23 -19 -23 vhcurveto
          hintmask 01101110
          25 -1 -7 12 -39 hhcurveto
          13 callsubr
          -36 31 -1 16 hvcurveto
          36 -286 -35 hlineto
          -19 -29 -1 -37 -36 31 -1 16 hvcurveto
          155 hlineto
          -22 callsubr
          165 hlineto
          hintmask 10011110
          91 67 35 47 47 11 -25 -53 vhcurveto
          -221 vlineto
          -94 0 -116 -60 -24 -18 -19 -23 -24 18 -18 24 62 36 39 59 21 vhcurveto
          18 55 6 72 69 vvcurveto
          endchar
        </CharString>
        <CharString name="eogonek">
          -198 68 316 69 callsubr
          hstemhm
          201 73 55 73 -67 73 hintmask 11110100
          6 callgsubr
          hintmask 10011000
          26 callgsubr
          -14 -21 12 19 hvcurveto
          hintmask 01100100
          51 callgsubr
          endchar
        </CharString>
        <CharString name="eogonekacute">
          -198 68 316 69 callsubr
          66 68 callgsubr
          201 73 55 73 -67 73 hintmask 11100101
          6 callgsubr
          hintmask 10000110
          26 callgsubr
          -14 -21 12 19 hvcurveto
          hintmask 01100001
          51 callgsubr
          hintmask 00011000
          -7 333 -107 callgsubr
          12 4 16 13 vvcurveto
          endchar
        </CharString>
        <CharString name="equal">
          190 84 64 84 hstem
          488 380 70 callgsubr
          -148 vmoveto
          41 -38 1 -14 vhcurveto
          -348 hlineto
          -14 -38 -1 -41 -40 41 -2 16 hvcurveto
          338 hlineto
          16 41 2 40 hvcurveto
          endchar
        </CharString>
        <CharString name="ereversed">
          66 callgsubr
          467 219 rmoveto
          124 -98 101 -120 -131 -66 -99 -115 -44 22 0 25 vhcurveto
          281 hlineto
          -74 -18 -67 -43 -67 hhcurveto
          -25 -49 8 46 -20 hvcurveto
          22 -9 -9 4 -22 hhcurveto
          -7 -35 -1 -34 -26 47 -94 136 130 102 102 123 hvcurveto
          -88 41 rmoveto
          -241 hlineto
          87 11 54 22 46 hhcurveto
          62 52 -46 -63 16 hvcurveto
          endchar
        </CharString>
        <CharString name="estimated">
          -5 75 214 74 188 75 hstem
          29 85 285 85 vstem
          484 116 rmoveto
          27 -24 7 -20 -16 -17 -21 -22 -18 vhcurveto
          -27 -24 -40 -10 -36 hhcurveto
          -101 -74 118 93 hvcurveto
          3 323 vlineto
          30 17 9 34 hvcurveto
          7 vlineto
          133 -61 154 -156 -163 -75 -181 -133 -140 85 -172 164 75 86 21 77 38 vhcurveto
          4 7 3 8 8 vvcurveto
          -85 242 rmoveto
          -283 hlineto
          81 8 56 107 88 hhcurveto
          94 35 -108 -80 2 hvcurveto
          endchar
        </CharString>
        <CharString name="eth">
          36 callgsubr
          177 -20 hstem
          147 callgsubr
          50 vlineto
          111 -52 99 -81 63 vhcurveto
          14 8 rlineto
          14 7 9 14 16 vvcurveto
          20 -16 15 -21 -8 -7 -1 -4 -6 vhcurveto
          -56 -29 -41 18 -45 11 -48 1 rlinecurve
          -24 -19 -17 -21 -21 18 -16 23 -1 hvcurveto
          14 13 -2 -2 14 hvcurveto
          -18 -9 rlineto
          -13 -7 -10 -15 -15 vvcurveto
          -20 16 -16 22 7 7 2 3 7 vhcurveto
          75 40 30 -18 25 -24 20 -28 rlinecurve
          9 -22 -24 5 -25 hhcurveto
          17 callsubr
          -128 97 -96 111 56 51 24 41 39 hvcurveto
          40 42 22 58 59 37 callgsubr
        </CharString>
        <CharString name="etilde">
          -21 callgsubr
          52 79 -25 79 -88 callgsubr
          hintmask 00001000
          60 330 rmoveto
          19 -18 20 -20 -13 -7 -6 -7 -67 callgsubr
        </CharString>
        <CharString name="eturned">
          -6 callsubr
        </CharString>
        <CharString name="exclam">
          0 113 509 -20 hstem
          205 114 vstem
          319 558 rmoveto
          60 -47 4 -10 -10 -47 -4 -60 vhcurveto
          10 -346 rlineto
          -31 1 30 -2 16 hhcurveto
          41 4 9 46 3 hvcurveto
          9 -177 -102 callgsubr
        </CharString>
        <CharString name="exclamdown">
          -206 -21 509 113 hstem
          205 114 vstem
          319 338 rmoveto
          32 -25 25 -32 -32 -25 -25 -32 -32 25 -24 32 32 25 24 32 vhcurveto
          -502 vmoveto
          -10 348 rlineto
          30 -1 -32 1 -14 hhcurveto
          -40 -5 -8 -46 -3 hvcurveto
          -9 -325 rlineto
          -59 47 -4 10 10 47 4 59 vhcurveto
          endchar
        </CharString>
        <CharString name="f">
          -26 callsubr
          286 127 callgsubr
          38 hlineto
          63 52 5 29 vhcurveto
          -14 4 13 -28 32 hhcurveto
          23 27 18 33 hvcurveto
          endchar
        </CharString>
        <CharString name="five">
          -11 75 256 75 141 75 hstemhm
          50 102 -67 82 225 82 hintmask 11101100
          474 193 9 callgsubr
          hintmask 10010100
          61 callsubr
        </CharString>
        <CharString name="five.taboldstyle">
          -192 75 256 75 141 75 hstem
          85 82 225 82 vstem
          474 12 9 callgsubr
          61 callsubr
        </CharString>
        <CharString name="florin">
          -26 callsubr
          286 127 callgsubr
          38 hlineto
          63 52 5 29 vhcurveto
          -14 4 13 -28 32 hhcurveto
          23 27 18 33 hvcurveto
          endchar
        </CharString>
        <CharString name="four">
          0 75 90 75 383 -20 hstem
          312 70 vstem
          497 202 -57 callsubr
          -68 335 114 callgsubr
          -349 127 callsubr
          -90 -53 -63 callsubr
          175 hlineto
          18 29 81 callsubr
          -20 hvcurveto
          -52 90 68 hlineto
          82 callgsubr
          -187 38 rmoveto
          -194 hlineto
          194 305 rlineto
          endchar
        </CharString>
</ttFont>
